<?xml version="1.0" encoding="utf-8"?>
<!-- Generator: Adobe Illustrator 29.5.0, SVG Export Plug-In . SVG Version: 9.03 Build 0)  -->
<svg version="1.0"
	 id="svg2" xmlns:sodipodi="http://sodipodi.sourceforge.net/DTD/sodipodi-0.dtd" xmlns:inkscape="http://www.inkscape.org/namespaces/inkscape" xmlns:svg="http://www.w3.org/2000/svg" sodipodi:docname="84dc7d61bae98b67b29568964344f868.ai"
	 xmlns="http://www.w3.org/2000/svg" xmlns:xlink="http://www.w3.org/1999/xlink" x="0px" y="0px" viewBox="0 0 3686.7 2594.2"
	 style="enable-background:new 0 0 3686.7 2594.2;" xml:space="preserve">
<style type="text/css">
	.st0{fill:#FFFFFF;}
</style>
<g>
	<path id="path20" class="st0" d="M1840.6,1280.4c-146-22.8-439.4-82-568.3-112.5c-99.8-23.7-111.5-56.3-123.5-111.8l-0.5-2.1
		c-3.7-17-35-185.7-48-256.7L970.9,614.6h1744.6l-129.4,182.7c-12.3,67.3-44.3,239.5-48,256.6l-0.5,2.2
		c-12.1,55.5-23.8,88.1-123.5,111.8c-128.6,30.5-422,89.6-568.5,112.5l-2.5,0.4L1840.6,1280.4z"/>
	<path id="path24" d="M2683.9,630.9l-113.2,159.8c-12.4,67.9-44.9,242.7-48.5,259.7c-10.7,48.9-15.8,78.7-111.8,101.5
		c-127.9,30.3-420.3,89.3-567.3,112.3c-146.9-23-439.2-82-567.1-112.3c-96-22.9-101.1-52.6-111.8-101.5
		c-3.7-16.9-36.1-191.8-48.5-259.7l-113.2-159.8H2683.9z"/>
	<path id="path28" class="st0" d="M2594.7,661H1091.9l89.3,127.4c22.3,132.5,36.1,217.8,41.8,247.5c9.9,51.7,11.7,74,65.1,88.4
		c106.2,25.1,413.8,88.4,555.2,109.7c141.4-21.3,449.1-84.5,555.3-109.7c53.4-14.4,55.1-36.7,65.1-88.4
		c5.6-29.7,19.5-114.9,41.8-247.5L2594.7,661z"/>
	<path id="path32" d="M1369.9,918.3h-144.3l-11.2-66.1h619.7v66.1h-16.7v-50.6h-452.7L1369.9,918.3z"/>
	<path id="path36" d="M1211.9,837.1h622v-48.5h-630.1L1211.9,837.1z"/>
	<path id="path40" d="M1601,999.7h233.1V965h-233L1601,999.7z"/>
	<path id="path44" d="M1197.8,773.1h147.4l-27.9-48.5h500.1v48.3h16.7v-65.1h-682L1197.8,773.1z"/>
	<path id="path48" d="M2087.6,707.9h-235.1v97.4h235.2L2087.6,707.9z"/>
	<path id="path52" d="M1259.2,1083.6c3.8,5.8,10.9,12.6,34.4,18.9c11.4,2.8,24,5.6,41.6,9.5h249.6v-34.4h-328.8
		C1256.8,1079.7,1257.9,1081.7,1259.2,1083.6L1259.2,1083.6z"/>
	<path id="path56" d="M1244.9,1031h339.8v-97.2h-356.5L1244.9,1031z"/>
	<path id="path60" d="M1601,1167.3c87,17.1,172.1,32.9,233.2,42.5v-163H1601V1167.3z"/>
	<path id="path64" d="M2103.7,918.3H2461l16.3-97.5h-373.6V918.3z"/>
	<path id="path68" d="M2103.7,738.9v34.6l384.3-0.1l24.1-34.4H2103.7z"/>
	<path id="path72" d="M1852.5,999.7h16.7v-49.1h444.6c-0.6,4.8-4.7,37.7-6.9,49.2h140.4l11.2-66h-606V999.7z"/>
	<path id="path76" d="M1852.5,1063.2h583l9.4-48.3h-592.4V1063.2z"/>
	<path id="path78" d="M2087.7,852.2h-235.2V887h235.2V852.2z"/>
	<path id="path82" d="M1984.3,1169.6c-23.2,4.4-88.4,15.8-115.1,20.6v-95.9h412C2261.5,1117.5,2220.9,1124.4,1984.3,1169.6
		 M1852.5,1077.6v132.2c148.2-24.2,436-81.3,540.7-107.4c23.7-5.9,30.7-13,34.5-18.8c1.3-1.9,2.3-3.9,3.1-6H1852.5z"/>
</g>
<g>
	<path id="path86" d="M587.5,1696.6c-24-9.7-42.4-23.1-55.1-40.2c-12.7-17.1-19-36.7-19-58.7c0-22,6.3-41.6,19-58.7
		c12.7-17.1,31-30.5,55.1-40.2c24-9.7,52.4-14.5,85.1-14.5c55.8,0,102.8,13.5,141,40.5v7.5l-15.1,18.4
		c-36.1-26.4-78-39.6-125.9-39.6c-26,0-48.6,3.4-67.7,10.3c-19.1,6.9-33.8,16.8-44.1,29.9c-10.3,13.1-15.4,28.6-15.4,46.4
		c0,17.9,5.1,33.3,15.4,46.4c10.3,13.1,25,23.1,44.1,29.9c19.1,6.9,41.6,10.3,67.7,10.3c23.9,0,45.9-3.3,65.9-10
		c20-6.6,39.9-16.7,59.6-30.2l15.4,18.4v7.5c-18.9,13.3-39.7,23.5-62.5,30.5c-22.8,7.1-48.9,10.6-78.5,10.6
		C639.9,1711.1,611.5,1706.2,587.5,1696.6"/>
	<path id="path94" d="M1415.4,1679.9c45.5,0,79.1-6.5,100.8-19.6c21.7-13.1,32.6-34,32.6-62.6c0-28.7-10.9-49.5-32.6-62.6
		c-21.7-13.1-55.3-19.6-100.8-19.6h-85v164.5H1415.4z M1299,1706.7v-218.1h122.7c52.7,0,92.4,9.1,119.1,27.4
		c26.7,18.3,40.1,45.5,40.1,81.6c0,36.1-13.4,63.3-40.1,81.6c-26.7,18.3-66.4,27.4-119.1,27.4H1299z"/>
	<path id="path96" d="M1705.8,1706.7h-31.5v-218.1h31.5V1706.7z"/>
	<path id="path100" d="M1854.2,1488.6v191.3h228.4l-20.7,26.8h-239.1v-218.1H1854.2z"/>
	<path id="path104" d="M2193.9,1488.6v191.3h228.4l-20.7,26.8h-239.1v-218.1H2193.9z"/>
	<path id="path108" d="M2638.2,1514.8l-70.8,109.6h157.1l-70.8-109.6H2638.2z M2621.8,1488.6h48.3l140.3,210.6v7.5h-32.7l-35.9-55.4
		h-191.8l-35.9,55.4h-32.7v-7.5L2621.8,1488.6z"/>
	<path id="path108_00000169529882803452803790000015078618699899687065_" d="M1042.7,1514.8l-70.8,109.6h157.1l-70.8-109.6H1042.7z
		 M1026.4,1488.6h48.3l140.3,210.6v7.5h-32.7l-35.9-55.4H954.6l-35.9,55.4H886v-7.5L1026.4,1488.6z"/>
	<path id="path112" d="M2947.2,1696.6c-24-9.7-42.4-23.1-55.1-40.2c-12.7-17.1-19-36.7-19-58.7c0-22,6.3-41.6,19-58.7
		c12.7-17.1,31-30.5,55.1-40.2c24-9.7,52.4-14.5,85.1-14.5c55.8,0,102.8,13.5,141,40.5v7.5l-15.1,18.4
		c-36.1-26.4-78-39.6-125.9-39.6c-26,0-48.6,3.4-67.7,10.3c-19.1,6.9-33.8,16.8-44.1,29.9c-10.3,13.1-15.4,28.6-15.4,46.4
		c0,17.9,5.1,33.3,15.4,46.4c10.3,13.1,25,23.1,44.1,29.9c19.1,6.9,41.6,10.3,67.7,10.3c23.9,0,45.9-3.3,65.9-10
		c20-6.6,39.9-16.7,59.6-30.2l15.4,18.4v7.5c-18.9,13.3-39.7,23.5-62.5,30.5c-22.8,7.1-48.9,10.6-78.5,10.6
		C2999.6,1711.1,2971.2,1706.2,2947.2,1696.6"/>
</g>
<g>
	<path d="M674.5,1871H548.6v36.7h104.8v14.9H548.6v54.7h-17.3v-121.1H669L674.5,1871z"/>
	<path d="M753.9,1971.7c-13.1-5.3-23.1-12.7-29.8-22.2c-6.7-9.5-10-20.4-10-32.8c0-12.3,3.3-23.3,10-32.8
		c6.7-9.5,16.6-16.9,29.8-22.2c13.1-5.3,29.1-8,47.7-8s34.6,2.7,47.7,8c13.1,5.3,23.1,12.7,29.8,22.2c6.7,9.5,10,20.4,10,32.8
		c0,12.3-3.3,23.3-10,32.8c-6.7,9.5-16.6,16.9-29.8,22.2c-13.1,5.3-29.1,8-47.7,8S767,1977,753.9,1971.7z M853.5,1952.1
		c12.1-8.4,18.1-20.2,18.1-35.5c0-15.2-6-27-18.1-35.5c-12.1-8.4-29.3-12.6-51.8-12.6c-22.5,0-39.8,4.2-51.8,12.6
		c-12.1,8.4-18.1,20.2-18.1,35.5c0,15.2,6,27,18.1,35.5c12.1,8.4,29.3,12.6,51.8,12.6C824.1,1964.8,841.4,1960.6,853.5,1952.1z"/>
	<path d="M943.7,1977.2v-121.1h103.5c16.8,0,29.3,2.8,37.4,8.3c8.1,5.5,12.1,13.8,12.1,24.7c0,11-4,19.2-12.1,24.7
		c-8.1,5.5-20.5,8.3-37.4,8.3h-7.6v4.2l12.8,2.1l41.7,44.6v4.2h-17.8l-49.8-55H961v55H943.7z M1049.7,1907.3
		c10.1,0,17.6-1.4,22.4-4.2c4.8-2.8,7.2-7.5,7.2-13.9c0-6.5-2.4-11.1-7.2-13.9c-4.8-2.8-12.3-4.2-22.4-4.2H961v36.3H1049.7z"/>
	<path d="M1170.5,1977.2h-17.3v-121.1h23.9l68.9,104.3h4.2l68.9-104.3h23.9v121.1h-17.3V1881h-4.2l-63.7,96.2h-19.4l-63.7-96.2h-4.2
		V1977.2z"/>
	<path d="M1422.2,1963.3c-13.1-10.9-19.7-27.3-19.7-49.2v-58h17.3v60.2c0,16.1,5.3,28.3,16,36.3c10.7,8.1,25.3,12.1,43.9,12.1
		c18.6,0,33.2-4,43.9-12.1c10.7-8.1,16-20.2,16-36.3v-60.2h17.3v58c0,21.9-6.6,38.3-19.7,49.2c-13.1,10.9-32.3,16.3-57.4,16.3
		C1454.5,1979.6,1435.3,1974.2,1422.2,1963.3z"/>
	<path d="M1633.8,1856.1v106.2h120.1l-5.9,14.9h-131.5v-121.1H1633.8z"/>
	<path d="M1874.4,1856.1h22.1l77.2,116.9v4.2h-18l-19.7-30.8h-101l-19.7,30.8h-18v-4.2L1874.4,1856.1z M1883.4,1870.7l-38.9,60.9h82
		l-38.9-60.9H1883.4z"/>
	<path d="M2177,1977.2h-16.6v-103.1h-3.5l-49.7,28l-6.6-9.5v-3.5l59.7-33h16.6V1977.2z"/>
	<path d="M2495.5,1856.1l5.5,14.9h-72v106.2h-17.3V1871h-72l5.5-14.9H2495.5z"/>
	<path d="M2570.4,1922.6v39.8h130.4l-5.5,14.9h-142.2v-121.1h140.5l5.5,14.9h-128.7v36.7h104.5v14.9H2570.4z"/>
	<path d="M2822.1,1856.1h22.1l77.2,116.9v4.2h-18l-19.7-30.8h-101l-19.7,30.8h-18v-4.2L2822.1,1856.1z M2831.1,1870.7l-38.9,60.9h82
		l-38.9-60.9H2831.1z"/>
	<path d="M2987,1977.2h-17.3v-121.1h23.9l68.9,104.3h4.2l68.9-104.3h23.9v121.1H3142V1881h-4.2l-63.7,96.2h-19.4l-63.7-96.2h-4.2
		V1977.2z"/>
</g>
</svg>
