<?xml version="1.0" encoding="UTF-8"?>
<svg version="1.1" xmlns="http://www.w3.org/2000/svg" width="512" height="512">
<path d="M0 0 C1.47243164 0.28206299 1.47243164 0.28206299 2.97460938 0.56982422 C25.36231958 5.04238489 47.01823225 12.93062827 67 24 C67.67788574 24.37060547 68.35577148 24.74121094 69.05419922 25.12304688 C80.07390374 31.19765583 90.15981038 38.17031263 100 46 C100.55075195 46.4336084 101.10150391 46.8672168 101.66894531 47.31396484 C116.25797538 58.8856571 129.81020558 72.28970555 140.78955078 87.34521484 C141.99447093 88.99244131 143.22699182 90.61571141 144.46484375 92.23828125 C182.53336627 142.89858402 188.15869154 201.05457628 188.16725707 262.13928866 C188.1679742 265.01798678 188.17012066 267.89668031 188.17275429 270.77537727 C188.18195679 280.84691794 188.1860948 290.9184455 188.18530273 300.98999023 C188.18470032 310.33665748 188.1952972 319.68326733 188.2110464 329.02992004 C188.2241542 337.10010147 188.22948541 345.17026418 188.22884732 353.24045616 C188.2285937 358.04110218 188.23137109 362.8416968 188.24202538 367.64233208 C188.25176364 372.1511914 188.25174663 376.65995068 188.24450874 381.16881371 C188.24347065 382.81301776 188.24577913 384.45722825 188.2518692 386.10142136 C188.3192879 405.5780072 186.29881431 422.55300721 172.0546875 436.96875 C164.09766204 444.33289906 156.51805931 447.22375207 145.75863647 447.1769104 C141.23011674 446.886498 137.1368675 445.60350973 132.83203125 444.23046875 C131.84221252 443.92732254 130.8523938 443.62417633 129.83258057 443.31184387 C126.48826466 442.28376633 123.15060306 441.23555975 119.8125 440.1875 C117.36878305 439.43172962 114.92467729 438.67721549 112.48022461 437.92382812 C107.0170697 436.23775975 101.55737533 434.5408292 96.09960938 432.83740234 C87.21234966 430.06372663 78.31981036 427.30722342 69.42656517 424.55280876 C54.71692249 419.99660333 40.01024234 415.43091871 25.30530739 410.85954475 C3.25346045 404.00454078 -18.80807489 397.18129407 -40.875 390.375 C-42.54510603 389.85982601 -44.21521101 389.3446486 -45.88531494 388.82946777 C-53.39330566 386.51352611 -60.90141689 384.19797549 -68.40963364 381.88276672 C-78.63628664 378.72928045 -88.8624567 375.57423155 -99.08831787 372.41817856 C-101.68134762 371.61788073 -104.27438937 370.81762175 -106.86743164 370.0173645 C-114.54033937 367.64929909 -122.21313226 365.2808632 -129.88551712 362.9111042 C-134.03951226 361.62807019 -138.19357029 360.34523993 -142.34765625 359.0625 C-143.56974792 358.68511499 -143.56974792 358.68511499 -144.81652832 358.30010605 C-155.50010602 355.00138991 -166.18654805 351.71214498 -176.87590027 348.43218994 C-182.42030944 346.73090283 -187.96383434 345.02674296 -193.5071497 343.3218956 C-197.9096599 341.96820552 -202.31333818 340.61841221 -206.71800327 339.2717514 C-209.41751129 338.44536678 -212.11582907 337.61514772 -214.81384468 336.78390503 C-216.61728186 336.22951387 -218.42212584 335.6797052 -220.22703552 335.13012695 C-239.20622859 329.26938113 -257.17432901 322.72748401 -268.74609375 305.62890625 C-273.47587824 295.71256681 -273.44298646 285.9381829 -273.3984375 275.18359375 C-273.40046509 273.44173562 -273.40338219 271.69987833 -273.40713501 269.95802307 C-273.41154374 266.30925403 -273.4051861 262.66070607 -273.39111328 259.01196289 C-273.37421078 254.41307302 -273.38403187 249.81471105 -273.40143681 245.21584034 C-273.54809605 199.56882005 -268.35824827 152.91545635 -243.30566406 113.32226562 C-241.72011366 111.09790796 -241.72011366 111.09790796 -242.47265625 108.73046875 C-244.65463685 104.82969014 -247.014959 101.06772444 -249.4375 97.3125 C-250.51354439 95.61751976 -251.58905153 93.92219836 -252.6640625 92.2265625 C-254.31768617 89.62828812 -255.97737672 87.0348225 -257.65527344 84.45214844 C-259.22231318 82.03964488 -260.76856861 79.61483438 -262.3125 77.1875 C-262.798396 76.45378174 -263.28429199 75.72006348 -263.78491211 74.96411133 C-265.75743831 71.83293897 -266.92509019 69.56217362 -267.41796875 65.86328125 C-263.52583331 58.00395542 -251.27738752 54.68062834 -243.625 51.4375 C-242.41875977 50.92501709 -241.21251953 50.41253418 -239.96972656 49.88452148 C-188.57936884 28.28619459 -134.21095255 11.9506381 -79.63916016 0.75 C-77.47480935 0.30394568 -75.31221829 -0.15103115 -73.15380859 -0.625 C-49.87665362 -5.72787016 -23.27313222 -4.47717494 0 0 Z " fill="#FEAD05" transform="translate(299,35)"/>
<path d="M0 0 C1.47243164 0.28206299 1.47243164 0.28206299 2.97460938 0.56982422 C25.36231958 5.04238489 47.01823225 12.93062827 67 24 C67.67788574 24.37060547 68.35577148 24.74121094 69.05419922 25.12304688 C80.07390374 31.19765583 90.15981038 38.17031263 100 46 C100.55075195 46.4336084 101.10150391 46.8672168 101.66894531 47.31396484 C116.25797538 58.8856571 129.81020558 72.28970555 140.78955078 87.34521484 C141.99447093 88.99244131 143.22699182 90.61571141 144.46484375 92.23828125 C182.53336627 142.89858402 188.15869154 201.05457628 188.16725707 262.13928866 C188.1679742 265.01798678 188.17012066 267.89668031 188.17275429 270.77537727 C188.18195679 280.84691794 188.1860948 290.9184455 188.18530273 300.98999023 C188.18470032 310.33665748 188.1952972 319.68326733 188.2110464 329.02992004 C188.2241542 337.10010147 188.22948541 345.17026418 188.22884732 353.24045616 C188.2285937 358.04110218 188.23137109 362.8416968 188.24202538 367.64233208 C188.25176364 372.1511914 188.25174663 376.65995068 188.24450874 381.16881371 C188.24347065 382.81301776 188.24577913 384.45722825 188.2518692 386.10142136 C188.3192879 405.5780072 186.29881431 422.55300721 172.0546875 436.96875 C164.09766204 444.33289906 156.51805931 447.22375207 145.75863647 447.1769104 C141.23011674 446.886498 137.1368675 445.60350973 132.83203125 444.23046875 C131.84221252 443.92732254 130.8523938 443.62417633 129.83258057 443.31184387 C126.48826466 442.28376633 123.15060306 441.23555975 119.8125 440.1875 C117.36878305 439.43172962 114.92467729 438.67721549 112.48022461 437.92382812 C107.0170697 436.23775975 101.55737533 434.5408292 96.09960938 432.83740234 C87.21234966 430.06372663 78.31981036 427.30722342 69.42656517 424.55280876 C54.71692249 419.99660333 40.01024234 415.43091871 25.30530739 410.85954475 C3.25346045 404.00454078 -18.80807489 397.18129407 -40.875 390.375 C-42.54510603 389.85982601 -44.21521101 389.3446486 -45.88531494 388.82946777 C-53.39330566 386.51352611 -60.90141689 384.19797549 -68.40963364 381.88276672 C-78.63628664 378.72928045 -88.8624567 375.57423155 -99.08831787 372.41817856 C-101.68134762 371.61788073 -104.27438937 370.81762175 -106.86743164 370.0173645 C-114.54033937 367.64929909 -122.21313226 365.2808632 -129.88551712 362.9111042 C-134.03951226 361.62807019 -138.19357029 360.34523993 -142.34765625 359.0625 C-143.56974792 358.68511499 -143.56974792 358.68511499 -144.81652832 358.30010605 C-155.50010602 355.00138991 -166.18654805 351.71214498 -176.87590027 348.43218994 C-182.42030944 346.73090283 -187.96383434 345.02674296 -193.5071497 343.3218956 C-197.9096599 341.96820552 -202.31333818 340.61841221 -206.71800327 339.2717514 C-209.41751129 338.44536678 -212.11582907 337.61514772 -214.81384468 336.78390503 C-216.61728186 336.22951387 -218.42212584 335.6797052 -220.22703552 335.13012695 C-239.20622859 329.26938113 -257.17432901 322.72748401 -268.74609375 305.62890625 C-273.47587824 295.71256681 -273.44298646 285.9381829 -273.3984375 275.18359375 C-273.40046509 273.44173562 -273.40338219 271.69987833 -273.40713501 269.95802307 C-273.41154374 266.30925403 -273.4051861 262.66070607 -273.39111328 259.01196289 C-273.37421078 254.41307302 -273.38403187 249.81471105 -273.40143681 245.21584034 C-273.54809605 199.56882005 -268.35824827 152.91545635 -243.30566406 113.32226562 C-241.72011366 111.09790796 -241.72011366 111.09790796 -242.47265625 108.73046875 C-244.65463685 104.82969014 -247.014959 101.06772444 -249.4375 97.3125 C-250.51354439 95.61751976 -251.58905153 93.92219836 -252.6640625 92.2265625 C-254.31768617 89.62828812 -255.97737672 87.0348225 -257.65527344 84.45214844 C-259.22231318 82.03964488 -260.76856861 79.61483438 -262.3125 77.1875 C-262.798396 76.45378174 -263.28429199 75.72006348 -263.78491211 74.96411133 C-265.75743831 71.83293897 -266.92509019 69.56217362 -267.41796875 65.86328125 C-263.52583331 58.00395542 -251.27738752 54.68062834 -243.625 51.4375 C-242.41875977 50.92501709 -241.21251953 50.41253418 -239.96972656 49.88452148 C-188.57936884 28.28619459 -134.21095255 11.9506381 -79.63916016 0.75 C-77.47480935 0.30394568 -75.31221829 -0.15103115 -73.15380859 -0.625 C-49.87665362 -5.72787016 -23.27313222 -4.47717494 0 0 Z M-121 21 C-122.36962995 21.37169015 -123.73942875 21.74275858 -125.109375 22.11328125 C-168.9581811 34.03829524 -213.02856055 48.19871101 -254 68 C-252.74754337 71.30107651 -251.34352303 74.30753389 -249.53125 77.3359375 C-249.04712646 78.14498535 -248.56300293 78.9540332 -248.06420898 79.78759766 C-247.54802002 80.64144043 -247.03183105 81.4952832 -246.5 82.375 C-245.96898682 83.26622559 -245.43797363 84.15745117 -244.89086914 85.07568359 C-242.42824363 89.16940827 -239.93979562 93.17903806 -237.08984375 97.015625 C-231.10585705 105.09923723 -228.83115372 111.51820473 -227.61328125 121.48828125 C-226.69637372 128.92014142 -224.35998962 135.9186188 -222 143 C-221.69852051 143.91104492 -221.39704102 144.82208984 -221.08642578 145.76074219 C-202.31048947 201.78257289 -169.82134868 252.18568868 -133 298 C-132.25492187 298.928125 -131.50984375 299.85625 -130.7421875 300.8125 C-122.5192512 310.95117415 -114.02124741 320.87288209 -105.23046875 330.5234375 C-103.3580658 332.60242781 -101.51555722 334.70141623 -99.6796875 336.8125 C-94.90197442 342.28166549 -89.9464744 347.57067896 -84.9296875 352.8203125 C-82.43882765 355.4320292 -80.06135352 358.08951405 -77.7578125 360.8671875 C-68.8931914 371.18805131 -59.19936572 374.54233064 -46.28222656 378.08349609 C-41.8074395 379.3330015 -37.38736293 380.74009218 -32.95751953 382.13916016 C-24.64014326 384.75563002 -16.29457423 387.23497247 -7.875 389.5 C0.18185323 391.66858053 8.05831983 394.30690469 15.95947266 396.98168945 C24.84542353 399.98025535 33.80017358 402.68791584 42.79345703 405.34277344 C46.6359531 406.48727437 50.45970341 407.69079474 54.28442383 408.89306641 C60.77278175 410.93192194 67.26755075 412.94998503 73.76321411 414.96542358 C75.62858025 415.54421811 77.49385702 416.12330065 79.35913086 416.70239258 C82.90568488 417.80289757 86.45283339 418.90147143 90 420 C91.13171631 420.35191406 92.26343262 420.70382812 93.42944336 421.06640625 C99.9909106 423.09938781 106.57031684 425.03253556 113.1875 426.875 C119.29855058 428.5799206 125.30701833 430.41921202 131.27905273 432.56152344 C140.20469828 435.7412787 148.94642491 438.3865335 158.1875 434.625 C167.57949097 429.04850536 173.4734492 419.42554388 176.54759216 409.17388916 C177.07204406 406.65381722 177.11977456 404.34711864 177.11352539 401.77246094 C177.11341209 400.21129547 177.11341209 400.21129547 177.11329651 398.61859131 C177.10813522 397.50179993 177.10297394 396.38500854 177.09765625 395.234375 C177.0962413 394.08584045 177.09482635 392.93730591 177.09336853 391.75396729 C177.08777143 388.08595169 177.07521944 384.41799715 177.0625 380.75 C177.05748463 378.26302171 177.05292178 375.77604247 177.04882812 373.2890625 C177.03780295 367.1926875 177.02106769 361.09634811 177 355 C176.18885742 354.75991211 175.37771484 354.51982422 174.54199219 354.27246094 C152.20394495 347.63782997 130.04277834 340.55870671 108 333 C106.87754883 332.61521484 105.75509766 332.23042969 104.59863281 331.83398438 C-66.31105852 272.75809107 -66.31105852 272.75809107 -99.5859375 214.9453125 C-105.99502053 201.59600697 -111.34946976 185.85315023 -106.3125 171.25 C-105.57918346 169.48395049 -104.80997781 167.73222977 -104 166 C-103.66097656 165.2678125 -103.32195312 164.535625 -102.97265625 163.78125 C-98.69396446 155.8633862 -90.37021624 150.79007208 -82 148 C-58.51281108 142.64484349 -36.34029852 147.23314121 -13.83447266 154.2890625 C45.47764423 172.83334651 109.06936461 179.48232582 171 179 C170.57216277 171.92893189 169.25993649 165.68160789 166.9375 159 C166.62731934 158.09282227 166.31713867 157.18564453 165.99755859 156.25097656 C161.72648749 144.03268529 156.369684 132.39829899 150.375 120.9375 C149.85317139 119.93831543 149.85317139 119.93831543 149.32080078 118.91894531 C148.64218842 117.65283498 147.94490727 116.39648526 147.226017 115.15280247 C146.39008621 113.68496486 145.59600903 112.19268736 144.84008408 110.68208981 C142.2201179 105.91185977 142.2201179 105.91185977 137.71976471 103.17505074 C134.89281763 102.86452886 132.18792264 102.84345672 129.34472656 102.91821289 C128.2839238 102.91035767 127.22312103 102.90250244 126.13017273 102.89440918 C122.6322919 102.87862199 119.13817845 102.92573536 115.640625 102.97265625 C113.21018013 102.97208125 110.77973285 102.96725645 108.3493042 102.95835876 C101.95777183 102.94506523 95.56763136 102.98376733 89.17633057 103.03503418 C80.15364656 103.09815047 71.13071261 103.09213703 62.10784912 103.09165955 C57.30208838 103.09143689 52.49708416 103.11186945 47.69146729 103.14820862 C45.50687715 103.15760242 43.32228651 103.16688104 41.13769531 103.17602539 C40.13508163 103.18800461 39.13246796 103.19998383 38.09947205 103.21232605 C36.7326403 103.21509048 36.7326403 103.21509048 35.3381958 103.21791077 C34.54402882 103.22406938 33.74986183 103.23022799 32.93162918 103.23657322 C31 103 31 103 29 101 C29 99.02 29 97.04 29 95 C79.985 94.505 79.985 94.505 132 94 C127.43137794 87.82861707 127.43137794 87.82861707 122.5625 82 C120.78111899 80.00375943 119.00760246 78.009002 117.28125 75.96484375 C113.80468731 71.86408003 110.17897158 68.23707311 106.07421875 64.765625 C103.9755259 62.97916706 101.96251274 61.11924253 99.9375 59.25 C84.77508317 45.80408318 67.31015289 35.52340144 49 27 C47.92588867 26.49919922 47.92588867 26.49919922 46.83007812 25.98828125 C-8.6427829 0.52052975 -63.59151092 5.05998335 -121 21 Z " fill="#030200" transform="translate(299,35)"/>
<path d="M0 0 C1.92561768 0.43131226 1.92561768 0.43131226 3.89013672 0.87133789 C8.83847968 1.97068134 13.79619128 3.02106626 18.7578125 4.05859375 C20.11699295 4.34332298 20.11699295 4.34332298 21.50363159 4.63380432 C23.4112172 5.03324637 25.31886173 5.43240713 27.2265625 5.83129883 C30.09654467 6.43154864 32.96625245 7.03309719 35.8359375 7.63476562 C39.54493178 8.41203731 43.25494924 9.18413377 46.96582031 9.95239258 C49.94819748 10.56992638 52.92546507 11.20171432 55.90136719 11.8503418 C67.17681839 14.25101737 78.55577838 15.61299526 90 16.9375 C91.09219849 17.06562073 92.18439697 17.19374146 93.30969238 17.32574463 C122.78184179 20.74227549 152.38456703 22.38302728 182 24 C182.32076956 25.43567733 182.63094808 26.87371982 182.9375 28.3125 C183.11152344 29.11300781 183.28554688 29.91351563 183.46484375 30.73828125 C184.98209512 39.98576224 185.14123543 49.19707253 185.11352539 58.54956055 C185.11367142 59.85814529 185.11381744 61.16673004 185.1139679 62.51496887 C185.11425228 66.06793728 185.10841409 69.62087123 185.10139394 73.1738317 C185.09510015 76.90005041 185.09455187 80.62627009 185.09336853 84.35249329 C185.09027286 91.39282879 185.08208347 98.43314857 185.07201904 105.47347718 C185.06080284 113.49534289 185.05533363 121.51720938 185.05032361 129.53908098 C185.0398992 146.02606315 185.02233425 162.51302956 185 179 C175.98746505 176.81139949 167.05166908 174.5531174 158.23046875 171.671875 C156.80801598 171.21300903 156.80801598 171.21300903 155.35682678 170.74487305 C152.297868 169.75412119 149.24233652 168.75338555 146.1875 167.75 C144.59669617 167.22944031 144.59669617 167.22944031 142.97375488 166.69836426 C95.97201453 151.28263571 50.32156348 133.00014795 5.83203125 111.37646484 C4.07020695 110.52015748 2.30736646 109.6659337 0.54296875 108.81494141 C-2.82082418 107.19121912 -6.15681932 105.54212433 -9.453125 103.78515625 C-12.00495257 102.50081131 -14.19284947 101.56548451 -16.859375 100.68359375 C-21.1824659 98.90704459 -23.24266898 97.81607248 -26 94 C-27.84508069 85.15827349 -26.82075585 75.91645669 -26 67 C-25.9376416 66.22124512 -25.8752832 65.44249023 -25.81103516 64.64013672 C-25.47473719 60.68838907 -24.83346041 56.87511192 -24 53 C-23.75507813 51.76121094 -23.51015625 50.52242187 -23.2578125 49.24609375 C-19.50031124 31.60085041 -11.10496189 14.22275876 0 0 Z " fill="#4C4C4C" transform="translate(291,201)"/>
<path d="M0 0 C2 1 2 1 2.96484375 3.84375 C3.28582031 5.0503125 3.60679688 6.256875 3.9375 7.5 C5.43508958 13.07806644 7.12571464 18.53695795 9 24 C9.40206665 25.18263428 9.40206665 25.18263428 9.81225586 26.38916016 C28.93728385 82.09903342 61.28040956 132.31229957 98 178 C98.74507813 178.928125 99.49015625 179.85625 100.2578125 180.8125 C108.55558389 191.04344393 117.14716437 201.03122843 126 210.78515625 C127.79603529 212.77412502 129.55953303 214.78563194 131.3125 216.8125 C135.04938212 221.11211261 138.93266578 225.27465756 142.82543945 229.43286133 C145.38992017 232.18733444 147.77392607 234.96829932 150 238 C141.84818964 236.60818473 134.08545729 234.30828161 126.20703125 231.82421875 C124.88974939 231.41266593 123.57233836 231.00152637 122.25480652 230.59077454 C119.50474971 229.73230334 116.75574767 228.87056588 114.00756836 228.00610352 C110.53112472 226.9125819 107.05296636 225.82465198 103.57408619 224.73890972 C100.20112444 223.68596069 96.82904334 222.63020428 93.45703125 221.57421875 C92.23152054 221.19069748 91.00600983 220.80717621 89.74336243 220.41203308 C82.23488122 218.05073874 74.76073105 215.6036841 67.30285645 213.0881958 C62.80087777 211.60492386 58.25773033 210.31561294 53.6875 209.0625 C46.22668787 206.97578287 38.8709077 204.68880855 31.54125977 202.18212891 C26.44060205 200.44759819 21.30684995 198.90941891 16.125 197.4375 C2.43297226 193.47015452 -13.23421792 187.94297013 -21 175 C-23.52607265 169.17373485 -24.43784661 164.55300826 -24.38818359 158.23925781 C-24.39344055 157.40214767 -24.39869751 156.56503754 -24.40411377 155.70256042 C-24.41724359 152.95255481 -24.40859098 150.20313591 -24.3984375 147.453125 C-24.40046252 145.51706839 -24.40337751 143.58101252 -24.40713501 141.6449585 C-24.41155085 137.58663675 -24.40515958 133.52851344 -24.39111328 129.47021484 C-24.37415946 124.32684819 -24.38377895 119.18395608 -24.40183067 114.04060745 C-24.41280685 110.03711547 -24.40915744 106.03373098 -24.4014473 102.03023529 C-24.39947601 100.13766165 -24.40179357 98.24507755 -24.40888596 96.35251617 C-24.4583 79.43935551 -22.75745934 62.92810283 -18.3125 46.5625 C-18.05976318 45.61640869 -17.80702637 44.67031738 -17.54663086 43.69555664 C-13.3352942 28.46411269 -7.48205751 13.91195068 0 0 Z " fill="#FD9C04" transform="translate(61,161)"/>
<path d="M0 0 C1.10569336 0.00161133 2.21138672 0.00322266 3.35058594 0.00488281 C13.05408367 0.1482012 21.90477387 1.64559458 31.1875 4.375 C31.85362305 4.56707031 32.51974609 4.75914062 33.20605469 4.95703125 C36.88963476 6.02875074 40.54687065 7.16574502 44.1875 8.375 C43.52218668 9.58407902 42.85509533 10.7921795 42.1875 12 C41.73117187 12.82886719 41.27484375 13.65773437 40.8046875 14.51171875 C39.67504084 16.51179363 38.51054209 18.49240543 37.3203125 20.45703125 C24.66330838 41.60949533 19.66269853 63.99204443 18.625 88.4375 C18.56022461 89.87899414 18.56022461 89.87899414 18.49414062 91.34960938 C18.38928868 93.69130277 18.28712212 96.03307929 18.1875 98.375 C13.86595553 96.88342215 10.35791822 94.60292276 6.6875 91.9375 C5.77436035 91.27705688 5.77436035 91.27705688 4.84277344 90.60327148 C-14.52203631 76.41492057 -30.67575988 60.35002218 -36.5625 36.3125 C-36.645 35.343125 -36.7275 34.37375 -36.8125 33.375 C-36.90724609 32.27091797 -36.90724609 32.27091797 -37.00390625 31.14453125 C-37.36107473 23.71312249 -35.84078411 17.29527869 -31.234375 11.33203125 C-22.35317605 1.9507648 -12.46542848 -0.01889274 0 0 Z " fill="#444444" transform="translate(236.8125,189.625)"/>
<path d="M0 0 C9.01647774 5.54621827 13.98765938 12.96297815 17.3125 22.9375 C18.49160797 33.70107137 15.86664121 42.86008349 9.125 51.375 C2.8290863 58.01684302 -5.65291576 61.06944914 -14.625 61.375 C-23.53189637 61.43427154 -30.21856604 58.72398592 -37.06640625 52.921875 C-43.86367486 45.96187252 -46.78246124 38.14440086 -47.3125 28.5 C-47.01147387 19.77024231 -43.27177799 12.41631997 -37.4375 6 C-27.29533668 -2.9373707 -12.61839526 -5.81644253 0 0 Z " fill="#060501" transform="translate(156.6875,109.0625)"/>
<path d="M0 0 C6.52949109 3.68204385 10.27272328 8.04177629 13.34765625 14.77734375 C14.998001 22.27891079 14.38831132 27.73550979 10.66015625 34.53515625 C6.96189801 39.92252282 2.28906861 43.90183965 -3.96484375 45.90234375 C-11.30929809 46.77354799 -17.96657644 46.51738994 -23.96484375 41.90234375 C-29.95901454 36.33114872 -33.95657706 30.44366295 -34.46484375 22.08984375 C-34.22175413 15.43526531 -31.82867494 9.64708493 -26.9921875 5.01171875 C-25.03306377 3.50301038 -23.09514638 2.1559612 -20.96484375 0.90234375 C-20.36027344 0.53109375 -19.75570312 0.15984375 -19.1328125 -0.22265625 C-13.30094139 -2.57642045 -5.81326171 -2.15220888 0 0 Z " fill="#070501" transform="translate(215.96484375,79.09765625)"/>
<path d="M0 0 C5.22979676 4.88191671 8.00023112 9.4893815 8.4375 16.6875 C8.2789183 22.59907324 6.54378328 27.266809 3 32 C-3.08564978 37.2543351 -8.45820416 39.31922407 -16.4375 39.21484375 C-22.53918139 38.70326985 -28.01164025 35.60902668 -32 31 C-35.8207038 25.02645382 -37.08821138 19.00536077 -36 12 C-34.07652155 5.33995586 -29.63369376 0.84791914 -24 -3 C-15.86135348 -6.55140939 -7.18497665 -5.03704679 0 0 Z " fill="#F5E7AD" transform="translate(156,121)"/>
<path d="M0 0 C4.71362305 1.9901964 7.72172827 5.44345654 10 10 C10.12976063 14.63430819 9.66582449 18.72394994 6.75 22.4375 C3.4290899 25.53198441 1.47101195 26.926649 -3.10546875 27.0625 C-8.99701382 26.74670529 -11.94168797 25.25627847 -16 21 C-18.54641337 17.52761813 -18.43529792 14.20787993 -18 10 C-13.74432758 1.96150764 -8.98830191 -1.34251504 0 0 Z " fill="#F4E5AC" transform="translate(210,88)"/>
</svg>
