<?xml version="1.0" encoding="UTF-8" standalone="no"?>
<!-- Created with Inkscape (http://www.inkscape.org/) -->

<svg
   xmlns:dc="http://purl.org/dc/elements/1.1/"
   xmlns:cc="http://creativecommons.org/ns#"
   xmlns:rdf="http://www.w3.org/1999/02/22-rdf-syntax-ns#"
   xmlns:svg="http://www.w3.org/2000/svg"
   xmlns="http://www.w3.org/2000/svg"
   xmlns:sodipodi="http://sodipodi.sourceforge.net/DTD/sodipodi-0.dtd"
   xmlns:inkscape="http://www.inkscape.org/namespaces/inkscape"
   width="54.400002"
   height="26.765341"
   viewBox="0 0 14.393334 7.0816628"
   version="1.1"
   id="svg15098"
   inkscape:version="0.92.0 r15299"
   sodipodi:docname="nascar cup series.svg">
  <defs
     id="defs15092" />
  <sodipodi:namedview
     id="base"
     pagecolor="#ffffff"
     bordercolor="#666666"
     borderopacity="1.0"
     inkscape:pageopacity="0.0"
     inkscape:pageshadow="2"
     inkscape:zoom="16.797753"
     inkscape:cx="26.699999"
     inkscape:cy="12.882666"
     inkscape:document-units="mm"
     inkscape:current-layer="layer1"
     showgrid="false"
     fit-margin-top="0"
     fit-margin-left="0"
     fit-margin-right="0"
     fit-margin-bottom="0"
     units="px"
     inkscape:window-width="1280"
     inkscape:window-height="744"
     inkscape:window-x="-4"
     inkscape:window-y="-4"
     inkscape:window-maximized="1" />
  <metadata
     id="metadata15095">
    <rdf:RDF>
      <cc:Work
         rdf:about="">
        <dc:format>image/svg+xml</dc:format>
        <dc:type
           rdf:resource="http://purl.org/dc/dcmitype/StillImage" />
        <dc:title></dc:title>
      </cc:Work>
    </rdf:RDF>
  </metadata>
  <g
     inkscape:label="Layer 1"
     inkscape:groupmode="layer"
     id="layer1"
     transform="translate(-56.435625,-192.78521)">
    <g
       id="g15236"
       transform="translate(0.13229187,-0.13228803)">
      <path
         d="M 69.930433,199.86687 H 57.069567 c -0.349603,0 -0.633942,-0.28434 -0.633942,-0.63394 v -5.5492 c 0,-0.34925 0.284339,-0.63394 0.633942,-0.63394 h 12.860866 c 0.349603,0 0.633942,0.28469 0.633942,0.63394 v 5.5492 c 0,0.3496 -0.284339,0.63394 -0.633942,0.63394"
         style="fill:#0a1014;fill-opacity:1;fill-rule:nonzero;stroke:none;stroke-width:0.35277778"
         id="path10402"
         inkscape:connector-curvature="0" />
      <path
         d="M 70.069789,195.92461 H 56.930581 v -2.23979 c 0,-0.0758 0.06174,-0.13793 0.137583,-0.13793 h 12.864042 c 0.07585,0 0.137583,0.0621 0.137583,0.13793 z m 0,3.31364 c 0,0.0762 -0.06174,0.13794 -0.137583,0.13794 H 57.068164 c -0.07585,0 -0.137583,-0.0617 -0.137583,-0.13794 v -0.34995 h 13.139208 z m -13.139208,-0.83643 h 13.139208 v 0.26882 H 56.930581 Z m 0,-2.25955 h 13.139208 v 0.26882 H 56.930581 Z m 13.001625,-2.82469 H 57.068164 c -0.202494,0 -0.366889,0.16475 -0.366889,0.36724 v 5.55343 c 0,0.2025 0.164395,0.36724 0.366889,0.36724 h 12.864042 c 0.202141,0 0.366889,-0.16474 0.366889,-0.36724 v -5.55343 c 0,-0.20249 -0.164748,-0.36724 -0.366889,-0.36724"
         style="fill:#ffffff;fill-opacity:1;fill-rule:nonzero;stroke:none;stroke-width:0.35277778"
         id="path10406"
         inkscape:connector-curvature="0" />
      <path
         d="m 59.523498,196.93071 h -0.374297 l -0.265642,0.95144 h 0.376767 l 0.06526,-0.23424 h 0.297039 l -0.08714,0.31397 -0.280105,0.21978 h -0.533753 l -0.159103,-0.21978 0.309034,-1.1109 0.280105,-0.21978 h 0.533753 l 0.159103,0.21978 -0.08678,0.31644 h -0.299508"
         style="fill:#0a1014;fill-opacity:1;fill-rule:nonzero;stroke:none;stroke-width:0.35277778"
         id="path10410"
         inkscape:connector-curvature="0" />
      <path
         d="m 60.670387,197.96187 -0.280106,0.21978 h -0.533752 l -0.159456,-0.21978 0.369711,-1.33068 h 0.299156 l -0.347486,1.25589 h 0.374297 l 0.347839,-1.25589 h 0.299155"
         style="fill:#0a1014;fill-opacity:1;fill-rule:nonzero;stroke:none;stroke-width:0.35277778"
         id="path10414"
         inkscape:connector-curvature="0" />
      <path
         d="m 61.454956,196.93071 -0.137583,0.48789 h 0.376766 l 0.135114,-0.48789 z m 0.51435,0.56974 -0.277636,0.21731 h -0.456495 l -0.128058,0.4639 h -0.299508 l 0.430036,-1.55046 h 0.753533 l 0.159103,0.21978"
         style="fill:#0a1014;fill-opacity:1;fill-rule:nonzero;stroke:none;stroke-width:0.35277778"
         id="path10418"
         inkscape:connector-curvature="0" />
      <path
         d="m 63.246714,196.93071 h -0.376767 l -0.08925,0.32597 h 0.454025 l 0.159455,0.21978 -0.135467,0.48542 -0.280105,0.21978 h -0.53587 l -0.156986,-0.21978 0.06526,-0.23425 h 0.299156 l -0.04339,0.15452 h 0.374297 l 0.09172,-0.32597 H 62.6163 l -0.156633,-0.21978 0.135114,-0.48542 0.280105,-0.21978 h 0.533753 l 0.156986,0.21978 -0.06526,0.23425 h -0.297039"
         style="fill:#0a1014;fill-opacity:1;fill-rule:nonzero;stroke:none;stroke-width:0.35277778"
         id="path10422"
         inkscape:connector-curvature="0" />
      <path
         d="m 63.937092,197.25702 h 0.509411 l -0.08184,0.29951 h -0.509764 l -0.09172,0.32596 h 0.541161 l -0.08467,0.29951 h -0.83785 l 0.429683,-1.55045 h 0.837847 l -0.08184,0.2995 h -0.538692"
         style="fill:#0a1014;fill-opacity:1;fill-rule:nonzero;stroke:none;stroke-width:0.35277778"
         id="path10426"
         inkscape:connector-curvature="0" />
      <path
         d="m 65.301283,197.42106 0.135114,-0.49036 H 65.05963 l -0.135114,0.49036 z m -0.229306,0.29951 h -0.229658 l -0.128058,0.46108 h -0.299156 l 0.429684,-1.54764 h 0.753533 l 0.159455,0.21731 -0.181327,0.64947 -0.207434,0.16404 0.06244,0.51682 h -0.301625"
         style="fill:#0a1014;fill-opacity:1;fill-rule:nonzero;stroke:none;stroke-width:0.35277778"
         id="path10430"
         inkscape:connector-curvature="0" />
      <path
         d="m 65.875614,198.18166 h -0.297039 l 0.427567,-1.55046 h 0.299508"
         style="fill:#0a1014;fill-opacity:1;fill-rule:nonzero;stroke:none;stroke-width:0.35277778"
         id="path10434"
         inkscape:connector-curvature="0" />
      <path
         d="m 66.641133,197.25702 h 0.509411 l -0.08184,0.29951 H 66.55894 l -0.09172,0.32596 h 0.541161 l -0.08467,0.29951 h -0.837847 l 0.429683,-1.55045 h 0.837847 l -0.08184,0.2995 h -0.538692"
         style="fill:#0a1014;fill-opacity:1;fill-rule:nonzero;stroke:none;stroke-width:0.35277778"
         id="path10438"
         inkscape:connector-curvature="0" />
      <path
         d="M 68.118937,196.93071 H 67.74217 l -0.08925,0.32597 h 0.454025 l 0.159455,0.21978 -0.135467,0.48542 -0.280105,0.21978 h -0.536222 l -0.156634,-0.21978 0.06526,-0.23425 h 0.299156 l -0.04339,0.15452 h 0.374297 l 0.09172,-0.32597 H 67.48852 l -0.156633,-0.21978 0.135114,-0.48542 0.280105,-0.21978 h 0.533753 l 0.156986,0.21978 -0.06526,0.23425 h -0.297039"
         style="fill:#0a1014;fill-opacity:1;fill-rule:nonzero;stroke:none;stroke-width:0.35277778"
         id="path10442"
         inkscape:connector-curvature="0" />
      <path
         d="m 64.052106,193.93423 -0.288219,0.21978 -0.139348,0.49671 0.16122,0.2286 h 0.46743 l -0.0949,0.34325 H 63.77235 l 0.04516,-0.16333 h -0.306564 l -0.06526,0.23953 0.166158,0.22649 h 0.54222 l 0.28963,-0.22366 0.137584,-0.50095 -0.162984,-0.22648 h -0.466725 l 0.09419,-0.33902 h 0.384175 l -0.04586,0.16475 h 0.307622 l 0.06985,-0.24589 -0.160161,-0.21978"
         style="fill:#ffffff;fill-opacity:1;fill-rule:nonzero;stroke:none;stroke-width:0.35277778"
         id="path10446"
         inkscape:connector-curvature="0" />
      <path
         d="m 65.223337,193.93423 -0.289631,0.21978 -0.317852,1.14618 0.166864,0.22507 h 0.542219 l 0.289983,-0.22507 0.08961,-0.3235 h -0.306564 l -0.06809,0.24588 H 64.94429 l 0.275166,-0.98918 h 0.384175 l -0.06914,0.24941 h 0.306211 l 0.09207,-0.32879 -0.158044,-0.21978"
         style="fill:#ffffff;fill-opacity:1;fill-rule:nonzero;stroke:none;stroke-width:0.35277778"
         id="path10450"
         inkscape:connector-curvature="0" />
      <path
         d="m 67.342808,193.93423 -0.442383,1.59103 h 0.306916 l 0.131939,-0.47661 h 0.248709 l 0.05715,0.47661 h 0.299508 l -0.06526,-0.54222 0.2159,-0.17498 0.181328,-0.65405 -0.160514,-0.21978 z m 0.221897,0.29916 h 0.384175 l -0.142875,0.51435 h -0.383822"
         style="fill:#ffffff;fill-opacity:1;fill-rule:nonzero;stroke:none;stroke-width:0.35277778"
         id="path10454"
         inkscape:connector-curvature="0" />
      <path
         d="m 62.171104,193.93423 -0.248356,0.89817 -0.147813,-0.89817 h -0.303742 l -0.441678,1.59103 h 0.306564 l 0.252589,-0.9017 0.14993,0.9017 h 0.299156 l 0.440619,-1.59103"
         style="fill:#ffffff;fill-opacity:1;fill-rule:nonzero;stroke:none;stroke-width:0.35277778"
         id="path10458"
         inkscape:connector-curvature="0" />
      <path
         d="m 62.878758,193.93423 -0.28575,0.21837 -0.381706,1.37266 h 0.306212 l 0.131938,-0.47625 h 0.386292 l -0.131939,0.47625 h 0.305153 l 0.381353,-1.37125 -0.160514,-0.21978 z m -0.0035,0.29916 h 0.386292 l -0.14255,0.51399 h -0.385939"
         style="fill:#ffffff;fill-opacity:1;fill-rule:nonzero;stroke:none;stroke-width:0.35277778"
         id="path10462"
         inkscape:connector-curvature="0" />
      <path
         d="m 66.393139,193.93423 -0.287514,0.21978 -0.379942,1.37125 h 0.306212 l 0.131938,-0.47625 h 0.386292 l -0.131939,0.47625 h 0.306917 l 0.379942,-1.37266 -0.160867,-0.21837 z m -0.0035,0.29916 h 0.386292 l -0.142522,0.51399 H 66.24747"
         style="fill:#ffffff;fill-opacity:1;fill-rule:nonzero;stroke:none;stroke-width:0.35277778"
         id="path10466"
         inkscape:connector-curvature="0" />
      <path
         d="m 60.692956,193.93457 -0.442031,1.59103 h 0.611717 l 0.440267,-1.59103"
         style="fill:#1478c7;fill-opacity:1;fill-rule:nonzero;stroke:none;stroke-width:0.35277778"
         id="path10470"
         inkscape:connector-curvature="0" />
      <path
         d="m 59.815942,193.93491 -0.442383,1.59209 h 0.294922 l 0.440972,-1.59209"
         style="fill:#ee2a3d;fill-opacity:1;fill-rule:nonzero;stroke:none;stroke-width:0.35277778"
         id="path10474"
         inkscape:connector-curvature="0" />
      <path
         d="m 60.23012,193.93491 -0.442383,1.59209 h 0.294922 l 0.440972,-1.59209"
         style="fill:#ee2a3d;fill-opacity:1;fill-rule:nonzero;stroke:none;stroke-width:0.35277778"
         id="path10478"
         inkscape:connector-curvature="0" />
      <path
         d="m 59.165781,193.93491 -0.442383,1.59209 h 0.183091 l 0.440973,-1.59209"
         style="fill:#fcd43d;fill-opacity:1;fill-rule:nonzero;stroke:none;stroke-width:0.35277778"
         id="path10482"
         inkscape:connector-curvature="0" />
      <path
         d="m 59.467062,193.93491 -0.442383,1.59209 h 0.183091 l 0.440973,-1.59209"
         style="fill:#fcd43d;fill-opacity:1;fill-rule:nonzero;stroke:none;stroke-width:0.35277778"
         id="path10486"
         inkscape:connector-curvature="0" />
    </g>
  </g>
</svg>
