<?xml version="1.0" encoding="UTF-8"?>
<svg xmlns="http://www.w3.org/2000/svg" xmlns:xlink="http://www.w3.org/1999/xlink" width="550pt" height="265.92pt" viewBox="0 0 550 265.92" version="1.1">
<defs>
<clipPath id="clip1">
  <path d="M 22 220 L 195 220 L 195 265.921875 L 22 265.921875 Z M 22 220 "/>
</clipPath>
<clipPath id="clip2">
  <path d="M 167 220 L 340 220 L 340 265.921875 L 167 265.921875 Z M 167 220 "/>
</clipPath>
<clipPath id="clip3">
  <path d="M 312 220 L 485 220 L 485 265.921875 L 312 265.921875 Z M 312 220 "/>
</clipPath>
</defs>
<g id="surface1">
<path style=" stroke:none;fill-rule:nonzero;fill:rgb(0%,0%,0%);fill-opacity:1;" d="M 148.964844 104.605469 C 145.167969 106.535156 141.96875 107.132813 140.304688 107.929688 C 138.640625 108.730469 135.644531 111.722656 131.046875 111.722656 C 127.535156 111.722656 124.804688 113.949219 121.1875 116.476563 C 118.164063 118.273438 115.605469 120.144531 114.730469 121.503906 C 109.867188 129.621094 106.203125 129.820313 106.203125 134.34375 C 106.203125 138.070313 108.800781 141.195313 111 141.195313 C 112.132813 141.195313 115.128906 140.53125 117.527344 140.53125 C 119.925781 140.53125 124.121094 141.328125 125.585938 141.328125 C 128.980469 141.328125 132.578125 137.269531 136.042969 135.140625 C 142.902344 129.753906 148.765625 126.890625 151.960938 122.167969 C 155.15625 117.445313 157.222656 112.988281 157.222656 110.59375 L 157.222656 109.527344 C 157.222656 109.527344 152.359375 107.398438 148.964844 104.605469 "/>
<path style=" stroke:none;fill-rule:nonzero;fill:rgb(0%,0%,0%);fill-opacity:1;" d="M 161.152344 141.730469 C 162.351563 141.730469 163.816406 140.929688 165.414063 140.929688 C 167.011719 140.929688 168.546875 141.527344 169.609375 141.527344 C 170.675781 141.527344 175.472656 139.664063 177.871094 136.871094 C 180.269531 134.078125 184.132813 130.085938 185.929688 128.6875 C 185.929688 124.296875 192.058594 116.714844 192.058594 113.917969 C 192.058594 109.460938 186.929688 107 183.199219 105.269531 C 173.007813 108.597656 173.210938 110.324219 168.878906 110.324219 C 165.554688 110.324219 163.011719 114.382813 160.085938 119.289063 C 157.398438 123.089844 155.359375 127.132813 155.359375 131.75 C 155.359375 137.136719 158.953125 141.730469 161.152344 141.730469 "/>
<path style=" stroke:none;fill-rule:nonzero;fill:rgb(0%,0%,0%);fill-opacity:1;" d="M 214.503906 108.328125 C 209.972656 108.328125 208.042969 110.925781 204.378906 111.523438 C 200.117188 112.253906 199.25 115.582031 198.382813 120.902344 C 197.785156 125.761719 196.453125 128.488281 196.453125 130.683594 C 196.453125 137.003906 200.847656 140.066406 200.847656 140.066406 C 200.847656 140.066406 202.445313 137.734375 205.378906 137.734375 C 207.710938 137.734375 209.640625 139.800781 209.640625 139.800781 C 211.039063 139.800781 218.03125 141.128906 219.296875 141.128906 C 223.09375 141.128906 229.488281 134.34375 229.488281 127.355469 C 229.488281 122.5625 228.476563 120.074219 227.21875 117.617188 C 226.035156 114.882813 224.960938 113.164063 224.296875 112.320313 C 223.027344 110.726563 218.699219 108.328125 214.503906 108.328125 "/>
<path style=" stroke:none;fill-rule:nonzero;fill:rgb(0%,0%,0%);fill-opacity:1;" d="M 363.222656 167.226563 C 356.035156 167.226563 350.246094 171.75 347.585938 174.746094 C 344.921875 177.742188 341.660156 182.464844 341.660156 186.921875 C 341.660156 191.382813 345.921875 193.113281 350.445313 193.113281 C 354.972656 193.113281 361.425781 190.183594 365.820313 184.996094 C 370.210938 179.804688 371.675781 175.679688 371.675781 173.148438 C 371.675781 170.085938 369.679688 167.226563 363.222656 167.226563 "/>
<path style=" stroke:none;fill-rule:nonzero;fill:rgb(0%,0%,0%);fill-opacity:1;" d="M 311.851563 167.160156 C 309.320313 167.160156 307.789063 167.359375 307.789063 167.359375 L 301.335938 178.671875 C 301.335938 178.671875 302.734375 179.070313 304.796875 179.070313 C 309.785156 179.070313 311.785156 178.140625 313.046875 177.542969 C 314.3125 176.941406 316.441406 175.679688 317.441406 174.414063 C 318.4375 173.148438 319.238281 171.550781 319.238281 170.820313 C 319.238281 168.09375 315.578125 167.160156 311.851563 167.160156 "/>
<path style=" stroke:none;fill-rule:nonzero;fill:rgb(0%,0%,0%);fill-opacity:1;" d="M 257.664063 59.628906 C 256.53125 60.027344 255.199219 61.558594 254.53125 62.691406 C 253.867188 63.820313 253 65.484375 249.203125 65.683594 C 247.671875 65.75 247.207031 66.480469 244.34375 66.480469 C 243.210938 66.480469 241.945313 65.75 241.945313 63.621094 C 241.945313 62.585938 242.703125 61.621094 243.414063 60.488281 C 244.382813 59.03125 246.066406 57.964844 250.003906 57.964844 C 251.804688 57.898438 256.796875 56.503906 257.664063 55.636719 L 260.328125 55.636719 C 260.792969 55.636719 260.925781 56.035156 260.925781 56.503906 C 260.925781 57.832031 259.328125 59.164063 257.664063 59.628906 M 243.230469 84.800781 C 241.878906 86.195313 239.664063 87.039063 235.949219 87.039063 C 233.945313 87.039063 232.789063 86.734375 232.128906 86.191406 C 231.429688 85.613281 231.289063 84.789063 231.289063 84.378906 C 231.289063 82.78125 233.953125 77.925781 236.214844 76.925781 C 238.28125 76.726563 240.078125 76.0625 241.746094 76.0625 C 243.011719 76.0625 245.140625 77.058594 245.140625 80.1875 C 245.140625 82.214844 244.378906 83.464844 243.230469 84.800781 M 226.851563 66.082031 C 225.621094 66.804688 221.75 67.546875 220.164063 67.546875 C 219.03125 67.546875 217.367188 67.015625 217.367188 65.351563 C 217.367188 63.6875 219.03125 61.359375 219.832031 60.496094 C 220.628906 59.628906 223.230469 58.699219 225.894531 58.699219 C 228.089844 58.699219 229.890625 59.761719 229.890625 61.890625 C 229.890625 63.359375 228.761719 64.589844 226.851563 66.082031 M 218.410156 84.144531 C 216.476563 86.941406 214.753906 87.636719 210.707031 87.636719 C 206.046875 87.636719 205.179688 86.375 205.179688 86.375 C 205.179688 85.472656 206.632813 82.464844 207.964844 80.070313 C 209.363281 78.007813 211.308594 75.996094 211.90625 75.996094 C 211.90625 75.996094 214.636719 76.59375 215.171875 76.59375 C 215.96875 76.59375 217.5 76.195313 218.832031 76.195313 C 220.164063 76.195313 220.898438 76.660156 220.898438 76.660156 C 220.898438 79.949219 220.339844 81.351563 218.410156 84.144531 M 195.253906 68.808594 C 193.121094 68.808594 192.058594 67.015625 192.058594 65.351563 C 192.058594 64.089844 193.789063 60.761719 193.988281 59.5625 C 194.1875 58.363281 194.65625 55.171875 199.714844 55.171875 C 202.714844 55.171875 206.378906 56.703125 206.378906 58.097656 C 206.378906 58.699219 202.78125 62.023438 201.515625 64.089844 C 200.582031 65.550781 198.050781 68.808594 195.253906 68.808594 M 189.589844 83.605469 C 188.3125 86.078125 186.613281 88.171875 181.464844 88.171875 C 179.601563 88.171875 177.539063 87.304688 177.539063 87.304688 C 177.539063 82.847656 183.664063 76.996094 185.664063 76.996094 C 187.261719 76.996094 191.726563 77.792969 191.726563 78.925781 C 191.726563 79.386719 190.726563 81.21875 189.589844 83.605469 M 294.5 88.835938 C 299.292969 88.835938 302.503906 87.269531 306.746094 85.933594 C 310.011719 84.882813 313.933594 83.796875 317.511719 82.488281 C 324.050781 80.644531 327.867188 77.863281 327.867188 74.066406 C 327.867188 70.941406 326.203125 68.609375 321.875 68.609375 C 317.546875 68.609375 315.078125 69.609375 310.683594 69.609375 C 302.625 69.609375 302.425781 65.019531 296.296875 65.019531 C 290.96875 65.019531 284.773438 65.816406 281.910156 65.816406 C 279.046875 65.816406 276.515625 65.484375 274.054688 65.484375 C 270.984375 65.484375 271.363281 62.546875 270.144531 60.480469 C 268.9375 58.421875 267.058594 57.234375 267.058594 57.234375 C 270.054688 53.308594 294.964844 53.242188 294.964844 41.933594 C 294.964844 36.609375 288.503906 34.046875 286.90625 32.980469 C 284.105469 30.984375 283.992188 27.960938 281.046875 27.960938 C 278.691406 27.960938 273.058594 31.332031 270.292969 34.136719 C 268.214844 36.746094 266.289063 39.304688 264.058594 41.378906 C 259.964844 44.527344 255.628906 44.785156 252.605469 44.992188 C 246.210938 45.191406 244.347656 46.058594 241.480469 46.058594 C 238.925781 46.058594 235.65625 45.269531 234.285156 42.933594 C 233.699219 41.734375 233.523438 39.890625 233.523438 37.855469 C 233.523438 34.714844 231.671875 32.378906 229.074219 30.363281 C 227.261719 28.957031 225.148438 27.828125 222.765625 27.828125 C 220.488281 27.828125 218.808594 27.886719 217.117188 27.75 C 213.101563 27.011719 209.597656 25.699219 205.183594 25.699219 C 199.914063 25.699219 191.792969 30.261719 187.730469 33.015625 C 186.238281 33.882813 183.835938 34.324219 182.15625 35.429688 C 180.445313 36.734375 178.808594 39.847656 178.808594 42.730469 C 178.808594 49.582031 183.671875 49.78125 183.671875 53.375 C 183.671875 56.472656 177.4375 59.523438 171.546875 63.304688 C 168.058594 65.472656 166.433594 69.074219 159.960938 69.074219 C 151.996094 69.074219 147.679688 67.539063 143.742188 65.523438 C 140.726563 63.855469 140.058594 61.226563 136.644531 61.226563 C 135.664063 61.226563 132.644531 62.175781 129.980469 62.25 C 121.519531 63.824219 117.371094 65.621094 111.824219 68.035156 C 107.347656 69.984375 103.945313 71.441406 103.945313 74.398438 C 103.945313 77.589844 107.585938 79.679688 110.535156 81.410156 C 113.492188 83.414063 114.898438 85.175781 116.996094 85.175781 C 119.0625 85.175781 119.664063 83.582031 122.992188 83.582031 C 124.125 83.582031 125.257813 83.914063 126.121094 83.914063 C 130.585938 83.914063 133.25 79.65625 149.96875 79.65625 C 155.546875 79.65625 155.421875 83.582031 156.078125 87.308594 C 156.453125 89.867188 158.167969 92.191406 158.695313 94.824219 C 158.945313 96.066406 158.945313 97.695313 159.003906 99.023438 C 159.265625 101.1875 161.492188 103.539063 164.222656 103.539063 C 171.859375 103.539063 174.605469 100.945313 179.789063 99.597656 C 181.238281 99.328125 184.445313 99.066406 187.191406 98.820313 C 190.921875 98.292969 197.449219 97.484375 201.121094 97.484375 L 207.648438 97.484375 C 209.847656 97.484375 210.777344 97.019531 212.84375 97.019531 C 220.902344 97.019531 227.429688 99.28125 233.222656 99.28125 C 234.554688 99.28125 244.414063 97.683594 245.214844 97.683594 C 246.011719 97.683594 247.277344 98.085938 248.476563 98.085938 C 252.140625 98.085938 255.742188 93.953125 256.453125 93.488281 C 257.632813 92.675781 259.496094 91.269531 260.503906 89.945313 C 263.511719 85.730469 265.257813 81.984375 269.988281 81.984375 C 275.648438 81.984375 278.914063 89.835938 285.839844 89.835938 C 286.574219 89.835938 288.972656 88.835938 294.5 88.835938 "/>
<path style=" stroke:none;fill-rule:nonzero;fill:rgb(0%,0%,0%);fill-opacity:1;" d="M 523.066406 167.09375 C 520.601563 167.09375 518.941406 167.492188 518.941406 167.492188 L 513.085938 177.742188 L 516.675781 177.742188 C 522.464844 177.742188 525.128906 176.34375 526.460938 175.546875 C 527.789063 174.746094 530.253906 172.816406 530.253906 170.753906 C 530.253906 167.558594 525.527344 167.09375 523.066406 167.09375 "/>
<path style=" stroke:none;fill-rule:nonzero;fill:rgb(0%,0%,0%);fill-opacity:1;" d="M 536.574219 177.941406 C 534.777344 179.070313 531.71875 180.203125 527.390625 181.335938 C 529.71875 182.332031 530.519531 183.597656 530.519531 186.390625 C 530.519531 188.1875 529.054688 194.113281 529.054688 199.367188 L 516.742188 199.367188 C 516.742188 195.441406 518.472656 189.71875 518.472656 188.054688 C 518.472656 185.261719 516.476563 184.195313 513.882813 184.195313 L 509.425781 184.195313 L 500.773438 199.367188 L 488.796875 199.367188 L 510.421875 161.4375 C 510.421875 161.4375 514.945313 160.570313 524.195313 160.570313 C 540.765625 160.570313 543.230469 164.632813 543.230469 168.425781 C 543.230469 172.949219 538.371094 176.808594 536.574219 177.941406 M 484.867188 192.378906 L 481.140625 199.367188 L 447.535156 199.367188 L 469.496094 160.773438 L 501.769531 160.773438 L 497.84375 168.089844 L 477.148438 168.089844 L 477.105469 167.972656 L 472.753906 175.746094 L 491.722656 175.746094 L 487.796875 183.066406 L 468.652344 183.066406 L 463.429688 192.378906 Z M 414.929688 199.367188 L 423.714844 171.351563 L 399.625 199.367188 L 386.316406 199.367188 L 395.632813 160.773438 L 407.941406 160.773438 L 398.691406 190.316406 L 423.246094 160.773438 L 436.222656 160.773438 L 426.84375 190.050781 L 450.53125 160.773438 L 463.507813 160.773438 L 427.90625 199.367188 Z M 377.332031 187.324219 C 371.074219 194.113281 361.359375 200.167969 346.988281 200.167969 C 332.613281 200.167969 329.085938 193.246094 329.085938 188.253906 C 329.085938 183.261719 331.082031 177.875 337.535156 171.285156 C 343.992188 164.695313 353.839844 160.105469 366.75 160.105469 C 379.660156 160.105469 384.316406 165.5625 384.316406 171.953125 C 384.316406 174.214844 383.585938 180.535156 377.332031 187.324219 M 317.574219 183.464844 C 314.976563 184.394531 310.71875 185.792969 302.066406 185.792969 C 299.683594 185.792969 297.890625 185.472656 297.542969 185.40625 L 289.492188 199.367188 L 277.847656 199.367188 L 299.472656 161.4375 C 299.472656 161.4375 301.601563 160.570313 312.714844 160.570313 C 329.949219 160.570313 331.347656 165.628906 331.347656 168.957031 C 331.347656 173.082031 328.421875 176.410156 326.625 178.273438 C 324.828125 180.136719 320.167969 182.53125 317.574219 183.464844 M 241.910156 199.035156 L 227.738281 199.035156 L 226.34375 171.886719 L 210.96875 199.035156 L 201.652344 199.035156 L 222.945313 161.4375 L 237.453125 161.4375 L 238.554688 188.511719 L 253.890625 161.4375 L 263.207031 161.4375 Z M 195.660156 199.035156 L 158.730469 199.035156 L 180.355469 161.4375 L 217.289063 161.4375 L 212.097656 170.421875 L 185.171875 170.421875 L 181.765625 176.34375 L 206.710938 176.34375 L 202.117188 184.0625 L 177.324219 184.0625 L 173.878906 190.050781 L 200.851563 190.050781 Z M 150.011719 196.242188 C 148.214844 197.371094 144.355469 199.367188 130.449219 199.367188 C 122.554688 199.367188 117.742188 198.941406 115.390625 197.742188 C 113.222656 196.632813 113.214844 194.78125 113.214844 194.042969 C 113.214844 192.511719 114.144531 190.117188 115.140625 188.054688 C 116.140625 185.992188 121.398438 177.140625 127.652344 169.355469 C 133.90625 161.570313 141.492188 161.105469 153.804688 161.105469 C 166.117188 161.105469 170.308594 161.570313 170.308594 165.363281 C 170.308594 167.160156 169.644531 168.359375 168.976563 169.6875 L 166.183594 174.480469 L 156.402344 174.480469 C 157.066406 173.28125 157.664063 172.285156 157.664063 171.75 C 157.664063 170.886719 157 170.085938 147.484375 170.085938 C 136.96875 170.085938 136.96875 171.683594 134.90625 173.878906 C 133.640625 175.34375 128.585938 183.066406 127.917969 184.195313 C 127.253906 185.328125 126.453125 186.722656 126.453125 187.855469 C 126.453125 188.269531 126.9375 188.902344 127.644531 189.277344 C 128.757813 189.871094 130.914063 190.117188 136.371094 190.117188 C 145.285156 190.117188 146.417969 189.054688 149.613281 185.058594 L 137.035156 185.058594 L 142.09375 177.339844 L 164.320313 177.339844 C 164.320313 177.339844 157.199219 188.71875 155.867188 190.585938 C 154.535156 192.449219 151.808594 195.109375 150.011719 196.242188 M 98.640625 196.773438 C 96.042969 198.171875 92.25 199.367188 81.269531 199.367188 C 70.289063 199.367188 68.761719 197.636719 67.960938 197.039063 C 67.164063 196.441406 66.429688 195.308594 66.429688 193.710938 C 66.429688 192.511719 67.164063 190.050781 68.226563 188.1875 L 84.863281 161.4375 L 94.84375 161.4375 L 80.539063 184.328125 C 79.871094 185.328125 79.207031 186.792969 79.207031 187.65625 C 79.207031 189.1875 81.136719 189.71875 88.855469 189.71875 C 93.046875 189.71875 94.832031 189.242188 96.679688 188.265625 C 98.71875 187.191406 99.761719 185.554688 100.636719 184.261719 L 114.808594 161.4375 L 124.792969 161.4375 C 124.792969 161.4375 109.019531 186.792969 106.957031 189.652344 C 104.894531 192.511719 101.234375 195.375 98.640625 196.773438 M 46.933594 199.035156 L 63.09375 172.945313 L 35.621094 199.035156 L 29.296875 199.035156 L 34.636719 171.621094 L 17.652344 199.035156 L 9.003906 199.035156 L 32.292969 161.4375 L 45.800781 161.4375 L 40.613281 185.726563 L 65.566406 161.4375 L 78.875 161.4375 L 55.582031 199.035156 Z M 534.777344 155.699219 L 480.214844 155.699219 C 488.53125 147.960938 503.589844 139.558594 503.589844 127.25 C 503.589844 121.046875 500.960938 116.984375 500.960938 113.058594 C 500.960938 108.347656 504.71875 104.996094 509.222656 100.621094 C 516.5 94.894531 517.09375 93.117188 519.574219 89.574219 C 524.28125 83.332031 526.777344 77.734375 526.777344 68.472656 C 526.777344 62.617188 523.117188 60.488281 521.386719 59.890625 C 519.65625 59.289063 518.527344 58.226563 518.527344 56.628906 C 518.527344 47.179688 537.957031 42.789063 537.957031 27.613281 C 537.957031 21.375 533.628906 19.136719 530.515625 16.425781 C 526.398438 11.691406 519.417969 4.722656 511.871094 4.722656 C 496.300781 4.722656 493.238281 7.453125 488.316406 8.316406 C 483.390625 9.183594 480.265625 9.78125 473.34375 9.78125 C 470.683594 9.78125 471.945313 10.445313 461.964844 10.445313 C 448.125 10.445313 449.65625 9.050781 444.664063 9.050781 C 438.875 9.050781 433.21875 13.242188 429.292969 13.242188 C 424.304688 13.242188 424.4375 7.984375 414.722656 7.984375 C 402.742188 7.984375 400.746094 10.046875 392.5625 10.046875 C 379.71875 10.046875 374.597656 11.445313 371.136719 11.445313 C 367.675781 11.445313 367.542969 10.980469 363.417969 10.980469 C 354.835938 10.980469 341.925781 18.300781 338.664063 28.015625 C 340.726563 25.421875 348.578125 20.894531 355.765625 20.894531 C 359.625 20.894531 360.289063 21.359375 363.285156 21.359375 C 366.277344 21.359375 369.074219 20.496094 374.730469 20.230469 C 380.386719 19.964844 383.714844 20.027344 383.714844 20.027344 C 393.027344 20.027344 394.359375 18.101563 402.609375 18.101563 C 414.652344 18.101563 413.324219 22.757813 419.511719 22.757813 C 423.105469 22.757813 426.234375 19.230469 433.617188 19.230469 C 438.410156 19.230469 439.40625 20.363281 445.261719 20.363281 C 447.792969 20.363281 449.054688 20.027344 450.320313 20.027344 C 451.585938 20.027344 453.25 20.230469 454.777344 20.230469 C 458.839844 20.230469 461.234375 19.429688 461.234375 19.429688 C 461.234375 19.429688 462.230469 19.695313 463.097656 19.695313 C 466.625 19.695313 473.808594 18.566406 476.871094 18.03125 C 478.667969 17.699219 483.523438 15.171875 494.902344 15.171875 C 503.613281 15.171875 508.371094 18.738281 512.042969 21.691406 C 513.089844 22.628906 514.675781 24.132813 516.71875 25.898438 C 520.359375 28.070313 523.78125 31.054688 523.78125 35.269531 C 523.78125 49.109375 507.148438 51.371094 507.148438 60.023438 C 507.148438 62.839844 510.757813 63.066406 511.679688 63.664063 C 513.816406 65.101563 515.796875 67.15625 515.796875 70.605469 L 515.796875 75.328125 C 515.796875 80.019531 513.292969 84.425781 510.589844 88.101563 C 508.890625 90.484375 507.804688 92.800781 503.8125 96.007813 C 499.050781 100.1875 494.171875 103.789063 494.171875 108.269531 C 494.171875 114.257813 497.5 114.722656 497.5 122.972656 C 497.5 126.996094 494.902344 130.335938 491.992188 133.433594 C 490.054688 135.4375 486.761719 138.148438 483.625 140.699219 C 479.640625 143.535156 474.59375 149.742188 464.996094 151.234375 C 460.496094 151.871094 458.226563 153.519531 450.453125 153.519531 L 441.671875 153.519531 C 441.070313 153.519531 438.875 153.917969 437.476563 153.917969 C 433.40625 153.917969 427.183594 151.714844 423.203125 148.214844 C 418.183594 143.800781 415.160156 137.882813 403.742188 137.882813 C 378.988281 137.882813 369.007813 155.183594 343.1875 155.183594 C 336.535156 155.183594 330.078125 146.53125 323.226563 146.53125 C 319.800781 146.53125 318 147.730469 314.804688 148.890625 C 310.992188 149.738281 308.0625 150.933594 304.765625 151.972656 C 300.089844 152.878906 294.660156 154.316406 290.6875 154.316406 C 275.515625 154.316406 278.378906 147.996094 268.328125 147.996094 C 260.011719 147.996094 257.75 150.257813 248.765625 150.257813 C 239.78125 150.257813 237.71875 145.066406 233.726563 145.066406 C 229.734375 145.066406 225.675781 149.257813 216.492188 149.257813 C 210.503906 149.257813 210.769531 148.195313 204.980469 148.195313 C 200.789063 148.195313 202.984375 148.796875 194.402344 148.796875 C 181.625 148.796875 183.953125 145.800781 178.832031 145.800781 C 174.304688 145.800781 173.375 149.726563 155.273438 149.726563 C 151.347656 149.726563 145.027344 146.199219 138.574219 146.199219 C 135.265625 146.199219 133.332031 147.273438 130.75 147.941406 C 126.96875 148.769531 123.074219 150.257813 116.613281 150.257813 C 101.261719 150.257813 97.847656 147.398438 95.351563 144.957031 C 92.015625 141.515625 89.996094 138.597656 89.996094 135.816406 C 89.996094 130.066406 91.753906 125.082031 94.050781 122.199219 C 96.085938 119.734375 99.324219 115.160156 100.992188 113.199219 C 107.300781 106.644531 118.609375 103.363281 118.609375 97.820313 C 118.609375 96.425781 117.148438 95.09375 115.484375 95.09375 C 106.417969 95.09375 102.984375 91.667969 101.429688 90.394531 C 99.351563 88.328125 96.632813 85.375 94.667969 83.292969 C 92.335938 80.746094 90.265625 78.207031 90.265625 74.195313 C 90.265625 71.140625 90.902344 70.097656 92.496094 67.515625 C 93.203125 66.226563 94.765625 62.316406 100.394531 58.191406 C 104.605469 55.128906 110.265625 52.355469 117.316406 49.945313 C 122.65625 48.097656 128.25 46.847656 132.523438 46.34375 C 134.90625 45.886719 137.636719 45.316406 139.171875 45.316406 C 149.820313 45.316406 151.816406 54.101563 158.535156 54.101563 C 163.792969 54.101563 167.519531 50.441406 167.519531 47.714844 C 167.519531 45.714844 164.925781 42.523438 164.925781 38.996094 C 164.925781 34.6875 167.242188 30.394531 170.40625 27.648438 C 171.851563 26.378906 176.003906 23.097656 181.917969 20.828125 C 185.636719 19.285156 186.261719 17.238281 191.792969 14.675781 C 196.785156 12.492188 202.175781 11.511719 206.976563 11.511719 C 208.230469 11.511719 211.761719 12.140625 215.964844 12.398438 C 220.492188 12.71875 222.570313 13.523438 227.414063 14.136719 C 230.417969 14.136719 232.285156 15.085938 234.871094 15.925781 C 241.355469 18.039063 247.699219 20.230469 247.699219 26.75 C 247.699219 30.941406 249.566406 33.273438 252.425781 33.273438 C 256.351563 33.273438 258.347656 30.609375 259.8125 27.613281 C 261.277344 24.621094 265.335938 21.027344 269.59375 19.363281 C 273.851563 17.699219 282.902344 14.105469 288.359375 14.105469 C 295.277344 14.105469 296.808594 17.367188 298.738281 19.230469 C 302.066406 22.558594 310.25 24.886719 310.25 32.007813 C 310.25 33.140625 309.851563 36.199219 309.851563 36.199219 C 311.980469 32.140625 315.042969 29.277344 315.042969 23.691406 C 315.042969 17.300781 311.847656 15.238281 308.453125 12.777344 C 300.734375 7.71875 302.863281 2.925781 293.28125 2.925781 C 289.246094 2.925781 284.558594 4.632813 278.984375 6.761719 C 274.179688 8.675781 270.824219 9.554688 266.933594 12.976563 C 262.882813 16.65625 262.449219 19.703125 259.914063 22.464844 C 258.566406 23.683594 256.480469 24.820313 254.488281 24.820313 C 251.761719 24.820313 249.832031 22.691406 249.832031 18.964844 C 249.832031 18.164063 250.097656 17.632813 250.097656 16.234375 C 250.097656 10.644531 244.789063 8.308594 241.6875 6.570313 C 235.453125 4.800781 233.882813 3.246094 231.796875 2.996094 C 223.546875 2.527344 222.683594 0.929688 217.492188 0.929688 C 212.765625 0.929688 211.171875 0 209.441406 0 C 197.460938 0 190.542969 3.59375 185.417969 7.984375 C 185.015625 8.429688 183.703125 9.539063 181.867188 10.464844 C 174.917969 13.308594 162.328125 20.429688 162.328125 31.542969 C 162.328125 35.601563 164.390625 38.859375 164.390625 40.859375 C 164.390625 45.316406 159.46875 48.777344 154.742188 48.777344 C 146.691406 48.777344 147.289063 38.929688 134.980469 38.929688 C 131.875 38.929688 130.855469 39.132813 127.917969 39.878906 C 120.796875 40.914063 111.957031 43.277344 101.777344 48.316406 C 92.929688 52.652344 89.027344 56.855469 85.34375 62.398438 C 83.167969 65.675781 81.546875 68.421875 81.546875 72.734375 C 81.546875 77.515625 83.898438 80.800781 87.882813 85.632813 C 91.972656 91.089844 96.246094 96.222656 105.035156 96.222656 C 108.496094 96.222656 109.160156 97.753906 109.160156 98.953125 C 109.160156 103.53125 102.796875 107.09375 95.742188 111.957031 C 87.863281 117.316406 83.902344 125.144531 80.855469 128.679688 C 78.867188 131.097656 76.289063 139.980469 76.289063 143.671875 C 76.289063 149.59375 83.34375 155.714844 83.34375 155.714844 L 63.582031 155.714844 L 49.539063 169.289063 L 52.46875 155.714844 L 30.308594 155.714844 L 0 205.507813 L 297.226563 205.523438 L 302.464844 195.792969 C 317.269531 194.628906 320.765625 192.628906 320.765625 192.628906 C 320.765625 196.957031 323.675781 206.855469 350.125 206.855469 L 534.363281 206.855469 C 534.363281 206.855469 534.195313 203.859375 534.195313 201.78125 C 534.195313 193.960938 536.109375 190.300781 536.109375 184.894531 C 539.519531 182.980469 550 176.410156 550 167.675781 C 550 160.023438 542.429688 155.699219 534.777344 155.699219 "/>
<path style=" stroke:none;fill-rule:nonzero;fill:rgb(0%,0%,0%);fill-opacity:1;" d="M 365.765625 81.980469 C 363.300781 83.578125 359.105469 85.839844 354.910156 88.101563 C 350.710938 90.363281 347.382813 91.292969 344.851563 91.292969 C 342.519531 91.292969 340.722656 90.5625 340.722656 90.5625 C 340.722656 87.566406 343.71875 85.507813 345.515625 82.777344 C 346.984375 80.914063 348.980469 79.382813 351.046875 73.261719 C 352.710938 68.207031 358.839844 64.148438 362.300781 63.085938 C 365.699219 64.746094 370.09375 68.074219 370.09375 74.726563 C 370.09375 78.054688 368.230469 80.382813 365.765625 81.980469 M 376.289063 46.382813 C 372.757813 47.914063 370.894531 49.109375 368.164063 52.105469 C 366.765625 53.636719 361.570313 58.359375 358.839844 58.359375 C 354.109375 58.359375 354.175781 53.371094 348.847656 53.371094 C 343.320313 53.371094 341.253906 59.226563 340.1875 62.617188 C 339.121094 66.011719 337.390625 70.9375 332.328125 77.722656 C 330.996094 79.785156 329.664063 83.84375 326.867188 87.503906 C 325.070313 90.097656 320.671875 96.816406 318.410156 100.007813 C 316.410156 103.734375 313.613281 107.792969 309.882813 112.984375 C 307.21875 116.910156 302.289063 123.960938 299.359375 127.886719 C 296.828125 130.347656 290.433594 135.605469 290.433594 140.328125 C 290.433594 143.257813 292.234375 144.1875 294.097656 144.1875 L 297.828125 144.1875 C 309.617188 144.1875 316.011719 138.464844 317.144531 135.738281 C 318.675781 131.414063 320.339844 129.152344 321.804688 126.890625 C 323.269531 124.628906 329.265625 113.914063 331.128906 110.457031 C 332.996094 106.996094 334.394531 103.535156 337.992188 103.535156 C 339.789063 103.535156 340.390625 104.734375 342.988281 104.734375 C 345.382813 104.734375 354.910156 101.273438 361.371094 101.273438 C 363.433594 101.273438 365.699219 101.472656 368.03125 101.472656 C 373.226563 101.472656 378.089844 100.675781 381.484375 96.085938 C 384.148438 92.226563 385.148438 90.5625 387.078125 87.503906 C 389.011719 84.441406 392.539063 79.914063 392.539063 77.589844 C 392.539063 74.394531 389.277344 71.066406 388.8125 68.9375 C 388.34375 66.8125 387.8125 62.617188 380.085938 59.757813 C 378.753906 59.480469 377.835938 59.320313 376.8125 58.660156 C 374.945313 57.308594 374.359375 56.164063 374.359375 56.164063 C 379.152344 54.101563 384.347656 51.574219 387.347656 50.375 C 391.542969 48.914063 396.003906 47.78125 401.265625 45.851563 C 405.394531 44.523438 405.929688 42.660156 406.460938 40.328125 C 406.996094 38 409.125 35.539063 411.722656 34.210938 C 413.121094 33.476563 413.722656 32.214844 413.722656 31.148438 C 413.722656 29.394531 412.578125 27.800781 411.117188 26.234375 C 409.003906 24.15625 405.71875 23.03125 400.933594 23.03125 C 396.535156 23.03125 391.542969 26.492188 385.214844 26.492188 C 383.882813 26.492188 383.414063 26.160156 382.015625 26.160156 C 379.886719 26.160156 373.226563 27.15625 370.292969 27.15625 C 367.363281 27.15625 360.035156 26.691406 356.773438 26.691406 C 352.84375 26.691406 348.382813 28.820313 348.382813 32.679688 C 348.382813 35.738281 349.914063 36.9375 350.246094 41.328125 C 350.578125 45.71875 353.511719 47.117188 355.90625 47.117188 C 356.640625 47.117188 360.371094 46.117188 362.167969 45.320313 C 363.96875 44.523438 365.765625 42.789063 367.230469 42.058594 C 368.695313 41.328125 375.289063 38.933594 378.285156 38.933594 C 380.152344 38.933594 380.953125 40.398438 380.953125 41.261719 C 380.953125 42.125 379.820313 44.855469 376.289063 46.382813 "/>
<path style=" stroke:none;fill-rule:nonzero;fill:rgb(0%,0%,0%);fill-opacity:1;" d="M 309.179688 37.792969 C 308.421875 39.042969 307.652344 40.265625 306.902344 41.777344 C 306.59375 42.371094 305.71875 43.242188 305.71875 44.648438 C 305.71875 46.976563 307.382813 47.976563 308.78125 48.242188 C 312.171875 48.839844 315.234375 50.039063 318.160156 52.167969 C 318.824219 52.699219 320.824219 53.234375 321.953125 53.234375 C 322.886719 53.234375 326.34375 52.769531 327.808594 51.4375 C 329.273438 50.105469 331.933594 47.441406 332.730469 45.246094 C 331.066406 46.511719 328.605469 48.042969 325.214844 48.042969 C 321.820313 48.042969 320.355469 45.847656 318.09375 44.648438 C 315.832031 43.449219 313.039063 42.652344 311.242188 42.121094 C 309.445313 41.585938 309.179688 39.191406 309.179688 37.792969 "/>
<path style=" stroke:none;fill-rule:nonzero;fill:rgb(0%,0%,0%);fill-opacity:1;" d="M 461.917969 68.140625 C 460.089844 69.898438 457.300781 72.023438 454.519531 73.597656 C 452.046875 74.828125 451.574219 75.746094 444.390625 75.746094 C 438.425781 75.746094 427.949219 77.4375 427.222656 77.4375 C 425.289063 77.4375 422.628906 76.472656 422.628906 73.8125 C 422.628906 71.808594 423.957031 70.882813 425.460938 69.480469 C 427.535156 67.546875 429.5 65.84375 433.671875 65.84375 C 435.605469 65.84375 451.800781 61.335938 463.648438 61.335938 C 464.535156 61.335938 465.503906 61.980469 465.503906 63.671875 C 465.503906 64.796875 464.0625 65.914063 461.917969 68.140625 M 460.546875 53.308594 C 453.953125 53.574219 445.691406 55.238281 439.164063 55.238281 C 434.085938 55.238281 433.667969 52.648438 432.339844 51.605469 C 429.808594 49.859375 425.886719 47.652344 421.714844 47.652344 C 415.453125 47.652344 414.058594 50.449219 413.523438 53.375 C 413.257813 55.039063 407.796875 68.679688 402.867188 75.132813 C 399.800781 78.855469 398.539063 86.507813 394.074219 91.964844 C 393.539063 92.5625 387.015625 104.539063 382.6875 110.992188 C 382.039063 112.09375 380.011719 114.191406 378.8125 114.742188 C 376.222656 115.84375 369.867188 116.71875 369.300781 116.71875 C 368.585938 116.71875 369.132813 116.476563 367.84375 116.476563 C 366.554688 116.476563 361.15625 117.605469 348.179688 118.492188 C 342.378906 118.894531 341.570313 121.628906 341.570313 129.839844 C 341.570313 133.867188 344.414063 135.503906 346.25 138.046875 C 348.664063 141.394531 349.140625 144.410156 353.578125 144.410156 C 358.980469 144.410156 358.898438 142.074219 365.183594 139.179688 C 371.472656 136.28125 381.140625 134.511719 385.574219 131.53125 C 390.007813 128.554688 392.101563 127.183594 400.726563 124.367188 C 409.347656 121.550781 419.261719 116.882813 421.921875 116.882813 C 424.578125 116.882813 426.355469 120.582031 427.882813 122.355469 C 430.222656 125.253906 437.152344 132.015625 438.039063 134.671875 C 438.925781 137.328125 440.296875 139.5 442.3125 140.304688 C 445.128906 141.433594 446.421875 144.8125 449.480469 144.8125 C 452.546875 144.8125 452.707031 142.640625 458.347656 142.640625 C 462.867188 142.640625 466.050781 142.203125 468.289063 141.691406 C 471.996094 140.84375 473.25 139.496094 474.707031 137.488281 C 477.046875 134.269531 479.542969 133.863281 482.203125 133.222656 C 483.519531 132.902344 485.050781 131.988281 486.503906 130.898438 C 487.980469 129.785156 489.375 128.484375 489.375 127.101563 C 489.375 125.714844 488.707031 123.921875 488.300781 121.773438 C 487.910156 119.84375 486.84375 117.871094 484.78125 116.960938 C 480.589844 115.109375 476.5625 112.695313 472.855469 111.40625 C 470.960938 110.75 467.03125 109.621094 461.675781 108.34375 C 457.082031 106.878906 452.789063 105.429688 448.191406 104.484375 C 443.355469 103.117188 436.746094 99.171875 432.800781 97.078125 C 430.222656 95.710938 427.398438 95.226563 424.5 94.421875 C 423.210938 93.9375 421.035156 91.925781 419.261719 91.925781 C 417.023438 91.925781 416.1875 93.808594 415.214844 95.703125 C 414.398438 97.300781 413.699219 98.769531 413.699219 100.539063 C 413.699219 104.402344 415.554688 104.160156 415.554688 106.816406 C 415.554688 109.476563 410.960938 111.246094 404.753906 111.246094 C 401.773438 111.246094 401.046875 110.761719 401.046875 109.957031 C 401.046875 107.621094 402.496094 105.207031 405.882813 100.863281 C 407.253906 98.929688 411.605469 92.085938 412.492188 90.398438 C 413.378906 88.707031 414.828125 87.015625 416.921875 87.015625 C 418.050781 87.015625 419.421875 87.820313 421.035156 87.820313 C 421.679688 87.820313 423.855469 87.257813 425.789063 87.257813 C 430.703125 87.257813 432.558594 84.761719 437.476563 84.761719 C 441.101563 84.761719 442.230469 87.820313 442.230469 88.707031 C 442.230469 89.429688 441.988281 90.074219 441.988281 90.558594 C 441.988281 91.039063 444.726563 92.167969 448.4375 92.167969 C 451.738281 92.167969 453.511719 90.878906 457.378906 89.832031 C 465.761719 87.175781 469.628906 84.761719 474.226563 81.058594 C 478.816406 77.355469 482.523438 73.332031 485.34375 71.15625 C 489.296875 68.261719 493.082031 67.535156 494.691406 64.960938 C 496.949219 61.660156 499.289063 56.992188 501.945313 54.253906 C 503.410156 52.75 506.914063 49.847656 510.378906 46.824219 C 513.40625 44.476563 515.648438 42.375 515.648438 40.488281 C 515.648438 36.882813 508.449219 32.796875 504.921875 31.105469 C 501.167969 28.671875 497.992188 26.296875 493.714844 26.296875 C 491.585938 26.296875 488.121094 27.894531 483.058594 28.425781 C 479.953125 28.910156 472.636719 29.71875 465.265625 30.242188 C 460.878906 30.554688 458.03125 31.355469 454.351563 31.355469 C 444.695313 31.355469 439.035156 29.824219 436.636719 29.824219 C 431.371094 29.824219 423.378906 34.015625 423.378906 39.269531 C 423.378906 44.527344 430.773438 47.453125 431.773438 47.453125 C 432.171875 47.453125 436.171875 46.523438 437.835938 46.523438 L 443.03125 46.523438 C 451.355469 46.523438 448.558594 43.597656 470.804688 42.199219 C 470.804688 42.199219 471.402344 42.730469 471.402344 43.597656 C 471.402344 44.816406 470.660156 46.789063 468.628906 49.410156 C 467.011719 51.285156 465.210938 53.308594 460.546875 53.308594 "/>
<path style=" stroke:none;fill-rule:nonzero;fill:rgb(0%,0%,0%);fill-opacity:1;" d="M 241.953125 132.605469 C 243.164063 134.996094 244.195313 136.671875 246.273438 136.671875 C 247.140625 136.671875 248.40625 136.273438 248.40625 136.273438 C 250.070313 136.273438 257.265625 138.269531 257.929688 138.269531 C 258.625 138.269531 262.53125 136.238281 265.917969 133.351563 C 269.019531 130.703125 271.652344 127.269531 271.652344 125.359375 C 271.652344 121.703125 268.386719 122.300781 266.390625 116.578125 C 265.714844 114.5625 264.828125 111.09375 258.292969 109.472656 C 256.425781 109.007813 252.285156 108.332031 251.269531 108.332031 C 247.671875 108.332031 246.605469 110.191406 242.476563 111.058594 C 240.078125 111.589844 238.082031 112.386719 238.082031 115.316406 C 238.082031 118.242188 240.078125 118.707031 240.078125 122.367188 C 240.078125 123.964844 239.480469 124.628906 239.480469 126.359375 C 239.480469 128.148438 240.347656 130.320313 241.953125 132.605469 "/>
<path style=" stroke:none;fill-rule:nonzero;fill:rgb(0%,0%,0%);fill-opacity:1;" d="M 487.894531 79.183594 C 484.5 80.78125 466.847656 91.160156 463.117188 93.15625 C 460.785156 94.621094 458.121094 98.148438 458.121094 99.34375 C 458.121094 100.542969 458.722656 102.339844 462.71875 102.339844 C 465.050781 102.339844 469.511719 100.808594 473.640625 99.808594 C 483.167969 97.414063 485.429688 97.347656 487.496094 96.550781 C 489.628906 95.683594 490.359375 95.21875 495.421875 94.621094 C 498.417969 94.15625 500.882813 92.625 502.75 90.894531 C 504.613281 89.164063 505.878906 88.035156 506.679688 84.441406 C 507.210938 82.179688 509.875 78.519531 509.875 75.527344 C 509.875 72.597656 508.210938 70.734375 503.613281 70.734375 C 500.152344 70.734375 498.285156 72.730469 496.222656 74.527344 C 494.15625 76.324219 491.027344 78.054688 487.894531 79.183594 "/>
<g clip-path="url(#clip1)" clip-rule="nonzero">
<path style=" stroke:none;fill-rule:nonzero;fill:rgb(92.96875%,14.892578%,16.868591%);fill-opacity:1;" d="M 48.984375 220.003906 L 22.039063 265.921875 L 167.074219 265.921875 L 194.019531 220.003906 Z M 48.984375 220.003906 "/>
</g>
<g clip-path="url(#clip2)" clip-rule="nonzero">
<path style=" stroke:none;fill-rule:nonzero;fill:rgb(83.59375%,77.734375%,56.054688%);fill-opacity:1;" d="M 194.351563 220.003906 L 167.40625 265.921875 L 312.4375 265.921875 L 339.386719 220.003906 Z M 194.351563 220.003906 "/>
</g>
<g clip-path="url(#clip3)" clip-rule="nonzero">
<path style=" stroke:none;fill-rule:nonzero;fill:rgb(0%,0%,0%);fill-opacity:1;" d="M 312.773438 265.921875 L 457.804688 265.921875 L 484.75 220.003906 L 339.71875 220.003906 Z M 312.773438 265.921875 "/>
</g>
</g>
</svg>
