<svg viewBox="0 0 66 57.1" xmlns="http://www.w3.org/2000/svg" width="2500" height="2163"><path clip-rule="evenodd" d="M0 38.2V0h66v38.2L33 57.1z" fill-rule="evenodd"/><path d="M1.7 1.7v35.5l31.3 18 31.3-18V1.7z" fill="#fff"/><path clip-rule="evenodd" d="M3.4 3.4h59.2v19.2H3.4z" fill="#008c5d" fill-rule="evenodd"/><path clip-rule="evenodd" d="M3.4 24.3v11.9l29.6 17 29.6-17V24.3z" fill="#eb2136" fill-rule="evenodd"/><g fill="#fff"><path clip-rule="evenodd" d="M17.8 20.3V8.7H24V5.6H7.3v3.1h6.2v11.6zM58 20.1c-3.3.6-7.6.8-10.8-.4-2.7-1-4.3-3.4-4.6-5.7-.4-2.9.9-5.4 3.6-7.1 3.1-1.9 8-1.8 11.4-.5v3.2c-2.6-1-6.4-1.9-8.9-.3-1.8 1.2-2.3 3-1.9 4.9.4 1.5 1.8 2.8 3.4 3.3 1.1.3 2.6.4 3.8.3v-2.4h-1.7v-2.9h5.6zM28.2 17.5l-1.5 2.9h-4.4l7.2-14.7h5l7.4 14.7h-4.5l-1.5-2.9zM32 9.3l-2.6 5.2h5.1z" fill-rule="evenodd"/><path d="M37.8 47.5V26.6c0-.1 0-.1-.1-.1h-2.1c-.1 0-.1 0-.1.1v19.7L33 47.6l-2.5-1.4V26.6c0-.1 0-.1-.1-.1h-2.2v21s0 .1.1.1l4.7 2.7h.1l4.7-2.8c0 .1 0 .1 0 0zM24.7 45.6h.1l.1-.1v-2.3s0-.1-.1-.1l-4.5-2.5v-5.5l4.1 1 .1-.1v-2.2l-.1-.1-4-.9v-4.4h4.5c.1 0 .1 0 .1-.1v-1.8c0-.1 0-.1-.1-.1h-6.7c-.1 0-.1 0-.1.1v15.1s0 .1.1.1zM48.5 41.4v-2s0-.1-.1-.1h-.1l-4.4 2.4v-6l4.1-1.1.1-.1v-2.1H48l-4.1.9v-4.8h4.5c.1 0 .1 0 .1-.1v-1.8c0-.1 0-.1-.1-.1h-6.6c-.1 0-.1 0-.1.1v18.7s0 .1.1.1h.1l6.6-4c-.1.1 0 0 0 0zM12.4 38.5l1.8 1.1h.1l.1-.1V26.6c0-.1 0-.1-.1-.1h-1.8c-.1 0-.1 0-.1.1v4.6l-4.4-1v-3.6c0-.1 0-.1-.1-.1h-2V34.8s0 .1.1.1l1.8 1h.1l.1-.1v-3.7l4.4 1.1zM51.9 39.4l2-1.1v-5.2l1.1-.3 3.3 2.9s.1.1.1 0l1.7-1 .1-.1v-.1l-2.8-2.4 2-.5c.7-.2.8-.5.8-1.2v-3.3c-.1-.5-.4-.8-.9-.8H52.1c-.1 0-.1.1-.1.1zM54 28.5h3.9c.2 0 .3.1.3.3v1c0 .2 0 .3-.3.4l-3.9.9z"/></g></svg>