<?xml version="1.0" encoding="UTF-8" standalone="no"?>
<!-- Created with Inkscape (http://www.inkscape.org/) -->
<svg
   xmlns:svg="http://www.w3.org/2000/svg"
   xmlns="http://www.w3.org/2000/svg"
   version="1.0"
   width="500"
   height="63"
   id="svg2"
   xml:space="preserve"><defs
     id="defs6" /><g
     transform="matrix(1.25,0,0,-1.25,-26.757813,1038.295)"
     id="g12"><path
       d="m 351.90457,821.27129 c 0.73712,0 1.13556,-0.25401 1.44436,-0.91144 0.91642,-1.95487 1.83284,-3.90475 2.74926,-5.85463 0.38848,-0.82677 0.88654,-1.14055 1.80545,-1.14055 l 0.72467,0 c 1.09821,0 1.98972,0.88405 1.98972,1.97728 l 0,11.85867 c 0,1.09074 -0.89151,1.97728 -1.98972,1.97728 l -37.84218,0 c -1.1007,0 -1.99222,-0.88654 -1.99222,-1.97728 l 0,-11.85867 c 0,-1.09323 0.89152,-1.97728 1.99222,-1.97728 l 0.72218,0 c 0.91891,0 1.41696,0.31378 1.80544,1.14055 0.91642,1.94988 1.83284,3.89976 2.74926,5.85463 0.31129,0.65743 0.70973,0.91144 1.44436,0.91144 l 5.22708,0 0,-31.80825 c 0,-0.72965 -0.25151,-1.12561 -0.91891,-1.4344 -1.29992,-0.60016 -2.60482,-1.2028 -3.90474,-1.80794 -0.83176,-0.3835 -1.15051,-0.87906 -1.15051,-1.7905 l 0,-0.7172 c 0,-1.09074 0.89401,-1.97728 1.99222,-1.97728 l 21.90941,0 c 1.09821,0 1.98973,0.88654 1.98973,1.97728 l 0,0.7172 c 0,0.91144 -0.31626,1.407 -1.1505,1.7905 -1.30242,0.60514 -2.59985,1.20778 -3.90475,1.80794 -0.66739,0.30879 -0.91891,0.70475 -0.91891,1.4344 l 0,31.80825 5.22708,0 z M 124.92122,797.02101 c -0.33868,0.37603 -0.68482,0.52794 -1.19035,0.52794 l -1.27751,0 c -1.1007,0 -1.99222,-0.88156 -1.99222,-1.97728 l 0,-11.85867 c 0,-1.09074 0.89152,-1.97728 1.99222,-1.97728 l 1.78055,0 c 0.14194,0 0.27891,0.0174 0.41338,0.0548 0.97868,0.26148 1.95736,0.52046 2.93354,0.78194 3.16514,0.83922 5.96919,0.76452 9.07954,-0.24653 11.60466,-3.77028 20.7614,10.12046 12.63813,19.16264 -4.12887,4.59704 -8.25775,9.19409 -12.38662,13.78864 -1.33229,1.4842 -1.20031,3.75782 0.29386,5.08265 1.49416,1.31984 3.78521,1.19035 5.12,-0.29386 1.84529,-2.05696 3.69556,-4.11642 5.54583,-6.17338 0.33619,-0.37603 0.67985,-0.52794 1.18786,-0.52794 l 1.27751,0 c 1.1007,0 1.99222,0.88405 1.99222,1.97728 l 0,11.85867 c 0,1.09074 -0.89152,1.97728 -1.99222,1.97728 l -1.78054,0 c -0.14444,0 -0.27891,-0.0174 -0.41339,-0.0548 -0.97868,-0.25898 -1.95735,-0.52046 -2.93354,-0.77945 -3.16265,-0.84171 -5.96918,-0.76451 -9.07953,0.24405 -11.60467,3.77276 -20.7614,-10.11798 -12.63814,-19.16265 4.12888,-4.59704 8.25775,-9.19409 12.38662,-13.78864 1.3323,-1.4842 1.2028,-3.75782 -0.29136,-5.08015 -1.49666,-1.32234 -3.78771,-1.19284 -5.12,0.29136 l -5.54584,6.17338 z m 260.19362,-8.47439 0,12.95937 15.13837,0 0,-12.95937 c 0,-0.72965 -0.25401,-1.1281 -0.91891,-1.4344 -0.64,-0.29634 -1.27751,-0.5902 -1.91751,-0.88654 -0.83175,-0.3835 -1.14802,-0.87906 -1.14802,-1.7905 l 0,-0.7172 c 0,-1.09074 0.89152,-1.97728 1.99222,-1.97728 l 19.9172,0 c 1.09821,0 1.99222,0.88654 1.99222,1.97728 l 0,0.7172 c 0,0.91144 -0.31876,1.407 -1.153,1.7905 -1.29992,0.60265 -2.60233,1.20529 -3.90475,1.80794 -0.6649,0.30879 -0.91891,0.70226 -0.91891,1.43191 l 0,31.99004 c 0,0.72965 0.25401,1.1256 0.91891,1.4319 1.30242,0.60514 2.60483,1.20529 3.90475,1.80794 0.83424,0.38599 1.153,0.87907 1.153,1.793 l 0,0.71719 c 0,1.09074 -0.89401,1.97728 -1.99222,1.97728 l -19.9172,0 c -1.1007,0 -1.99222,-0.88654 -1.99222,-1.97728 l 0,-0.71719 c 0,-0.91393 0.31627,-1.40701 1.14802,-1.793 0.64,-0.29634 1.27751,-0.59019 1.91751,-0.88654 0.6649,-0.3063 0.91891,-0.70225 0.91891,-1.4319 l 0,-12.96187 -15.13837,0 0,12.96187 c 0,0.72965 0.25401,1.1256 0.91891,1.4319 0.64,0.29635 1.27751,0.5902 1.91502,0.88654 0.83424,0.38599 1.14802,0.87907 1.14802,1.793 l 0,0.71719 c 0,1.09074 -0.88903,1.97728 -1.98973,1.97728 l -19.91471,0 c -1.1007,0 -1.99222,-0.88654 -1.99222,-1.97728 l 0,-0.71719 c 0,-0.91393 0.31378,-1.40701 1.15051,-1.793 1.29992,-0.60265 2.60233,-1.2028 3.90475,-1.80794 0.6649,-0.3063 0.91891,-0.70225 0.91891,-1.4319 l 0,-31.99004 c 0,-0.72965 -0.25401,-1.12312 -0.91891,-1.43191 -1.30242,-0.60265 -2.60483,-1.20529 -3.90475,-1.80794 -0.83673,-0.3835 -1.15051,-0.87906 -1.15051,-1.7905 l 0,-0.7172 c 0,-1.09074 0.89152,-1.97728 1.99222,-1.97728 l 19.91471,0 c 1.1007,0 1.98973,0.88654 1.98973,1.97728 l 0,0.7172 c 0,0.91144 -0.31378,1.407 -1.14802,1.7905 -0.63751,0.29634 -1.27502,0.5902 -1.91502,0.88654 -0.6649,0.3063 -0.91891,0.70475 -0.91891,1.4344 M 22.673127,805.45806 c 0,-9.17666 2.92607,-18.43051 12.653074,-22.15347 4.763891,-1.82288 10.528872,-1.94241 15.429728,-1.06085 4.091517,0.73712 7.418521,2.11424 10.501478,5.00793 1.394553,1.31238 2.537588,2.74677 3.498833,4.39534 0.169339,0.29136 0.298833,0.59517 0.388483,0.91891 0.191751,0.67984 0.201712,1.3049 0.03237,1.98723 -0.381012,1.53899 -1.115642,2.32094 -2.629727,2.80903 -1.524047,0.4856 -2.587394,0.27393 -3.800156,-0.76202 -1.060856,-0.90646 -1.541479,-2.17401 -2.432996,-3.18008 -1.546459,-1.74568 -3.185059,-2.90615 -5.503502,-3.49634 -4.367938,-1.10319 -8.257744,1.07828 -10.752997,4.42521 -2.993307,4.01432 -3.942101,9.47051 -3.20249,14.26677 1.626148,10.5737 10.379456,16.5628 19.571051,9.51284 1.663502,-1.27502 3.050584,-2.80155 4.497432,-4.28327 0.376031,-0.38599 0.771984,-0.48062 1.28498,-0.48062 0.963736,0 1.847783,-0.21416 2.632218,0.68234 0.754553,0.86412 0.483113,1.74568 0.483113,2.68202 l 0,2.80654 0,5.60809 c 0,1.98475 0.298833,4.03424 -2.442957,4.03424 -2.619767,0 -5.072685,-0.9737 -7.724825,-0.82428 -1.312374,0.0722 -2.567471,0.40093 -3.847471,0.60265 -0.64498,0.1021 -1.289961,0.17183 -1.942412,0.20171 -4.731518,0.22412 -9.096965,-0.28887 -13.571985,-1.94739 -9.976031,-3.69557 -13.121245,-12.14257 -13.121245,-21.75253 m 201.002336,19.23486 c 0.83175,0.38599 1.15051,0.87907 1.15051,1.79051 l 0,0.71719 c 0,1.09074 -0.89401,1.97728 -1.99222,1.97728 l -15.93276,0 c -1.1007,0 -1.99222,-0.88654 -1.99222,-1.97728 l 0,-0.71719 c 0,-0.91144 0.31627,-1.40452 1.14802,-1.79051 1.07579,-0.49805 2.1491,-0.99611 3.22241,-1.49167 0.91393,-0.42335 1.1505,-0.96125 0.8442,-1.91253 -1.69089,-5.27938 -3.38179,-10.55378 -5.07517,-15.83066 -2.38818,7.4484 -4.77635,14.89432 -7.16203,22.34272 -0.32124,0.9986 -0.84171,1.37712 -1.89758,1.37712 l -4.86849,0 c -1.05587,0 -1.57883,-0.37852 -1.90008,-1.37712 -2.38568,-7.4484 -4.77385,-14.89432 -7.16202,-22.34272 -1.74319,5.43626 -3.48638,10.87253 -5.22957,16.31128 -0.3063,0.95128 -0.0672,1.48918 0.84669,1.91253 0.72716,0.33619 1.45681,0.67237 2.18397,1.01105 0.83175,0.38599 1.14802,0.87907 1.14802,1.79051 l 0,0.71719 c 0,1.09074 -0.88903,1.97728 -1.98973,1.97728 l -19.9172,0 c -1.1007,0 -1.99222,-0.88654 -1.99222,-1.97728 l 0,-0.71719 c 0,-0.91144 0.31627,-1.40452 1.15051,-1.79051 0.96622,-0.44576 1.92996,-0.89401 2.89369,-1.33977 0.45074,-0.20669 0.69479,-0.4856 0.8467,-0.95377 4.19611,-13.09385 8.39471,-26.1902 12.5933,-39.28654 0.31876,-0.9986 0.83923,-1.37712 1.89759,-1.37712 l 4.86848,0 c 1.05588,0 1.57635,0.37852 1.90008,1.37712 2.38568,7.44841 4.77385,14.8993 7.16203,22.34522 2.38817,-7.44592 4.77385,-14.89681 7.16202,-22.34522 0.32124,-0.9986 0.83922,-1.37712 1.89759,-1.37712 l 4.86848,0 c 1.05588,0 1.57883,0.37852 1.89759,1.37712 4.13385,12.89961 8.27019,25.79424 12.40404,38.69136 0.14942,0.46818 0.39596,0.7446 0.84421,0.95129 1.39455,0.64747 2.7891,1.28996 4.18116,1.93743 m 30.1846,-29.1337 c 1.61867,3.20249 2.19144,6.36265 2.19144,9.89884 0,3.5312 -0.57028,6.69385 -2.18895,9.89385 -1.45432,2.87626 -4.03176,5.91938 -7.76716,5.91938 -3.73541,0 -6.31035,-3.03814 -7.76716,-5.91689 -1.61619,-3.2 -2.18895,-6.36265 -2.18895,-9.89634 0,-3.5337 0.57276,-6.69386 2.18895,-9.89635 1.45183,-2.87626 4.03175,-5.91688 7.76716,-5.91688 3.7354,0 6.31284,3.03564 7.76467,5.91439 m -7.76467,33.61868 c 15.93276,0 23.90163,-7.90661 23.90163,-23.71984 0,-15.81323 -7.96887,-23.72234 -23.90163,-23.72234 -15.93277,0 -23.89915,7.90911 -23.89915,23.72234 0,15.81323 7.96638,23.71984 23.89915,23.71984 M 68.949859,805.45806 c 0,-15.81323 7.966381,-23.72234 23.899144,-23.72234 15.932767,0 23.899147,7.90911 23.899147,23.72234 0,15.81323 -7.96638,23.71984 -23.899147,23.71984 -15.932763,0 -23.899144,-7.90661 -23.899144,-23.71984 m 23.899144,-15.81323 c -3.735409,0 -6.31284,3.04062 -7.76716,5.91688 -1.616186,3.20249 -2.191439,6.36265 -2.191439,9.89635 0,3.53369 0.575253,6.69634 2.19393,9.89634 1.451829,2.87875 4.031751,5.91689 7.764669,5.91689 3.735409,0 6.315331,-3.04312 7.769647,-5.91938 1.6137,-3.2 2.18895,-6.36265 2.18895,-9.89385 0,-3.53619 -0.57525,-6.69635 -2.19144,-9.89884 -1.454316,-2.87875 -4.031748,-5.91439 -7.767157,-5.91439 m 207.223037,25.69712 c 0,3.27471 -2.67455,5.92934 -5.97416,5.92934 l -3.98444,0 0,-11.86117 3.98444,0 c 3.29961,0 5.97416,2.65463 5.97416,5.93183 m 13.72638,-27.70677 c 1.01603,-0.47066 2.03206,-0.94382 3.05059,-1.41448 0.83175,-0.3835 1.14801,-0.87906 1.14801,-1.7905 l 0,-0.7172 c 0,-1.09074 -0.89152,-1.97728 -1.99222,-1.97728 l -13.98288,0 c -1.01105,0 -1.52404,0.3586 -1.87019,1.30241 -2.25868,6.15347 -4.51486,12.30942 -6.77354,18.46537 l -3.26475,0 0,-12.96186 c 0,-0.72965 0.25401,-1.12561 0.9214,-1.43191 0.63751,-0.29634 1.27502,-0.59269 1.91502,-0.88903 0.83175,-0.3835 1.14802,-0.87906 1.14802,-1.7905 l 0,-0.7172 c 0,-1.09074 -0.89401,-1.97728 -1.99222,-1.97728 l -19.9172,0 c -1.09821,0 -1.98973,0.88654 -1.98973,1.97728 l 0,0.7172 c 0,0.91144 0.31627,1.407 1.15051,1.7905 1.29992,0.60514 2.60233,1.20778 3.90475,1.80794 0.6649,0.30879 0.91891,0.70475 0.91891,1.4344 l 0,31.98755 c 0,0.72965 -0.25401,1.1256 -0.91891,1.43439 -1.30242,0.60265 -2.60483,1.20529 -3.90475,1.80794 -0.83424,0.38599 -1.15051,0.87907 -1.15051,1.79051 l 0,0.71719 c 0,1.09074 0.89152,1.97728 1.98973,1.97728 l 21.90942,0 c 13.27813,0 19.9172,-4.61198 19.9172,-13.83595 0,-5.34911 -2.23378,-9.14926 -6.69635,-11.39549 1.88514,-5.13992 3.77028,-10.27984 5.65541,-15.41977 0.15938,-0.43579 0.40343,-0.69727 0.82428,-0.89151"
       id="path406"
       style="fill:#e7e7e7;fill-opacity:1;fill-rule:nonzero;stroke:none" /><path
       d="m 140.8615,780.41899 c -1.48311,-0.0433 -3.00983,0.18652 -4.59143,0.70039 -2.91635,0.948 -5.43526,1.02079 -8.40467,0.23334 -0.97863,-0.26213 -1.90263,-0.51726 -2.87938,-0.77821 -0.24944,-0.0692 -0.53331,-0.0777 -0.77821,-0.0777 l -1.78989,0 c -1.77596,0 -3.19066,1.41465 -3.19066,3.19066 l 0,11.90662 c 0,1.77785 1.41849,3.19066 3.19066,3.19066 l 1.32296,0 c 0.75746,0 1.59004,-0.36635 2.10117,-0.93385 l 5.52529,-6.14786 c 0.87785,-0.97793 2.43523,-1.10718 3.42413,-0.23334 0.98542,0.87209 1.0344,2.36735 0.15564,3.3463 -4.12903,4.59473 -8.24467,9.17728 -12.37354,13.77432 -4.43246,4.93522 -4.24373,11.40575 -1.24514,15.95331 2.99859,4.54756 8.8487,7.27077 15.1751,5.21401 2.91712,-0.94591 5.43918,-1.02271 8.40467,-0.23334 0.97476,0.25861 1.89877,0.51872 2.87937,0.77821 0.24557,0.0682 0.53259,0.15564 0.77821,0.15564 l 1.78989,0 c 1.77596,0 3.26848,-1.49247 3.26848,-3.26848 l 0,-11.8288 c 0,-1.77693 -1.49441,-3.26848 -3.26848,-3.26848 l -1.32296,0 c -0.75871,0 -1.59332,0.36582 -2.10117,0.93385 -1.85061,2.05734 -3.67958,4.16825 -5.52529,6.22568 -0.88067,0.97925 -2.36078,1.0262 -3.3463,0.15565 -0.98726,-0.87536 -1.11171,-2.29011 -0.23346,-3.26849 4.12902,-4.59472 8.24466,-9.17727 12.37354,-13.77432 4.43258,-4.934 4.24369,-11.40579 1.24513,-15.9533 -2.24892,-3.41066 -6.1343,-5.86198 -10.58366,-5.99222 z m -97.97665,0.0777 c -2.75647,0.15315 -5.48405,0.66557 -8.015564,1.63424 -5.149052,1.97077 -8.595733,5.4853 -10.661479,9.6498 -2.065746,4.16451 -2.801556,8.97452 -2.801556,13.6965 0,4.94217 0.789583,9.67219 2.957198,13.6965 2.167615,4.0243 5.73244,7.24164 10.972763,9.18288 4.64568,1.72177 9.226975,2.2535 14.085603,2.02335 0.703928,-0.0324 1.41564,-0.0471 2.101167,-0.15565 1.36266,-0.21466 2.588158,-0.55944 3.735409,-0.62256 2.302317,-0.12975 4.695085,0.85603 7.626459,0.85603 0.842123,0 1.562183,-0.15988 2.178989,-0.54475 0.616805,-0.38495 1.041018,-0.97726 1.245136,-1.55642 0.408233,-1.15833 0.311284,-2.26142 0.311284,-3.19066 l 0,-5.60312 0,-2.80155 c 0,-0.34665 0.037,-0.85556 0,-1.4786 -0.03701,-0.62304 -0.290256,-1.45322 -0.856031,-2.10117 -0.579068,-0.66179 -1.370076,-1.00251 -2.023347,-1.08949 -0.65327,-0.0869 -1.167706,0 -1.55642,0 -0.667652,0 -1.566737,0.22761 -2.178988,0.85603 -1.467799,1.50318 -2.811239,3.01681 -4.357977,4.20233 -4.306373,3.303 -8.100537,3.4118 -11.206226,1.71207 -3.105688,-1.69974 -5.614356,-5.44098 -6.381323,-10.42802 -0.693028,-4.49417 0.292015,-9.62876 3.03502,-13.30739 2.277434,-3.05477 5.601897,-4.93226 9.416342,-3.96888 2.073802,0.52792 3.387391,1.49013 4.824903,3.11285 0.69258,0.78157 1.20966,2.10776 2.568093,3.26848 1.424471,1.21679 3.272378,1.58075 5.058366,1.01167 1.774332,-0.57199 2.976371,-1.84903 3.424125,-3.65759 0.215359,-0.86778 0.243324,-1.78318 0,-2.64591 -0.118761,-0.42888 -0.324523,-0.86622 -0.544747,-1.24514 -1.019871,-1.74909 -2.257567,-3.27852 -3.735409,-4.66926 -3.266973,-3.06642 -6.884978,-4.52734 -11.128405,-5.29183 -2.544737,-0.45773 -5.336915,-0.698 -8.093385,-0.54474 z m 49.96109,0 c -8.174474,0 -14.552019,2.05427 -18.832685,6.3035 -4.280666,4.24922 -6.303502,10.55925 -6.303502,18.67704 0,8.11779 2.022789,14.42844 6.303502,18.67704 4.280714,4.24861 10.658279,6.30351 18.832685,6.30351 8.17441,0 14.55197,-2.0549 18.83269,-6.30351 4.28071,-4.2486 6.3035,-10.55925 6.3035,-18.67704 0,-8.11779 -2.02284,-14.42782 -6.3035,-18.67704 -4.28067,-4.24923 -10.65822,-6.3035 -18.83269,-6.3035 z m 83.65759,0 c -0.67911,0 -1.36115,0.12053 -1.94553,0.54474 -0.58437,0.4243 -0.96164,1.06773 -1.16731,1.71207 -4.1986,13.09634 -8.41087,26.20565 -12.60701,39.29961 -0.0751,0.23159 0.0618,0.056 -0.15564,0.15564 -0.96535,0.4465 -1.91551,0.87829 -2.87938,1.32296 -0.54736,0.25326 -1.05284,0.62563 -1.40077,1.16731 -0.34794,0.54169 -0.46693,1.18871 -0.46693,1.78988 l 0,0.70039 c 0,1.77602 1.4147,3.26849 3.19066,3.26849 l 19.92218,0 c 1.77597,0 3.26848,-1.49439 3.26848,-3.26849 l 0,-0.70039 c 0,-0.60117 -0.11978,-1.24847 -0.46692,-1.78988 -0.34716,-0.54141 -0.85464,-0.91385 -1.40078,-1.16731 -0.7303,-0.34015 -1.45282,-0.67594 -2.17899,-1.01168 -0.31059,-0.14393 -0.26622,-0.15165 -0.23346,-0.0777 0.0327,0.074 -0.0249,0.007 0.0778,-0.31129 1.34133,-4.18495 2.62752,-8.346 3.96887,-12.52918 1.98964,6.20504 4.00469,12.39389 5.99222,18.59922 0.20736,0.64458 0.58316,1.28882 1.16731,1.71206 0.58416,0.42325 1.26731,0.54475 1.94553,0.54475 l 4.8249,0 c 0.67822,0 1.43964,-0.12103 2.02335,-0.54475 0.58371,-0.42382 0.88242,-1.06837 1.08949,-1.71206 1.98753,-6.20533 4.00258,-12.39418 5.99222,-18.59922 1.29116,4.02538 2.60099,8.03439 3.89105,12.06226 0.103,0.3199 0.045,0.30797 0.0778,0.23333 0.0328,-0.0744 -0.001,0.0125 -0.31128,0.15565 -1.07477,0.49623 -2.11554,0.98084 -3.19066,1.4786 -0.54614,0.25346 -1.05363,0.6259 -1.40078,1.16731 -0.34716,0.54141 -0.46693,1.18871 -0.46693,1.78988 l 0,0.70039 c 0,1.77602 1.49252,3.26849 3.26848,3.26849 l 15.87549,0 c 1.77502,0 3.26848,-1.49058 3.26848,-3.26849 l 0,-0.70039 c 0,-0.60232 -0.11878,-1.24899 -0.46692,-1.78988 -0.34802,-0.54089 -0.85509,-0.91408 -1.40078,-1.16731 -1.39483,-0.64874 -2.81002,-1.2991 -4.20234,-1.94553 -0.22038,-0.1016 -0.0844,0.0675 -0.15564,-0.15564 -4.13391,-12.8973 -8.23976,-25.77766 -12.37354,-38.67704 -0.20597,-0.64526 -0.58305,-1.2883 -1.16731,-1.71207 -0.58427,-0.42364 -1.26731,-0.54462 -1.94553,-0.54462 l -4.90272,0 c -0.67911,0 -1.3617,0.12053 -1.94553,0.54475 -0.58382,0.42432 -0.96053,1.06927 -1.16731,1.71206 -1.98978,6.20586 -4.00309,12.39446 -5.99222,18.59922 -1.98717,-6.19707 -3.92924,-12.40131 -5.9144,-18.59922 -0.20846,-0.64304 -0.50589,-1.28877 -1.08949,-1.71206 -0.5836,-0.4233 -1.34513,-0.54475 -2.02335,-0.54475 l -4.8249,0 z m 69.57198,0 c -8.17446,0 -14.47421,2.05427 -18.75486,6.3035 -4.28065,4.24922 -6.38132,10.55925 -6.38132,18.67704 0,8.11779 2.10062,14.42844 6.38132,18.67704 4.2807,4.24861 10.58044,6.30351 18.75486,6.30351 8.17442,0 14.55136,-2.05495 18.83269,-6.30351 4.28132,-4.24855 6.38132,-10.55917 6.38132,-18.67704 0,-8.11786 -2.10005,-14.42787 -6.38132,-18.67704 -4.28128,-4.24918 -10.65822,-6.3035 -18.83269,-6.3035 z m 26.14786,0 c -1.77501,0 -3.26848,1.41465 -3.26848,3.19066 l 0,0.77821 c 0,0.60117 0.11904,1.16983 0.46693,1.71206 0.34791,0.54223 0.85167,0.9149 1.40078,1.16732 1.30166,0.60595 2.58744,1.18918 3.89105,1.78988 0.20171,0.0936 0.17282,0.18229 0.15564,0.15564 -0.0174,-0.0267 0.0777,-0.0633 0.0777,0.15564 l 0,31.98444 c 0,0.21889 -0.0949,0.26018 -0.0777,0.23334 0.0174,-0.0267 0.0461,-0.0149 -0.15564,0.0777 -1.30242,0.60265 -2.59058,1.18699 -3.89105,1.78989 -0.54737,0.25326 -1.05284,0.62563 -1.40078,1.16731 -0.34794,0.54169 -0.46693,1.18871 -0.46693,1.78989 l 0,0.70038 c 0,1.77602 1.49347,3.26849 3.26848,3.26849 l 21.86771,0 c 6.78467,0 11.99985,-1.20529 15.64202,-3.73541 3.64217,-2.53012 5.52529,-6.44816 5.52529,-11.36187 0,-5.23913 -2.44158,-9.15456 -6.53696,-11.67315 1.80044,-4.90898 3.64703,-9.7992 5.44747,-14.70817 0.073,-0.19922 -0.0433,-0.1417 0.15564,-0.23334 1.01758,-0.47138 2.01874,-0.93116 3.03502,-1.40078 0.54789,-0.25261 1.05366,-0.62538 1.40078,-1.16731 0.34712,-0.54194 0.46693,-1.11089 0.46693,-1.71207 l 0,-0.77821 c 0,-1.77601 -1.4147,-3.19066 -3.19067,-3.19066 l -14.00778,0 c -0.65419,0 -1.37428,0.0687 -1.94552,0.46693 -0.57125,0.39814 -0.865,1.02213 -1.0895,1.63424 -2.1625,5.89144 -4.29706,11.77219 -6.45914,17.66537 l -1.16732,0 0,-11.75097 c 0,-0.2189 0.0174,-0.18354 0,-0.15565 -0.0174,0.0279 -0.0463,0.0149 0.15564,-0.0777 l 0.0777,0 c 0.63751,-0.29635 1.22883,-0.63804 1.86771,-0.93385 0.54788,-0.25262 1.05365,-0.62539 1.40077,-1.16732 0.34712,-0.54193 0.46693,-1.11089 0.46693,-1.71206 l 0,-0.77821 c 0,-1.77791 -1.49347,-3.19066 -3.26848,-3.19066 l -19.84436,0 z m 56.49806,0 c -1.77502,0 -3.19066,1.41275 -3.19066,3.19066 l 0,0.77821 c 0,0.60232 0.11903,1.17063 0.46692,1.71206 0.34799,0.54144 0.85332,0.9149 1.40078,1.16732 1.30224,0.6062 2.59103,1.18967 3.89105,1.78988 0.20246,0.0936 0.17333,0.18328 0.15564,0.15564 -0.0174,-0.0276 0,-0.0648 0,0.15564 l 0,30.58366 -3.96887,0 c -0.22238,0 -0.1793,-0.0149 -0.15564,0 0.0249,0.0149 -0.062,-0.0356 -0.15564,-0.23334 -0.91677,-1.95561 -1.80732,-3.88669 -2.72374,-5.83657 -0.25617,-0.54517 -0.62376,-1.0576 -1.16731,-1.40078 -0.54355,-0.34319 -1.18729,-0.46693 -1.78989,-0.46693 l -0.70038,0 c -1.77407,0 -3.26849,1.49155 -3.26849,3.26848 l 0,11.8288 c 0,1.77601 1.49252,3.26848 3.26849,3.26848 l 37.82101,0 c 1.77501,0 3.26848,-1.49247 3.26848,-3.26848 l 0,-11.8288 c 0,-1.77693 -1.49538,-3.26848 -3.26848,-3.26848 l -0.70039,0 c -0.6026,0 -1.24633,0.12377 -1.78988,0.46693 -0.54356,0.34318 -0.91115,0.85561 -1.16732,1.40078 -0.91642,1.94988 -1.80697,3.88096 -2.72374,5.83657 -0.0924,0.19673 -0.10235,0.24903 -0.0777,0.23334 0.0249,-0.0149 -0.01,0 -0.23334,0 l -3.96887,0 0,-30.58366 c 0,-0.22039 0.0174,-0.18328 0,-0.15564 -0.0174,0.0276 -0.0468,-0.062 0.15564,-0.15564 1.30777,-0.60148 2.66638,-1.1847 3.96887,-1.78988 0.54911,-0.25242 1.05286,-0.62509 1.40078,-1.16732 0.34792,-0.54223 0.46693,-1.11089 0.46693,-1.71206 l 0,-0.77821 c 0,-1.77601 -1.49347,-3.19066 -3.26849,-3.19066 l -21.94552,0 z m 38.44358,0 c -1.77596,0 -3.19066,1.41465 -3.19066,3.19066 l 0,0.77821 c 0,0.60003 0.11903,1.16903 0.46692,1.71206 0.34782,0.54303 0.85003,0.91488 1.40078,1.16732 1.30047,0.60289 2.58864,1.26505 3.89105,1.8677 0.20296,0.0941 0.17333,0.10534 0.15564,0.0777 -0.0174,-0.0276 0,-0.0633 0,0.15564 l 0,31.98443 c 0,0.2189 -0.0174,0.26108 0,0.23334 0.0174,-0.0276 0.0451,-0.0149 -0.15564,0.0777 -1.30002,0.60401 -2.58938,1.18641 -3.89105,1.78988 -0.54903,0.25326 -1.05296,0.62429 -1.40078,1.16732 -0.34781,0.54303 -0.46692,1.189 -0.46692,1.78988 l 0,0.70039 c 0,1.77601 1.4147,3.26848 3.19066,3.26848 l 19.92218,0 c 1.77596,0 3.26848,-1.49438 3.26848,-3.26848 l 0,-0.70039 c 0,-0.60088 -0.11978,-1.24713 -0.46693,-1.78988 -0.34704,-0.54276 -0.85296,-0.91386 -1.40077,-1.16732 -0.63995,-0.29749 -1.30685,-0.56028 -1.94553,-0.85603 -0.20071,-0.0924 -0.17332,-0.10534 -0.15564,-0.0777 0.0174,0.0276 0,-0.0149 0,-0.23333 l 0,-11.67316 12.607,0 0,11.67316 c 0,0.21889 -0.0174,0.26108 0,0.23333 0.0174,-0.0276 0.0451,-0.0149 -0.15564,0.0777 -0.63868,0.29575 -1.3042,0.55909 -1.94552,0.85603 -0.54615,0.25346 -1.05366,0.62538 -1.40078,1.16732 -0.34712,0.54193 -0.46693,1.18786 -0.46693,1.78988 l 0,0.70039 c 0,1.77601 1.49252,3.26848 3.26848,3.26848 l 19.92218,0 c 1.77502,0 3.19066,-1.49057 3.19066,-3.26848 l 0,-0.70039 c 0,-0.60317 -0.11803,-1.24815 -0.46692,-1.78988 -0.34876,-0.54174 -0.85384,-0.91426 -1.40078,-1.16732 -1.30166,-0.60347 -2.59103,-1.18587 -3.89105,-1.78988 -0.20072,-0.0924 -0.17332,-0.10534 -0.15564,-0.0777 0.0174,0.0276 -0.0777,-0.0149 -0.0777,-0.23334 l 0,-31.98443 c 0,-0.2189 0.0956,-0.18329 0.0777,-0.15564 -0.0174,0.0276 -0.0473,0.0174 0.15564,-0.0777 1.30241,-0.60265 2.59058,-1.26481 3.89105,-1.8677 0.54868,-0.25222 1.05202,-0.62559 1.40078,-1.16732 0.34876,-0.54173 0.46692,-1.10974 0.46692,-1.71206 l 0,-0.77821 c 0,-1.77791 -1.41564,-3.19066 -3.19066,-3.19066 l -19.92218,0 c -1.77596,0 -3.26848,1.41465 -3.26848,3.19066 l 0,0.77821 c 0,0.60117 0.11978,1.17013 0.46693,1.71206 0.34712,0.54193 0.85289,0.9147 1.40078,1.16732 0.64132,0.29694 1.30684,0.6381 1.94552,0.93385 0.19947,0.0919 0.17283,0.10459 0.15564,0.0777 -0.0174,-0.0266 0,-0.0632 0,0.15565 l 0,11.75097 -12.607,0 0,-11.75097 c 0,-0.2189 0.0174,-0.18229 0,-0.15565 -0.0174,0.0267 -0.0438,0.0149 0.15564,-0.0777 0.63868,-0.29575 1.30558,-0.63637 1.94553,-0.93385 0.54952,-0.25262 1.05373,-0.62457 1.40077,-1.16732 0.34705,-0.54275 0.46693,-1.11203 0.46693,-1.71206 l 0,-0.77821 c 0,-1.7741 -1.49252,-3.19066 -3.26848,-3.19066 l -19.92218,0 z m -226.30351,2.41245 c 3.6213,0.0897 6.64488,2.11586 8.4825,4.90272 2.45015,3.71584 2.67901,8.73229 -1.01168,12.84047 -4.12887,4.59704 -8.24482,9.17994 -12.37354,13.77432 -1.78635,1.99002 -1.61197,5.07395 0.38911,6.84825 2.0028,1.76914 5.13716,1.60005 6.92607,-0.38911 1.84487,-2.05649 3.67535,-4.09127 5.52529,-6.14786 0.16453,-0.18403 -0.0239,-0.0777 0.23346,-0.0777 l 1.32296,0 c 0.42733,0 0.70039,0.29086 0.70039,0.70038 l 0,11.8288 c 0,0.40546 -0.27496,0.70039 -0.70039,0.70039 l -1.78989,0 c -0.0433,0 -0.0544,0.007 -0.0778,0 -0.97675,-0.25849 -1.97959,-0.51885 -2.95719,-0.77821 -3.35981,-0.89418 -6.50187,-0.75993 -9.80545,0.31128 -5.27827,1.716 -9.8456,-0.56437 -12.29572,-4.28015 -2.45013,-3.71579 -2.67914,-8.73102 1.01167,-12.84047 4.12887,-4.59704 8.24482,-9.25776 12.37354,-13.85214 1.78583,-1.98946 1.6138,-5.07567 -0.3891,-6.84825 -2.00441,-1.77096 -5.13933,-1.60137 -6.92607,0.3891 l -5.52529,6.22569 c -0.16623,0.18452 0.0202,0.0777 -0.23347,0.0777 l -1.32296,0 c -0.42922,0 -0.70038,-0.2868 -0.70038,-0.70039 l 0,-11.90661 c 0,-0.40547 0.27495,-0.70039 0.70038,-0.70039 l 1.78989,0 c 0.039,0 0.0583,-0.005 0.0778,0 0.9806,0.262 1.98345,0.51738 2.9572,0.77821 3.36086,0.89112 6.50109,0.84064 9.80545,-0.23334 1.31955,-0.42873 2.60613,-0.65248 3.81322,-0.62257 z m -97.821008,0.0777 c 2.542264,-0.14194 5.114698,0.0431 7.470817,0.46693 3.939609,0.70975 6.984328,2.02611 9.883269,4.74708 1.311263,1.23401 2.365863,2.49867 3.268482,4.04669 0.118463,0.20371 0.172925,0.40398 0.233463,0.62257 0.140178,0.49696 0.20114,0.9039 0.07782,1.40078 -0.314269,1.26942 -0.536043,1.46351 -1.789883,1.86771 -1.262105,0.40212 -1.64486,0.38818 -2.645914,-0.46693 -0.763279,-0.6522 -1.166354,-1.88227 -2.25681,-3.11284 -1.655406,-1.86865 -3.584774,-3.23858 -6.14786,-3.89105 -4.92143,-1.243 -9.349185,1.26364 -12.062257,4.90272 -3.243609,4.35001 -4.210318,10.15456 -3.424124,15.25292 0.859181,5.58665 3.573237,10.11997 7.548638,12.29572 3.975401,2.17575 9.12256,1.72362 14.007782,-2.02335 1.780266,-1.36452 3.165542,-2.89773 4.59144,-4.35797 0.139804,-0.14344 0.03075,-0.0777 0.389105,-0.0777 0.575021,0 1.019341,-0.10783 1.245136,-0.0777 0.225793,0.0301 0.261559,0.0767 0.466926,0.31129 0.188788,0.21615 0.217551,0.27689 0.233463,0.54475 0.01594,0.26785 -0.07782,0.73326 -0.07782,1.32295 l 0,2.80156 0,5.60311 c 0,1.0555 0.04998,1.97202 -0.07782,2.33463 -0.0639,0.18129 -0.135172,0.17208 -0.233463,0.23334 -0.09829,0.0613 -0.327259,0.15564 -0.856031,0.15564 -2.308159,0 -4.780137,-0.94732 -7.782101,-0.77821 -1.477496,0.0812 -2.771531,0.43388 -3.968872,0.62257 -0.604434,0.0956 -1.188908,0.12825 -1.789883,0.15564 -4.604407,0.21815 -8.769571,-0.27243 -13.07393,-1.8677 -4.735709,-1.75432 -7.750806,-4.56781 -9.649806,-8.09339 -1.898999,-3.52558 -2.723735,-7.78357 -2.723735,-12.45136 0,-4.45467 0.739053,-8.91968 2.568093,-12.607 1.829041,-3.68732 4.760569,-6.65249 9.338522,-8.40467 2.232377,-0.85422 4.69509,-1.33678 7.237354,-1.4786 z m 49.805448,0 c 7.75829,0 13.35709,1.94448 17.0428,5.60312 3.68572,3.65863 5.60311,9.19172 5.60311,16.88716 0,7.69544 -1.91744,13.22915 -5.60311,16.88716 -3.68567,3.65801 -9.28444,5.52529 -17.0428,5.52529 -7.758356,0 -13.357134,-1.86728 -17.042802,-5.52529 -3.685668,-3.65801 -5.603113,-9.19172 -5.603113,-16.88716 0,-7.69544 1.917398,-13.22853 5.603113,-16.88716 3.685716,-3.65864 9.284513,-5.60312 17.042802,-5.60312 z m 83.65759,0 4.8249,0 c 0.37766,0 0.52321,0.0623 0.54475,0.0777 0.0214,0.0149 0.0404,0.11132 0.15564,0.46693 2.38573,7.44858 4.77131,14.88856 7.15953,22.33463 l 1.24514,3.73541 1.16731,-3.73541 c 2.3883,-7.44632 4.77147,-14.88655 7.15954,-22.33463 0.11445,-0.35581 0.21339,-0.45234 0.23346,-0.46693 0.0202,-0.0149 0.0877,-0.0777 0.46693,-0.0777 l 4.90272,0 c 0.37766,0 0.44606,0.0628 0.46693,0.0777 0.0209,0.0149 0.12068,0.11356 0.23346,0.46693 4.13393,12.89983 8.23975,25.78009 12.37354,38.67704 0.22761,0.71329 0.88024,1.40026 1.55642,1.71206 1.3968,0.64852 2.73522,1.29933 4.12451,1.94553 0.28606,0.13273 0.36981,0.20345 0.38911,0.23334 0.0199,0.0301 0.0777,0.0799 0.0777,0.3891 l 0,0.70039 c 0,0.40357 -0.35681,0.70039 -0.77821,0.70039 l -15.87549,0 c -0.42544,0 -0.77821,-0.29492 -0.77821,-0.70039 l 0,-0.70039 c 0,-0.31026 0.0589,-0.35962 0.0778,-0.3891 0.0189,-0.0294 0.1035,-0.10086 0.38911,-0.23334 1.07647,-0.49836 2.11881,-1.06153 3.19066,-1.55642 0.60373,-0.27966 1.17554,-0.63584 1.4786,-1.32296 0.30305,-0.68712 0.2033,-1.46978 0,-2.10117 -1.69084,-5.27923 -3.36478,-10.52018 -5.05824,-15.79729 l -1.16732,-3.73541 -1.24514,3.73541 c -2.38814,7.44833 -4.77375,14.8859 -7.15953,22.33463 -0.11418,0.35491 -0.13485,0.37402 -0.15564,0.38911 -0.0209,0.0149 -0.1671,0.0777 -0.54475,0.0777 l -4.8249,0 c -0.37766,0 -0.44532,-0.0622 -0.46693,-0.0777 -0.0217,-0.0149 -0.11958,-0.0351 -0.23346,-0.38911 -2.38578,-7.44873 -4.77139,-14.8863 -7.15953,-22.33463 l -1.24514,-3.73541 -1.16731,3.73541 c -1.7432,5.43627 -3.47079,10.82574 -5.21401,16.26459 -0.20361,0.63233 -0.3042,1.41465 0,2.10117 0.30419,0.68652 0.87526,1.12129 1.4786,1.40078 0.72815,0.33663 1.45496,0.67446 2.17898,1.01167 0.28562,0.13248 0.3702,0.20395 0.38911,0.23334 0.0189,0.0294 0.0778,0.0789 0.0778,0.3891 l 0,0.70039 c 0,0.40739 -0.35277,0.70039 -0.77821,0.70039 l -19.92218,0 c -0.42543,0 -0.70039,-0.29492 -0.70039,-0.70039 l 0,-0.70039 c 0,-0.31026 0.0591,-0.35989 0.0778,-0.3891 0.0187,-0.0291 0.0244,-0.10061 0.31129,-0.23334 0.96859,-0.44685 1.99508,-0.95577 2.9572,-1.40078 0.68403,-0.31367 1.24991,-1.00726 1.4786,-1.71206 4.19607,-13.09375 8.4084,-26.12545 12.607,-39.22179 0.11308,-0.35427 0.21332,-0.45231 0.23346,-0.46693 0.0202,-0.0149 0.0877,-0.0777 0.46693,-0.0777 z m 69.57198,0 c 7.7583,0 13.35646,1.94443 17.04281,5.60312 3.68635,3.65868 5.60311,9.19179 5.60311,16.88716 0,7.69536 -1.91681,13.2291 -5.60311,16.88716 -3.68631,3.65806 -9.28446,5.52529 -17.04281,5.52529 -7.75834,0 -13.35712,-1.86728 -17.0428,-5.52529 -3.68568,-3.65801 -5.60311,-9.19172 -5.60311,-16.88716 0,-7.69544 1.91738,-13.22853 5.60311,-16.88716 3.68573,-3.65864 9.28451,-5.60312 17.0428,-5.60312 z m 26.14786,0 19.84436,0 c 0.42141,0 0.77821,0.29682 0.77821,0.70039 l 0,0.77821 c 0,0.31027 -0.0588,0.35952 -0.0777,0.38911 -0.0199,0.0296 -0.0274,0.1026 -0.31129,0.23334 -0.64112,0.29686 -1.30801,0.55969 -1.94552,0.85603 -0.46544,0.21366 -0.93331,0.52674 -1.24514,1.01167 -0.31183,0.48493 -0.3891,1.04567 -0.3891,1.55642 l 0,12.99611 0,1.24514 1.24513,0 3.26848,0 0.85603,0 0.31129,-0.77821 c 2.25878,-6.15623 4.5119,-12.36831 6.77043,-18.5214 0.12152,-0.33171 0.20893,-0.372 0.23334,-0.38911 0.0249,-0.0174 0.11007,-0.0777 0.46692,-0.0777 l 14.00778,0 c 0.42544,0 0.70039,0.29493 0.70039,0.70039 l 0,0.77821 c 0,0.31027 -0.0588,0.35952 -0.0777,0.38911 -0.0199,0.0296 -0.0274,0.1026 -0.31129,0.23334 -1.02076,0.4717 -2.09835,0.93084 -3.11284,1.40078 -0.64279,0.29666 -1.23271,0.96191 -1.4786,1.63424 -1.88513,5.13992 -3.71797,10.26863 -5.60311,15.40856 l -0.38911,1.01167 1.01155,0.54512 c 4.10432,2.06591 5.99222,5.27338 5.99222,10.27237 0,4.31027 -1.4389,7.25666 -4.4358,9.33853 -2.99689,2.08186 -7.74778,3.19066 -14.24124,3.19066 l -21.86771,0 c -0.4214,0 -0.77821,-0.29493 -0.77821,-0.70039 l 0,-0.70039 c 0,-0.31026 0.059,-0.3599 0.0777,-0.38911 0.0199,-0.0291 0.1021,-0.1006 0.38911,-0.23333 1.29937,-0.6024 2.58863,-1.26506 3.89105,-1.86771 0.46321,-0.21516 0.93479,-0.52736 1.24513,-1.01167 0.31034,-0.48431 0.38911,-1.04567 0.38911,-1.55642 l 0,-31.98444 c 0,-0.51075 -0.0787,-1.07211 -0.38911,-1.55642 -0.31034,-0.48431 -0.78192,-0.79656 -1.24513,-1.01167 -1.30122,-0.59961 -2.59288,-1.18557 -3.89105,-1.78989 -0.28514,-0.13098 -0.37033,-0.2042 -0.38911,-0.23333 -0.0199,-0.0294 -0.0777,-0.0789 -0.0777,-0.38911 l 0,-0.77821 c 0,-0.40546 0.35681,-0.70039 0.77821,-0.70039 z m 56.49806,0 21.94552,0 c 0.42141,0 0.70039,0.29493 0.70039,0.70039 l 0,0.77821 c 0,0.31027 0.0199,0.35982 0,0.38911 -0.0199,0.0294 -0.10409,0.10235 -0.3891,0.23334 -1.30234,0.60508 -2.58901,1.19104 -3.89105,1.78988 -0.46496,0.21516 -0.9348,0.52637 -1.24514,1.01167 -0.31034,0.48531 -0.3891,1.04709 -0.3891,1.55642 l 0,31.8288 0,1.24513 1.24513,0 5.21401,0 c 0.51302,0 1.07109,-0.0822 1.55642,-0.3891 0.48533,-0.30693 0.79529,-0.78444 1.01167,-1.24514 0.91608,-1.95411 1.80732,-3.88669 2.72374,-5.83657 0.13223,-0.2816 0.20121,-0.36871 0.23334,-0.38911 0.0324,-0.0199 0.15066,0 0.46692,0 l 0.70039,0 c 0.42332,0 0.77821,0.29087 0.77821,0.70039 l 0,11.82879 c 0,0.40547 -0.3568,0.70039 -0.77821,0.70039 l -37.82101,0 c -0.42544,0 -0.70039,-0.29492 -0.70039,-0.70039 l 0,-11.82879 c 0,-0.40952 0.27306,-0.70039 0.70039,-0.70039 l 0.70039,0 c 0.31631,0 0.4346,-0.0199 0.46693,0 0.0324,0.0199 0.1011,0.10758 0.23333,0.38911 0.91643,1.94988 1.80767,3.88246 2.72374,5.83657 0.21765,0.45968 0.52722,0.93876 1.01167,1.24514 0.48446,0.30638 1.04417,0.3891 1.55642,0.3891 l 5.29183,0 1.24514,0 0,-1.24513 0,-31.8288 c 0,-0.50933 -0.15664,-1.07111 -0.46693,-1.55642 -0.31034,-0.4853 -0.70235,-0.79654 -1.16731,-1.01167 -1.29983,-0.60011 -2.67127,-1.18582 -3.96887,-1.78988 -0.28429,-0.13099 -0.29196,-0.20346 -0.31129,-0.23334 -0.0199,-0.0301 -0.0777,-0.0799 -0.0777,-0.38911 l 0,-0.77821 c 0,-0.40357 0.27898,-0.70039 0.70038,-0.70039 z m 38.44358,0 19.92218,0 c 0.42544,0 0.77821,0.29301 0.77821,0.70039 l 0,0.77821 c 0,0.31141 -0.0595,0.36035 -0.0777,0.38911 -0.0174,0.0289 -0.10434,0.1026 -0.3891,0.23334 -0.63507,0.29519 -1.22639,0.55909 -1.86771,0.85603 -0.46538,0.21441 -0.93482,0.52677 -1.24513,1.01167 -0.31032,0.48491 -0.46693,1.04567 -0.46693,1.55642 l 0,12.99611 0,1.24514 1.32296,0 15.09727,0 1.24514,0 0,-1.24514 0,-12.99611 c 0,-0.51075 -0.0787,-1.07151 -0.3891,-1.55642 -0.31032,-0.4849 -0.77976,-0.79728 -1.24514,-1.01167 -0.64132,-0.29694 -1.22903,-0.56029 -1.86771,-0.85603 -0.28386,-0.13099 -0.37015,-0.20396 -0.3891,-0.23334 -0.0199,-0.0296 -0.0777,-0.0789 -0.0777,-0.38911 l 0,-0.77821 c 0,-0.40546 0.35277,-0.70039 0.77821,-0.70039 l 19.92218,0 c 0.42141,0 0.70039,0.29682 0.70039,0.70039 l 0,0.77821 c 0,0.30912 -0.0588,0.35932 -0.0777,0.38911 -0.0199,0.0299 -0.0256,0.1021 -0.31128,0.23334 -1.29937,0.60239 -2.66646,1.18723 -3.96887,1.78988 -0.46205,0.21466 -0.93415,0.52771 -1.24514,1.01167 -0.31098,0.48396 -0.3891,1.04567 -0.3891,1.55642 l 0,31.98444 c 0,0.51075 0.0782,1.07184 0.3891,1.55642 0.31094,0.48458 0.78093,0.79783 1.24514,1.01167 1.3048,0.60626 2.67069,1.26588 3.96887,1.86771 0.2873,0.13298 0.29211,0.2037 0.31128,0.23334 0.0199,0.0299 0.0777,0.0784 0.0777,0.3891 l 0,0.70039 c 0,0.40357 -0.27898,0.70039 -0.70039,0.70039 l -19.92218,0 c -0.42544,0 -0.77821,-0.29492 -0.77821,-0.70039 l 0,-0.70039 c 0,-0.31191 0.0588,-0.35952 0.0777,-0.3891 0.0199,-0.0296 0.10359,-0.10086 0.3891,-0.23334 0.63868,-0.29575 1.22639,-0.63691 1.86771,-0.93385 0.46421,-0.21392 0.9342,-0.5271 1.24514,-1.01168 0.31093,-0.48458 0.3891,-1.04566 0.3891,-1.55642 l 0,-12.91829 0,-1.32295 -1.24514,0 -15.09727,0 -1.32296,0 0,1.32295 0,12.91829 c 0,0.51076 0.15589,1.07184 0.46693,1.55642 0.31093,0.48458 0.78092,0.79784 1.24513,1.01168 0.64132,0.29694 1.23264,0.63865 1.86771,0.93385 0.28643,0.13248 0.3707,0.2047 0.3891,0.23334 0.0174,0.0289 0.0777,0.0759 0.0777,0.3891 l 0,0.70039 c 0,0.40738 -0.35277,0.70039 -0.77821,0.70039 l -19.92218,0 c -0.42544,0 -0.70039,-0.29492 -0.70039,-0.70039 l 0,-0.70039 c 0,-0.31305 0.0595,-0.36062 0.0777,-0.3891 0.0174,-0.0284 0.0224,-0.10061 0.31128,-0.23334 1.29818,-0.60183 2.66407,-1.26145 3.96887,-1.86771 0.46421,-0.21391 0.85638,-0.52709 1.16732,-1.01167 0.31093,-0.48458 0.46692,-1.04567 0.46692,-1.55642 l 0,-31.98444 c 0,-0.51075 -0.15589,-1.07246 -0.46692,-1.55642 -0.31099,-0.48396 -0.70527,-0.79708 -1.16732,-1.01167 l -0.0777,0 c -1.30242,-0.60265 -2.59168,-1.18749 -3.89105,-1.78988 -0.28599,-0.13099 -0.29304,-0.20495 -0.31129,-0.23334 -0.0174,-0.0284 -0.0777,-0.0777 -0.0777,-0.38911 l 0,-0.77821 c 0,-0.40546 0.27496,-0.70039 0.70039,-0.70039 z m -274.31907,5.36965 c -2.208929,0 -4.062344,0.91222 -5.525292,2.17899 -1.462948,1.26678 -2.564674,2.88994 -3.346303,4.4358 -1.712033,3.39242 -2.334631,6.83565 -2.334631,10.50584 0,3.67019 0.619478,7.03728 2.334631,10.42801 0.780685,1.54798 1.883228,3.16925 3.346303,4.4358 1.463075,1.26655 3.317661,2.17899 5.525292,2.17899 2.20921,0 4.139637,-0.91164 5.603113,-2.17899 1.463476,-1.26735 2.486787,-2.88981 3.268487,-4.4358 1.70959,-3.39015 2.33463,-6.76024 2.33463,-10.42801 0,-3.67258 -0.6226,-7.11342 -2.33463,-10.50584 -0.78177,-1.54746 -1.805328,-3.16989 -3.268487,-4.4358 -1.46316,-1.2659 -3.394742,-2.17899 -5.603113,-2.17899 z m 153.22957,0 c -2.20892,0 -4.06195,0.91219 -5.52529,2.17899 -1.46333,1.2668 -2.56568,2.88929 -3.3463,4.4358 -1.71226,3.39287 -2.33463,6.83625 -2.33463,10.50584 0,3.66959 0.62202,7.03711 2.33463,10.42801 0.78272,1.54669 1.88362,3.16927 3.3463,4.4358 1.46269,1.26653 3.31665,2.17899 5.52529,2.17899 2.20922,0 4.14026,-0.91157 5.60312,-2.17899 1.46286,-1.26742 2.48691,-2.89006 3.26848,-4.4358 1.71562,-3.39165 2.33463,-6.76141 2.33463,-10.42801 0,-3.67198 -0.61958,-7.11269 -2.33463,-10.50584 -0.78063,-1.54785 -1.80555,-3.16979 -3.26848,-4.4358 -1.46294,-1.266 -3.39474,-2.17899 -5.60312,-2.17899 z m -153.22957,2.5681 c 1.527038,0 2.768062,0.58481 3.891051,1.55642 1.122988,0.9716 2.05118,2.32629 2.723735,3.65759 1.520344,3.01255 2.101164,5.93872 2.101164,9.33852 0,3.39464 -0.58336,6.32868 -2.101164,9.33852 -0.672625,1.33028 -1.599818,2.68431 -2.723735,3.65759 -1.123918,0.97327 -2.364853,1.55642 -3.891051,1.55642 -1.525287,0 -2.767978,-0.58422 -3.891051,-1.55642 -1.123073,-0.97221 -2.052592,-2.32682 -2.723735,-3.65759 -1.522201,-3.00927 -2.101167,-5.94132 -2.101167,-9.33852 0,-3.39721 0.580826,-6.32597 2.101167,-9.33852 0.67269,-1.33041 1.600535,-2.68499 2.723735,-3.65759 1.1232,-0.9726 2.364571,-1.55642 3.891051,-1.55642 z m 153.22957,0 c 1.52704,0 2.84629,0.58491 3.96888,1.55642 1.12259,0.9715 2.05253,2.32668 2.72373,3.65759 1.5223,3.01183 2.02335,5.93812 2.02335,9.33852 0,3.39581 -0.50162,6.33017 -2.02335,9.33852 -0.67275,1.33053 -1.60045,2.68439 -2.72373,3.65759 -1.12329,0.97319 -2.44269,1.55642 -3.96888,1.55642 -1.52676,0 -2.76821,-0.5842 -3.89105,-1.55642 -1.12284,-0.97223 -2.04964,-2.32552 -2.72373,-3.65759 -1.51977,-3.0091 -2.10117,-5.94072 -2.10117,-9.33852 0,-3.39781 0.58106,-6.32642 2.10117,-9.33852 0.6712,-1.32976 1.6003,-2.68502 2.72373,-3.65759 1.12344,-0.97258 2.36457,-1.55642 3.89105,-1.55642 z m 42.80156,17.19844 0,1.32296 0,11.82879 0,1.24514 1.24514,0 3.96887,0 c 3.97412,0 7.23735,-3.20008 7.23735,-7.15953 0,-3.96143 -3.26323,-7.23736 -7.23735,-7.23736 l -3.96887,0 -1.24514,0 z m 2.49027,2.56809 2.72374,0 c 2.62509,0 4.74708,2.07629 4.74708,4.66927 0,2.58995 -2.12199,4.66926 -4.74708,4.66926 l -2.72374,0 0,-9.33853 z"
       id="path410"
       style="font-size:medium;font-style:normal;font-variant:normal;font-weight:normal;font-stretch:normal;text-indent:0;text-align:start;text-decoration:none;line-height:normal;letter-spacing:normal;word-spacing:normal;text-transform:none;direction:ltr;block-progression:tb;writing-mode:lr-tb;text-anchor:start;color:#000000;fill:#005a9c;fill-opacity:1;stroke:none;stroke-width:1.00999999;marker:none;visibility:visible;display:inline;overflow:visible;enable-background:accumulate;font-family:Bitstream Vera Sans;-inkscape-font-specification:Bitstream Vera Sans" /></g></svg>