<svg viewBox="0 0 960.84 327.84" xmlns="http://www.w3.org/2000/svg">
<defs>
<style>
      .bwt-11 {
        fill: #ff88bd;
      }

      .bwt-11, .bwt-22 {
        stroke-width: 0px;
      }

      .bwt-22 {
        fill: #00174b;
        fill-rule: evenodd;
      }
    </style>
</defs>
<g id="BWT">
<g>
<polygon class="bwt-22" points="960.84 97.09 823.56 97.09 798.66 168.48 838.07 168.48 838.07 318.61 918.61 318.61 918.61 168.48 960.84 168.48 960.84 97.09"></polygon>
<polygon class="bwt-22" points="732.18 97.09 697.84 194.68 671.79 97.09 611.12 97.09 585.08 194.68 550.73 97.09 468.88 97.09 546.16 318.61 612.83 318.61 641.46 210.81 670.09 318.61 736.76 318.61 814.03 97.09 732.18 97.09"></polygon>
<path class="bwt-22" d="M446.35,204.89c16.48-10.31,27.44-28.61,27.44-49.47,0-32.21-26.12-58.33-58.33-58.33h-120.66v221.52h132.5c32.28,0,58.45-26.17,58.45-58.45,0-25.61-16.48-47.36-39.4-55.26ZM362.35,152.03h21.56c6.43,0,11.64,6.66,11.64,14.89s-5.21,14.89-11.64,14.89h-21.56v-29.77ZM395.3,270h-32.73v-32.39h32.73c7.18,0,13,7.25,13,16.19s-5.82,16.19-13,16.19Z"></path>
</g>
</g>
<g id="Drop">
<g>
<path class="bwt-11" d="M193.95,207.85c0,40.85-33.12,73.96-73.96,73.96s-73.96-33.12-73.96-73.96V26.57l35.78,20.66v160.62c0,21.08,17.1,38.18,38.18,38.18s38.18-17.1,38.18-38.18c0-14.13-7.68-26.48-19.1-33.08l-.07-.04-36.73-21.2v-41.33l19.87,11.47,34.34,19.83.49.28.36.2c21.92,12.84,36.64,36.63,36.64,63.87Z"></path>
<path class="bwt-11" d="M239.98,207.85c0,66.27-53.72,119.99-119.99,119.99S0,274.12,0,207.85V0l35.79,20.66v187.19c0,46.51,37.7,84.21,84.2,84.21s84.21-37.7,84.21-84.21c0-16.1-4.51-31.15-12.35-43.93-7.2-11.74-17.18-21.58-29.04-28.6l-.72-.42h0l-.46-.27-59.35-34.27v-41.33l77.71,44.87h0c35.87,20.75,60,59.53,60,103.95Z"></path>
</g>
</g>
</svg>