<?xml version="1.0" encoding="utf-8"?>
<!-- Generator: Adobe Illustrator 22.0.1, SVG Export Plug-In . SVG Version: 6.00 Build 0)  -->
<svg version="1.1" id="Layer_1" xmlns="http://www.w3.org/2000/svg" xmlns:xlink="http://www.w3.org/1999/xlink" x="0px" y="0px"
	 viewBox="0 0 640 480" enable-background="new 0 0 640 480" xml:space="preserve">
<g>
	<path d="M154.8,240c38.4-73.4,76.9-146.8,115.5-220.1h33.1L187.8,240c33.1,62.8,66.1,125.7,99.1,188.6c33-62.9,66-125.8,99.1-188.6
		c-19.3-36.7-38.5-73.4-57.8-110.1l16.6-31.5L419.1,240c-38.6,73.4-77.2,146.8-115.7,220.1c-11,0-22,0-33,0
		C231.8,386.7,193.3,313.3,154.8,240 M336.4,19.8c11,0,22.1,0,33.1,0L485.2,240c-36.6,69.6-73.1,139.1-109.6,208.7
		c-2.1,3.8-3.9,7.8-6.2,11.5c-11-0.1-22,0-32.9,0C375,386.8,413.5,313.4,452.1,240L353,51.3c-33,62.9-66,125.8-99.1,188.7
		c19.3,36.7,38.5,73.4,57.8,110.1c-5.5,10.5-11,21-16.6,31.5L220.8,240C259.3,166.6,297.9,93.2,336.4,19.8z"/>
</g>
<rect x="134.9" fill="none" width="370.2" height="480"/>
</svg>
