<?xml version="1.0" encoding="UTF-8" standalone="no"?>
<svg xmlns:rdf="http://www.w3.org/1999/02/22-rdf-syntax-ns#" xmlns="http://www.w3.org/2000/svg" height="111.62798" width="103.94098" version="1.1" xmlns:cc="http://creativecommons.org/ns#" xmlns:dc="http://purl.org/dc/elements/1.1/" viewBox="0 0 103.94098 111.62798"><defs><clipPath id="clip-path" transform="translate(-0.00008 -0.04701)"><rect width="103.94099" height="111.67564" fill="none"/></clipPath></defs><g clip-path="url(#clip-path)"><path d="M.00008,81.38735v1.08472H5.55625a17.14686,17.14686,0,0,0,5.59911,8.84273c8.70639,7.90716,25.14365,12.753,36.9106,16.23689,1.00788.29756,3.24888.96574,3.24888.96574l.25009.06777s2.23347-.68395,3.2406-.98151c7.84388-2.32011,17.43536-5.28351,25.98505-9.33988a44.54564,44.54564,0,0,0,10.82385-6.949,17.14521,17.14521,0,0,0,5.59835-8.84273h6.72828V81.38735Z" transform="translate(-0.00008 -0.04701)" fill="#0075c9"/><path d="M54.99061,106.20339c15.08362-4.68688,37.74523-10.94583,40.92029-23.671l-89.04267.0241c1.8847,11.56807,23.143,18.56978,41.50408,23.70189,1.06212.29678,2.22443.70956,3.105.92951" transform="translate(-0.00008 -0.04701)" fill="#f6fbfd"/><path d="M100.7886,83.79619a15.46153,15.46153,0,0,1-1.20676,3.148,19.75112,19.75112,0,0,1-2.70275,3.94946c-8.39077,9.66755-26.10182,14.99847-41.19,19.54l-2.51218.75783-1.18264.35778-.41958.1258h-.00226l-.41957-.1258-1.1819-.35778-2.51293-.75783c-15.08815-4.54151-32.79921-9.87243-41.19-19.54a19.75082,19.75082,0,0,1-2.70277-3.94946,15.45842,15.45842,0,0,1-1.206-3.148H4.35778a14.74188,14.74188,0,0,0,1.07945,2.75854,18.64556,18.64556,0,0,0,2.54984,3.72795C16.06974,99.59548,33.472,104.833,48.298,109.29539l2.51294.75783.76156.23122h.00226l.76156-.23122,2.51369-.75783c14.8245-4.46242,32.22822-9.69991,40.31089-19.01271A18.67253,18.67253,0,0,0,97.71,86.55473a14.6905,14.6905,0,0,0,1.07944-2.75854Z" transform="translate(-0.00008 -0.04701)"/><path d="M51.67047.04731C34.27729-.00087,16.85774,5.77523,3.863,15.8157L2.37523,16.93881,2.3677,46.14716H4.33149l.07232-28.318.66665-.51521c12.63547-9.76176,29.62113-15.41134,46.6-15.36463s33.9698,5.618,46.54652,15.449l.49113.458.046,28.28556,1.95249.00528.08437-28.51079.00227-.62524-1.22032-.93332C86.63685,5.96585,69.34537.09706,51.95219.04883" transform="translate(-0.00008 -0.04701)"/><path d="M97.24684,47.36251l.012-28.23734v-.33369l-.26516-.20869C84.71606,8.96871,68.0144,3.51122,51.67205,3.35757q-.39661-.00339-.79321-.00377a74.36574,74.36574,0,0,0-44.56691,15.229l-.20564.16046-.061.04745-.006,28.57181H.0183L.00022,48.44874l103.94023.02414-.00074-1.11037Z" transform="translate(-0.00008 -0.04701)" fill="#0075c9"/><path d="M63.41873,86.35087a.65737.65737,0,0,1,.05951.03241.65737.65737,0,0,0-.05951-.03241" transform="translate(-0.00008 -0.04701)" fill="#0f0a0b"/><path d="M63.49964,86.3962c.02184.01434.04293.02938.06251.04524-.01958-.01586-.04067-.0309-.06251-.04524" transform="translate(-0.00008 -0.04701)" fill="#0f0a0b"/><path d="M63.80953,86.75854q.01467.03393.02712.07007-.01243-.03614-.02712-.07007" transform="translate(-0.00008 -0.04701)" fill="#0f0a0b"/><path d="M63.13415,86.265c.02334.003.04594.0068.06854.01131-.0226-.00451-.0452-.00828-.06854-.01131" transform="translate(-0.00008 -0.04701)" fill="#0f0a0b"/><path d="M63.33143,86.3134c.02034.00754.03992.01508.05951.02413-.01959-.00905-.03917-.01659-.05951-.02413" transform="translate(-0.00008 -0.04701)" fill="#0f0a0b"/><path d="M62.99637,86.25487a.97791.97791,0,0,1,.10546.00607.97791.97791,0,0,0-.10546-.00607" transform="translate(-0.00008 -0.04701)" fill="#0f0a0b"/><path d="M63.23749,86.28494c.02034.00528.04143.01057.061.01733-.01958-.00676-.04067-.012-.061-.01733" transform="translate(-0.00008 -0.04701)" fill="#0f0a0b"/><path d="M63.76509,86.67151c.01281.02262.02486.04524.03615.06933-.01129-.02409-.02334-.04671-.03615-.06933" transform="translate(-0.00008 -0.04701)" fill="#0f0a0b"/><path d="M63.86708,86.94084a.8344.8344,0,0,1,.01281.08813.8344.8344,0,0,0-.01281-.08813" transform="translate(-0.00008 -0.04701)" fill="#0f0a0b"/><path d="M63.88561,87.14382a1.00076,1.00076,0,0,0-.00453-.10694,1.02308,1.02308,0,0,1-.02184.32092l-.01356.06478.01356-.06478a.54868.54868,0,0,0,.02637-.214" transform="translate(-0.00008 -0.04701)" fill="#0f0a0b"/><path d="M63.84313,86.8481c.00753.02488.01431.04975.02033.07536-.006-.02561-.0128-.05048-.02033-.07536" transform="translate(-0.00008 -0.04701)" fill="#0f0a0b"/><path d="M63.7577,86.65909a.83074.83074,0,0,0-.1838-.21015.83074.83074,0,0,1,.1838.21015" transform="translate(-0.00008 -0.04701)" fill="#0f0a0b"/><path d="M63.10153,86.26066c.0113.00078.02184.003.03239.00455-.01055-.00151-.02109-.00377-.03239-.00455" transform="translate(-0.00008 -0.04701)" fill="#df1e38"/><path d="M63.29881,86.30218l.03239.01131-.03239-.01131" transform="translate(-0.00008 -0.04701)" fill="#df1e38"/><path d="M63.20262,86.27629c.012.0023.02334.00607.03464.00833-.0113-.00226-.02259-.006-.03464-.00833" transform="translate(-0.00008 -0.04701)" fill="#df1e38"/><path d="M63.86286,86.92291l.00452.01811-.00452-.01811" transform="translate(-0.00008 -0.04701)" fill="#df1e38"/><path d="M63.83673,86.82829l.00677.01958-.00677-.01958" transform="translate(-0.00008 -0.04701)" fill="#df1e38"/><path d="M63.7577,86.65909l.00753.0121-.00753-.0121" transform="translate(-0.00008 -0.04701)" fill="#df1e38"/><path d="M63.80124,86.74061l.00828.01811-.00828-.01811" transform="translate(-0.00008 -0.04701)" fill="#df1e38"/><path d="M63.39064,86.33735l.02786.01356-.02786-.01356" transform="translate(-0.00008 -0.04701)" fill="#df1e38"/><polyline points="63.88 86.982 63.881 86.99 63.88 86.982" fill="#df1e38"/><path d="M63.47794,86.3831l.02184.01282-.02184-.01282" transform="translate(-0.00008 -0.04701)" fill="#df1e38"/><polyline points="63.563 86.394 63.574 86.402 63.563 86.394" fill="#df1e38"/><polygon points="61.621 97.899 63.846 87.375 61.614 97.896 61.621 97.899" fill="#df1e38"/><path d="M63.88117,87.03707l-.00075-.00828c-.00377-.02938-.00753-.05949-.01357-.08814l-.00376-.01807c-.00527-.02487-.01205-.0497-.01958-.07457l-.00678-.01959q-.01244-.03614-.02712-.07006l-.00829-.01729a.54543.54543,0,0,0-.03616-.06933l-.00752-.01278a.81387.81387,0,0,0-.18381-.20943l-.0113-.00827c-.01958-.01582-.04143-.0309-.06252-.0452l-.02184-.01283c-.01959-.01131-.03917-.02257-.05952-.03236l-.02786-.01357c-.01959-.00827-.03917-.01659-.05952-.02413-.01054-.00373-.02109-.0075-.03239-.01053a.53487.53487,0,0,0-.06177-.01807l-.03464-.00828c-.02261-.00455-.04521-.00832-.06855-.01131-.01055-.00073-.02109-.003-.03239-.0045-.0339-.003-.06931-.006-.10546-.006H43.21953a1.43692,1.43692,0,0,0-1.34235,1.0764l-.76834,3.6263,20.50421,6.98662L63.84576,87.422l.01356-.06405a1.04212,1.04212,0,0,0,.02185-.32091" transform="translate(-0.00008 -0.04701)" fill="#e1251b"/><path d="M64.07853,87.17357a.19842.19842,0,0,0-.006-.04745,1.0528,1.0528,0,0,0-.29528-.74725,1.07369,1.07369,0,0,0-.78114-.31333H43.218a1.63389,1.63389,0,0,0-1.5284,1.22481l-.13784.65084a1.01463,1.01463,0,0,0-.10622-.006,1.08514,1.08514,0,0,0-1.05684.858L39.15634,94.619a1.0834,1.0834,0,0,0,.71411,1.24817l-.77211,3.63834a1.38168,1.38168,0,0,0-.03842.32919,1.06082,1.06082,0,0,0,.21469.66965.92723.92723,0,0,0,.7465.33448H59.80368a1.88145,1.88145,0,0,0,1.19771-.49641l.15141.03237a1.13477,1.13477,0,0,0,.22448.02335,1.08515,1.08515,0,0,0,1.05684-.858l1.23237-5.82586a1.08059,1.08059,0,0,0-.699-1.24214l1.07719-5.07336a1.302,1.302,0,0,0,.0339-.22524M39.40568,94.67172,40.638,88.84587a.826.826,0,0,1,.80751-.65535c.01733,0,.03465.00152.05273.00225l-1.57435,7.42207a.82653.82653,0,0,1-.51825-.94312M63.4164,93.66158l-1.23161,5.82585a.82664.82664,0,0,1-.80751.65535.89681.89681,0,0,1-.17176-.01733l-.00225-.00074a1.35287,1.35287,0,0,0,.24783-.51149L62.914,92.72375a.82561.82561,0,0,1,.50244.93783m.41581-6.488a.80706.80706,0,0,1-.02787.174l-1.07493,5.06352-.05274.25011-1.1171,5.26389L41.15931,90.97389l.58077-2.73969.05273-.2486.13635-.64252A1.39135,1.39135,0,0,1,43.218,86.31032H62.99607a.83727.83727,0,0,1,.60714.24105.80314.80314,0,0,1,.22372.57627c.00376,0,0,.012.00452.03991l.046.006Z" transform="translate(-0.00008 -0.04701)"/><path d="M62.77912,92.68274l-2.61161-.55213a.826.826,0,0,0-.9785.63728l-.22524,1.06288-2.47225-.62225.14161-.66964.68021.14386a.10006.10006,0,0,0,.11751-.07683l.1032-.4851a.0995.0995,0,0,0-.07683-.11751l-1.49149-.31563a.09948.09948,0,0,0-.11751.07683l-.1032.48514a.1.1,0,0,0,.07683.11747l.34877.07384-.13785.65236-.38869-.09793c-.29529-.09117-.85723-.12657-1.23839-1.4501-.11375-.39622-.21694-.75176-.30583-1.06058l4.46995.94458-.30659,1.44932.1499.03241.687-3.24814-.1499-.03163-.165.77737-5.01457-1.05985c-.01959-.0663-.02938-.1017-.02938-.1017a1.31147,1.31147,0,0,0-1.04555-1.14422l-.00226-.00078-.00226-.00073v.00073a1.30876,1.30876,0,0,0-1.41842.623s-.0241.02786-.06855.0806L46.18969,87.745l.16422-.77737L46.204,86.936l-.68623,3.24814.1499.03163.30583-1.44931,4.46995.94536c-.2064.2463-.44443.52956-.70883.84519-.88435,1.05608-1.4124.86174-1.719.8256l-.39547-.06855.13785-.65163.34876.07311a.0981.0981,0,0,0,.11752-.0761l.10244-.48509a.09841.09841,0,0,0-.07608-.11752l-1.49149-.31563a.10025.10025,0,0,0-.11826.07683l-.10245.4851a.09948.09948,0,0,0,.07684.11751l.68021.14391-.14162.66965-2.51294-.43241.22524-1.0621a.82708.82708,0,0,0-.638-.97925l-2.61086-.55218a.82588.82588,0,0,0-.97926.63728L39.40643,94.6714a.82527.82527,0,0,0,.63727.97925l2.61161.55218a.82567.82567,0,0,0,.97851-.63728l.00377-.0166,3.47864.61016c.04067.1439.07683.272.09867.35333a.44791.44791,0,0,0,.35781.32767l2.79165.58978.68322.14391,2.7924.59057a.44611.44611,0,0,0,.4595-.1537c.05273-.06552.13785-.16873.23276-.284l3.42817.85042-.003.0166a.82449.82449,0,0,0,.63727.97847l2.61161.55291a.82594.82594,0,0,0,.97851-.638L63.41715,93.662a.82639.82639,0,0,0-.638-.9793M43.71518,95.18289l.09416-.44519,3.14418.849c.01582.05421.03239.11223.04971.17324Zm8.05253-6.26052c.12957-.16119.12957-.16192.12957-.16192a.66157.66157,0,0,1,.7126-.25159h.00075l.00151.00074a.65866.65866,0,0,1,.54913.51824l.05123.20037ZM58.038,98.211l-3.2406-.803c.04143-.049.07909-.0949.11525-.13784l3.21951.49567Z" transform="translate(-0.00008 -0.04701)" fill="#fff"/><path d="M62.85354,100.86139a.466.466,0,0,1-.18605-.03692.47153.47153,0,0,1-.15141-.09945.4614.4614,0,0,1-.10169-.1514.52426.52426,0,0,1,0-.38266.46192.46192,0,0,1,.10169-.1514.47319.47319,0,0,1,.15141-.09945.46678.46678,0,0,1,.18605-.03687.46059.46059,0,0,1,.18531.03687.478.478,0,0,1,.15065.09945.44864.44864,0,0,1,.10095.1514.52426.52426,0,0,1,0,.38266.44814.44814,0,0,1-.10095.1514.47631.47631,0,0,1-.15065.09945.45977.45977,0,0,1-.18531.03692m0-.07683a.365.365,0,0,0,.15292-.03089.37428.37428,0,0,0,.12053-.08437.36594.36594,0,0,0,.07985-.12653.45984.45984,0,0,0,0-.31939.381.381,0,0,0-.07985-.12658.37264.37264,0,0,0-.12053-.08358.36487.36487,0,0,0-.15292-.0309.3708.3708,0,0,0-.15366.0309.36019.36019,0,0,0-.12128.08358.39512.39512,0,0,0-.0806.12658.45984.45984,0,0,0,0,.31939.37889.37889,0,0,0,.0806.12653.36169.36169,0,0,0,.12128.08437.371.371,0,0,0,.15366.03089m-.21015-.6599h.25008a.2391.2391,0,0,1,.13408.0377.12494.12494,0,0,1,.058.113.11714.11714,0,0,1-.08587.12055v.0045a.08631.08631,0,0,1,.05047.03164.16152.16152,0,0,1,.02336.055.51561.51561,0,0,1,.00828.08589c0,.02634.00527.04142.01582.04671v.012h-.1469c-.006-.00377-.01054-.01807-.0128-.04368-.00225-.02488-.00526-.049-.00829-.0731a.0656.0656,0,0,0-.07381-.061H62.794v.1778h-.15065Zm.226.22373c.0452,0,.06779-.01729.06779-.05348,0-.0354-.02259-.05347-.06779-.05347H62.794v.10695Z" transform="translate(-0.00008 -0.04701)"/><path d="M7.24329,47.30269H96.05621l.01808-28.03393C84.57475,10.1149,67.64409,4.64233,51.67687,4.5158,35.60268,4.38849,18.75111,10.03357,7.24329,19.19791" transform="translate(-0.00008 -0.04701)" fill="#fff"/><polygon points="55.317 22.144 55.317 25.233 57.006 25.233 57.006 30.916 52.469 22.144 47.232 22.144 47.232 25.233 48.921 25.233 48.921 34.689 47.232 34.689 47.232 37.776 54.158 37.776 54.158 34.689 52.469 34.689 52.469 29.005 57.006 37.776 60.555 37.776 60.555 25.233 62.244 25.233 62.244 22.144 55.317 22.144"/><polygon points="76.649 28.157 76.649 22.16 63.344 22.16 63.344 28.157 66.363 28.157 66.363 25.246 67.99 25.246 67.99 34.691 65.782 34.691 65.782 37.777 74.209 37.777 74.209 34.691 72.003 34.691 72.003 25.246 73.629 25.246 73.629 28.157 76.649 28.157"/><polygon points="90.985 28.148 90.985 22.143 77.666 22.143 77.666 28.148 80.689 28.148 80.689 25.233 82.317 25.233 82.317 34.688 80.108 34.688 80.108 37.777 88.544 37.777 88.544 34.688 86.335 34.688 86.335 25.233 87.963 25.233 87.963 28.148 90.985 28.148"/><path d="M29.19221,16.05662a10.11942,10.11942,0,0,0-3.66469.68619,10.11836,10.11836,0,0,0-3.66394-.68619c-6.02547,0-11.46413,5.697-11.46413,13.51228a15.12808,15.12808,0,0,0,30.25614,0c0-7.81525-5.43866-13.51228-11.46338-13.51228m-3.66469,4.6409a6.25,6.25,0,0,1,2.69372,4.9483,2.70554,2.70554,0,1,1-5.38744,0,6.25,6.25,0,0,1,2.69372-4.9483m0,20.26015A11.40274,11.40274,0,0,1,14.11763,29.49584c0-5.88084,4.244-9.89959,7.57872-9.74893a8.81709,8.81709,0,0,0-2.537,6.0865,6.36946,6.36946,0,1,0,12.73642,0,8.81709,8.81709,0,0,0-2.537-6.0865c3.33551-.15066,7.57872,3.86809,7.57872,9.74893A11.40274,11.40274,0,0,1,25.52752,40.95767" transform="translate(-0.00008 -0.04701)" fill="#0075c9"/><path d="M22.86965,76.10663l.15744-.91221h1.32953l-.15743.85649c-.0565.31112.03389.42262.33822.42262h2.073c.293,0,.42786-.1115.47305-.42262l.16949-.95668c.0791-.38868-.05649-.49939-.406-.57774l-2.006-.44519c-.90092-.189-1.49827-.48886-1.30694-1.56834l.19209-1.06739A1.65015,1.65015,0,0,1,25.54,69.8778h2.33215c1.04856,0,1.45382.501,1.27379,1.55777l-.15744.83387H27.67029l.13483-.77888c.0565-.31186-.03389-.42257-.32692-.42257H25.55132c-.293,0-.42786.11071-.48511.42257l-.14614.84518c-.067.40151.0565.51222.406.57852l2.01728.44519c.88962.20037,1.487.50091,1.29563,1.56835l-.20263,1.17883a1.66625,1.66625,0,0,1-1.82594,1.557h-2.479c-1.04781,0-1.45307-.49939-1.26174-1.557" transform="translate(-0.00008 -0.04701)"/><polygon points="34.737 69.831 39.853 69.831 39.639 71.054 35.876 71.054 35.526 73.035 38.614 73.035 38.4 74.235 35.312 74.235 34.917 76.394 38.682 76.394 38.468 77.617 33.351 77.617 34.737 69.831"/><path d="M50.1893,71.43552,49.885,73.17109a1.62553,1.62553,0,0,1-1.47642,1.53441l.913,2.95813H47.92419l-.913-2.90314h-1.6L44.893,77.66363H43.54087l1.386-7.78588h3.9886c1.04857,0,1.45383.501,1.2738,1.55777m-1.69036-.345H46.0764l-.45046,2.48056h2.43384c.293,0,.41656-.11149.47306-.42257l.293-1.64669c.05649-.30055-.0339-.4113-.32693-.4113" transform="translate(-0.00008 -0.04701)"/><polygon points="55.736 69.831 57.088 69.831 55.702 77.617 54.35 77.617 55.736 69.831"/><polygon points="62.543 69.831 67.659 69.831 67.445 71.054 63.682 71.054 63.332 73.035 66.42 73.035 66.206 74.235 63.118 74.235 62.724 76.394 66.488 76.394 66.274 77.617 61.157 77.617 62.543 69.831"/><path d="M71.27933,76.10663l.15743-.91221H72.7663l-.15744.85649c-.0565.31112.0339.42262.33822.42262h2.073c.293,0,.42786-.1115.47306-.42262l.16948-.95668c.0791-.38868-.05649-.49939-.406-.57774l-2.006-.44519c-.90092-.189-1.49827-.48886-1.30694-1.56834l.19209-1.06739a1.65015,1.65015,0,0,1,1.8139-1.55777h2.33214c1.04856,0,1.45458.501,1.27379,1.55777l-.15744.83387H76.08l.13483-.77888c.05575-.31186-.03389-.42257-.32691-.42257H73.961c-.293,0-.42787.11071-.48437.42257l-.14689.84518c-.067.40151.0565.51222.406.57852l2.01728.44519c.88962.20037,1.487.50091,1.29564,1.56835l-.20263,1.17883a1.66626,1.66626,0,0,1-1.826,1.557h-2.479c-1.0478,0-1.45382-.49939-1.26173-1.557" transform="translate(-0.00008 -0.04701)"/><polygon points="5.638 52.704 9.781 52.704 7.07 67.489 2.927 67.489 5.638 52.704"/><polygon points="13.153 52.704 17.099 52.704 20.714 60.561 22.146 52.704 26.157 52.704 23.446 67.489 19.964 67.489 16.018 59.019 14.454 67.489 10.442 67.489 13.153 52.704"/><path d="M29.52712,52.75112h9.03707c1.98413,0,2.77734.92956,2.403,2.873L39.3137,64.66347a3.13311,3.13311,0,0,1-3.46056,2.87224H26.81607Zm5.35656,11.48974c.30809,0,.37437-.08437.44067-.38036l1.36644-7.43411c.04444-.29605,0-.38041-.30809-.38041H33.07581l-1.499,8.19488Z" transform="translate(-0.00008 -0.04701)"/><polygon points="46.035 62.905 43.103 52.705 47.467 52.705 48.724 58.977 52.273 52.705 56.857 52.705 50.179 62.905 49.341 67.488 45.197 67.488 46.035 62.905"/><path d="M56.28278,64.66347l1.65269-9.03933a3.18661,3.18661,0,0,1,3.505-2.873h5.8409c1.98338,0,2.73364.92955,2.35851,2.873L69.13294,58.391H64.98916l.37439-1.96457c.04443-.296-.02186-.38037-.32994-.38037H62.3881c-.28625,0-.39623.08437-.44067.38037L60.581,63.8605c-.06629.296.02185.3804.3081.3804h2.6455c.30885,0,.397-.08436.46251-.3804l.3533-1.96379h4.14377l-.50771,2.76676a3.14493,3.14493,0,0,1-3.4598,2.87229H58.685c-1.98337,0-2.75548-.92955-2.4022-2.87229" transform="translate(-0.00008 -0.04701)"/><path d="M78.89579,64.49479H74.50946l-1.3446,3.041H68.823l7.27364-14.78459H81.5187L83.414,67.53576H79.1165Zm-.24255-3.16833L78.257,55.98271,75.8985,61.32646Z" transform="translate(-0.00008 -0.04701)"/><path d="M99.56889,55.62368l-.70583,3.84395a3.01875,3.01875,0,0,1-2.53477,2.78792L98.00358,67.536h-4.012l-1.67453-4.94228H90.5755L89.67157,67.536H85.5278l2.71179-14.78458h8.92634c1.98414,0,2.77733.92955,2.403,2.87223m-5.224,3.84395c.28624,0,.39622-.08436.46251-.38036l.48511-2.74571c.06629-.29531,0-.37967-.28625-.37967H91.81013l-.66138,3.50574Z" transform="translate(-0.00008 -0.04701)"/><path d="M99.66938,67.49111a.90711.90711,0,0,1-.632-.25608.85.85,0,0,1-.18908-.28326.96826.96826,0,0,1,0-.71563.84929.84929,0,0,1,.18908-.28321.90751.90751,0,0,1,.632-.25614.87257.87257,0,0,1,.3465.06934.8977.8977,0,0,1,.28174.1868.84939.84939,0,0,1,.18906.28321.97822.97822,0,0,1,0,.71563.85011.85011,0,0,1-.18906.28326.89787.89787,0,0,1-.28174.1868.8734.8734,0,0,1-.3465.06928m0-.14537a.68965.68965,0,0,0,.28473-.05724.72587.72587,0,0,0,.22675-.15743.71237.71237,0,0,0,.14989-.23728.80816.80816,0,0,0,.05349-.30059.7983.7983,0,0,0-.05349-.296.72814.72814,0,0,0-.14989-.23728.711.711,0,0,0-.22675-.15664.67769.67769,0,0,0-.28473-.058.70981.70981,0,0,0-.51449.21466.70567.70567,0,0,0-.15066.23728.7985.7985,0,0,0-.05348.296.80836.80836,0,0,0,.05348.30059.69089.69089,0,0,0,.15066.23728.70166.70166,0,0,0,.51449.21467m-.39321-1.23387H99.744a.451.451,0,0,1,.25159.07007.23731.23731,0,0,1,.107.21167.21868.21868,0,0,1-.15894.226v.00754a.16882.16882,0,0,1,.09266.05949.28877.28877,0,0,1,.04443.10322.94781.94781,0,0,1,.01507.15967c0,.0497.009.07908.02938.08888v.02183h-.27419c-.01206-.00675-.02034-.03388-.0241-.08059-.00377-.04745-.00905-.09265-.01658-.13784a.12148.12148,0,0,0-.1371-.11448h-.11525v.33291h-.28172Zm.42259.4188c.08437,0,.12579-.03311.12579-.10018,0-.06626-.04142-.10019-.12579-.10019h-.14087v.20037Z" transform="translate(-0.00008 -0.04701)"/></g></svg>