<svg id="Layer_1" data-name="Layer 1" xmlns="http://www.w3.org/2000/svg" viewBox="0 0 474.3 125.1"><title>Sparco logo - Brandlogos.net</title><g id="Livello_1-2" data-name="Livello 1-2"><path d="M478.85,193.45a14.3,14.3,0,0,1,14.3,14.3v96.5a14.3,14.3,0,0,1-14.3,14.3H33.15a14.3,14.3,0,0,1-14.3-14.3v-96.5a14.3,14.3,0,0,1,14.3-14.3h445.7" transform="translate(-18.85 -193.45)" style="fill:#001689"/><path d="M441.55,207.85a36.9,36.9,0,1,0,36.9,36.9A36.87,36.87,0,0,0,441.55,207.85Zm0,59.1a22.2,22.2,0,1,1,22.2-22.2A22.21,22.21,0,0,1,441.55,266.95Z" transform="translate(-18.85 -193.45)" style="fill:#fff"/><path d="M153.75,207.85a36.42,36.42,0,0,0-21.2,5.5,1.84,1.84,0,0,1-2.8-1.5v-2.2a1.79,1.79,0,0,0-1.8-1.8h-11.2a1.79,1.79,0,0,0-1.8,1.8v99.8a1.79,1.79,0,0,0,1.8,1.8h11.2a1.79,1.79,0,0,0,1.8-1.8v-31.7a1.81,1.81,0,0,1,2.8-1.5,36.95,36.95,0,0,0,56.3-33.2A37.05,37.05,0,0,0,153.75,207.85Zm-.3,59a22.2,22.2,0,1,1,20.7-20.7,22.26,22.26,0,0,1-20.7,20.7Z" transform="translate(-18.85 -193.45)" style="fill:#fff"/><path d="M52.55,237.35a1.8,1.8,0,0,1-1.6-2.6,22.19,22.19,0,0,1,35.8-5.4,1.61,1.61,0,0,0,1.3.6h13.7a1.85,1.85,0,0,0,1.6-2.7A36.9,36.9,0,0,0,34,242.65a41,41,0,0,0,.4,7.9,1.75,1.75,0,0,0,1.8,1.5h52.9a1.8,1.8,0,0,1,1.6,2.6,22.19,22.19,0,0,1-35.8,5.4,1.61,1.61,0,0,0-1.3-.6H39.85a1.85,1.85,0,0,0-1.6,2.7,37,37,0,0,0,69.5-15.4,41,41,0,0,0-.4-7.9,1.75,1.75,0,0,0-1.8-1.5Z" transform="translate(-18.85 -193.45)" style="fill:#fff"/><path d="M366.15,222.55a22,22,0,0,1,16.9,6.8,1.61,1.61,0,0,0,1.3.6H398a1.85,1.85,0,0,0,1.6-2.7,36.81,36.81,0,1,0,.1,34.8,1.85,1.85,0,0,0-1.6-2.7h-13.7a1.61,1.61,0,0,0-1.3.6,22.14,22.14,0,1,1-17-37.4Z" transform="translate(-18.85 -193.45)" style="fill:#fff"/><path d="M249,213.35a36.95,36.95,0,1,0-19.4,68.4,36.59,36.59,0,0,0,19.4-5.5,1.84,1.84,0,0,1,2.8,1.5v2.2a1.79,1.79,0,0,0,1.8,1.8h11.2a1.79,1.79,0,0,0,1.8-1.8v-70.3a1.79,1.79,0,0,0-1.8-1.8h-11.2a1.79,1.79,0,0,0-1.8,1.8v2.2A1.84,1.84,0,0,1,249,213.35Zm-19.4,53.6a22.2,22.2,0,1,1,22.2-22.2A22.21,22.21,0,0,1,229.55,266.95Z" transform="translate(-18.85 -193.45)" style="fill:#fff"/><path d="M137.15,302.95v-13.1a.68.68,0,0,1,.7-.7h340a.68.68,0,0,1,.7.7v13.1a.68.68,0,0,1-.7.7h-340A.75.75,0,0,1,137.15,302.95Z" transform="translate(-18.85 -193.45)" style="fill:#fff"/><path d="M33.75,303.15v-13.4a.68.68,0,0,1,.7-.7H107a.68.68,0,0,1,.7.7v13.4a.68.68,0,0,1-.7.7H34.45A.68.68,0,0,1,33.75,303.15Z" transform="translate(-18.85 -193.45)" style="fill:#fff"/><path d="M333.25,217.35a1.88,1.88,0,0,0-.5-2.4,36.93,36.93,0,0,0-41.3-1.7,1.84,1.84,0,0,1-2.8-1.5v-2.2a1.79,1.79,0,0,0-1.8-1.8h-11.2a1.79,1.79,0,0,0-1.8,1.8v70.3a1.79,1.79,0,0,0,1.8,1.8h11.2a1.79,1.79,0,0,0,1.8-1.8v-34.7c0-12.1,9.5-22.3,21.6-22.6a22.67,22.67,0,0,1,14.6,5,1.89,1.89,0,0,0,2.8-.5l5.6-9.7Z" transform="translate(-18.85 -193.45)" style="fill:#fff"/></g></svg>