<?xml version="1.0" encoding="UTF-8"?>
<!DOCTYPE svg PUBLIC "-//W3C//DTD SVG 1.1//EN" "http://www.w3.org/Graphics/SVG/1.1/DTD/svg11.dtd">
<!-- Creator: CorelDRAW 2019 (64-Bit) -->
<svg xmlns="http://www.w3.org/2000/svg" xml:space="preserve" width="195.531mm" height="40.8925mm" version="1.1" style="shape-rendering:geometricPrecision; text-rendering:geometricPrecision; image-rendering:optimizeQuality; fill-rule:evenodd; clip-rule:evenodd"
viewBox="0 0 195.5308 40.8925"
 xmlns:xlink="http://www.w3.org/1999/xlink"
 xmlns:xodm="http://www.corel.com/coreldraw/odm/2003">
 <defs>
  <style type="text/css">
   <![CDATA[
    .fil1 {fill:black}
    .fil0 {fill:white}
   ]]>
  </style>
 </defs>
 <g id="Layer_x0020_1">
  <metadata id="CorelCorpID_0Corel-Layer"/>
  <g id="_702541440">
   <path class="fil0" d="M53.1119 0l-17.5048 12.9591c-21.7087,1.4182 -28.192,10.686 -28.192,10.686 -16.6342,14.0581 -0.0854,12.6233 -0.0854,12.6233 8.3609,-0.7129 24.4124,-7.6231 24.4124,-7.6231l21.8247 7.5021 -0.1645 -1.8352c4.8024,3.3803 8.1823,0.3559 8.1823,0.3559l0.178 0.7119 10.316 0 -1.4204 5.5125 9.9608 0 1.2442 -5.6919c2.3126,1.4247 6.0478,0.3559 6.0478,0.3559l25.616 0 0.1784 -1.9561c7.8267,4.8023 14.2302,0.5336 14.2302,0.5336 8.8939,4.2687 14.9404,-0.8895 14.9404,-0.8895 1.6022,4.2697 10.852,1.9561 10.852,1.9561 6.0315,1.4332 6.7607,-0.7102 6.7607,-0.7102l0.1779 0.8896 13.8731 0 0.8908 -3.7373c2.6669,5.5142 11.5636,4.0916 11.5636,4.0916 11.7385,-3.556 5.8686,-11.3843 5.8686,-11.3843l2.6682 -0.3559c-0.1766,-10.851 -13.1618,-6.7583 -13.1618,-6.7583 -2.3123,-1.603 -5.5168,-0.5337 -5.5168,-0.5337l-8.0033 0 -0.3558 1.0661c-3.2004,-1.9572 -11.3841,-1.0661 -11.3841,-1.0661l-2.6697 0 1.4245 -7.1159 -11.0298 5.6918 -0.3559 1.4241 -2.1344 0 0 0.7118c-7.2926,-2.4923 -12.4519,1.6003 -12.4519,1.6003 -8.5386,-5.6925 -14.7646,-0.1782 -14.7646,-0.1782 -2.4907,-3.7352 -8.7161,-1.9563 -8.7161,-1.9563l-4.8018 0 1.2437 -5.3358 -9.7822 0 -1.4237 6.5803c-2.312,-2.4914 -7.2926,-1.4221 -7.2926,-1.4221l-4.8041 0 1.2445 -5.5141 -4.446 0 12.6839 -5.049 -35.921 4.09 0 -10.229z"/>
   <path class="fil1" d="M195.5308 23.9941c-0.1779,-10.8516 -13.1631,-6.7583 -13.1631,-6.7583 -2.3125,-1.603 -5.5155,-0.5342 -5.5155,-0.5342l-8.0033 0 -0.357 1.0666c-3.1992,-1.9576 -11.3829,-1.0666 -11.3829,-1.0666l-2.6682 0 1.423 -7.116 -11.0298 5.6913 -0.3559 1.4247 -2.1344 0 0 0.7118c-7.2926,-2.4923 -12.4519,1.6002 -12.4519,1.6002 -8.5386,-5.6924 -14.7641,-0.1782 -14.7641,-0.1782 -2.4908,-3.7351 -8.7172,-1.9561 -8.7172,-1.9561l-4.8017 0 1.2447 -5.3365 -9.7832 0 -1.4236 6.5814c-2.3116,-2.4914 -7.2928,-1.4226 -7.2928,-1.4226l-4.8038 0 1.2453 -5.5147 -4.4471 0 12.6839 -5.0479 -35.9204 4.09 0 -10.2285 -17.5048 12.9575c-21.7087,1.4183 -28.1915,10.6855 -28.1915,10.6855 -16.6341,14.0586 -0.0859,12.6249 -0.0859,12.6249 8.3609,-0.7129 24.4124,-7.6231 24.4124,-7.6231l21.8247 7.5021 -0.165 -1.8358c4.8029,3.3804 8.1822,0.3555 8.1822,0.3555l0.1783 0.7118 10.3169 0 -1.4214 5.5136 9.9606 0 1.2448 -5.6924c2.3131,1.4248 6.0478,0.3554 6.0478,0.3554l25.6155 0 0.1777 -1.9557c7.8268,4.8024 14.2311,0.5342 14.2311,0.5342 8.8942,4.2682 14.942,-0.89 14.942,-0.89 1.6009,4.2697 10.8507,1.9561 10.8507,1.9561 6.0315,1.4332 6.7607,-0.7107 6.7607,-0.7107l0.1779 0.8895 13.8731 0 0.8908 -3.7362c2.6669,5.5146 11.5636,4.091 11.5636,4.091 11.7385,-3.5558 5.8686,-11.3837 5.8686,-11.3837l2.6682 -0.3559zm-100.7797 -10.3222l0 0 5.5135 0 -0.8082 3.7887 -5.5163 0 0.811 -3.7887zm-43.2518 17.922l0 0 -19.2726 -6.1677c-30.9899,14.0305 -29.757,6.1677 -29.757,6.1677 2.0055,-6.4759 20.8144,-9.5592 20.8144,-9.5592 7.7094,-1.2341 7.0915,-3.701 7.0915,-3.701 -0.6146,-1.6958 -9.0964,2.7761 -9.0964,2.7761 -3.2367,-0.4631 -9.2499,1.8495 -9.2499,1.8495 6.3215,-6.9377 18.0391,-8.0165 18.0391,-8.0165 1.542,-0.3083 7.7092,-0.6175 7.7092,-0.6175l13.5679 -10.1764 0 8.1725 25.901 -3.0838 -25.7472 9.5592 0 12.7971zm19.1017 -17.3832l0 0 -0.8901 4.2689c-1.7779,-1.4238 -5.3364,-1.4238 -5.3364,-1.4238l6.2265 -2.8451zm-2.0034 19.2168l0 0 -5.3263 0c-0.1252,-0.5665 -0.1879,-1.1107 -0.1879,-1.6315 -1.4346,1.3122 -3.0371,1.9672 -4.8038,1.9672 -1.8045,0 -3.1004,-0.4227 -3.8896,-1.2686 -0.7893,-0.8439 -1.1838,-1.8258 -1.1838,-2.9402 0,-1.2677 0.351,-2.2341 1.0549,-2.8992 0.705,-0.6657 1.5717,-1.1176 2.6033,-1.3558 1.0321,-0.2387 2.441,-0.4477 4.2251,-0.6275 1.5887,-0.1717 2.647,-0.3367 3.1756,-0.4991 0.1068,-0.4311 0.1614,-0.7627 0.1614,-0.9918 0,-0.3675 -0.1852,-0.6614 -0.5522,-0.882 -0.367,-0.2212 -0.8557,-0.3316 -1.464,-0.3316 -0.6359,0 -1.1509,0.1045 -1.5456,0.3146 -0.3945,0.2095 -0.7425,0.6476 -1.0417,1.3159l-5.0352 -0.5569c0.3321,-1.3691 1.0896,-2.4262 2.2677,-3.1707 1.1795,-0.7426 3.0078,-1.115 5.4848,-1.115 2.8086,0 4.7038,0.3543 5.6871,1.0613 0.9812,0.7076 1.4734,1.7376 1.4734,3.0907 0,0.9006 -0.2481,2.3831 -0.7468,4.4491 -0.4613,1.9562 -0.6927,3.3171 -0.6927,4.0842 0,0.5447 0.0839,1.0985 0.2419,1.6628l4.1521 -19.4315 5.5156 0 -4.2204 19.7556 -5.3529 0zm16.5223 0.3357l0 0c-2.005,0 -3.5187,-0.7521 -4.543,-2.2553l-1.5932 7.3855 -5.5046 0 4.2612 -19.8028 5.1133 0 -0.2721 1.4358 0.0528 0.0531c0.7803,-0.7209 1.4784,-1.2046 2.0979,-1.4524 0.6179,-0.2471 1.3627,-0.3718 2.2331,-0.3718 1.6044,0 2.834,0.5357 3.6911,1.6056 0.8555,1.0708 1.2842,2.5157 1.2842,4.3322 0,2.4299 -0.6456,4.5489 -1.935,6.3565 -1.2895,1.8092 -2.9179,2.7136 -4.8857,2.7136zm5.4107 -0.3357l0 0 3.0622 -14.3369 5.5156 0 -3.0625 14.3369 -5.5153 0zm93.9961 -9.6047l0 0c0.3,0.2222 1.1053,0.4264 2.4129,0.6153 2.1046,0.3151 3.5046,0.7898 4.1999,1.4267 0.6925,0.635 1.0415,1.4836 1.0415,2.5471 0,1.4778 -0.6817,2.7385 -2.0477,3.7839 -1.3647,1.0456 -3.4435,1.5674 -6.2367,1.5674 -2.2812,0 -3.9512,-0.3315 -5.0105,-0.9956 -1.0577,-0.6625 -1.6783,-1.7561 -1.8588,-3.28l5.4191 -0.4716c0.2337,1.1511 0.9914,1.7271 2.2785,1.7271 0.5975,0 1.1271,-0.1316 1.5874,-0.3925 0.4603,-0.2604 0.6884,-0.636 0.6884,-1.124 0,-0.4413 -0.1643,-0.7388 -0.4955,-0.8921 -0.33,-0.1533 -0.9573,-0.3024 -1.8807,-0.446 -2.1223,-0.3348 -3.559,-0.8397 -4.3113,-1.5154 -0.7522,-0.6769 -1.1269,-1.5293 -1.1269,-2.5577 0,-0.1411 0.0109,-0.2812 0.0272,-0.4217 -0.3939,-0.0854 -0.7523,-0.1305 -1.0659,-0.1305 -1.0552,0 -1.9105,0.3792 -2.5691,1.1377 -0.6586,0.7591 -1.1678,1.9753 -1.5276,3.6471l-1.1434 5.3795 -10.5219 0c-0.125,-0.5665 -0.1861,-1.1107 -0.1861,-1.6315 -1.4352,1.3122 -3.0376,1.9672 -4.8027,1.9672 -1.8059,0 -3.1028,-0.4227 -3.8916,-1.2686 -0.55,-0.5857 -0.9016,-1.2396 -1.0686,-1.9573l-0.6071 2.8923c-1.6619,0.2249 -2.8773,0.3389 -3.6526,0.3389 -1.5424,0 -2.6369,-0.3702 -3.2818,-1.108 -0.6451,-0.7389 -0.9668,-1.5451 -0.9668,-2.4186 0,-0.288 0.1317,-1.0562 0.395,-2.3005l1.0389 -4.9142 -2.0096 0 0.0895 -0.4397 -4.4645 0.4831c-0.1535,-0.8629 -0.7917,-1.2952 -1.9188,-1.2952 -0.6626,0 -1.1649,0.122 -1.5053,0.3659 -0.3396,0.2425 -0.5083,0.5263 -0.5083,0.8503 0,0.3347 0.1491,0.6116 0.4492,0.8312 0.3004,0.2222 1.1054,0.4264 2.4131,0.6153 2.1061,0.3151 3.5046,0.7898 4.1999,1.4267 0.6938,0.635 1.0414,1.4836 1.0414,2.5471 0,1.4778 -0.6829,2.7385 -2.0477,3.7839 -1.366,1.0456 -3.4435,1.5674 -6.2356,1.5674 -2.2813,0 -3.9511,-0.3315 -5.0104,-0.9956 -0.6947,-0.4338 -1.1964,-1.057 -1.5121,-1.8617 -0.6678,0.8365 -1.4545,1.4788 -2.3657,1.9196 -1.2931,0.6249 -2.9103,0.9377 -4.858,0.9377 -2.8287,0 -4.8394,-0.637 -6.0339,-1.9122 -1.1928,-1.2761 -1.7891,-2.8376 -1.7891,-4.686 0,-0.3687 0.0254,-0.7299 0.071,-1.0859l-1.5518 7.3484 -5.4999 0 1.4166 -6.6668c0.3405,-1.6321 0.5103,-2.564 0.5103,-2.7974 0,-0.7865 -0.3575,-1.1807 -1.0752,-1.1807 -0.8062,0 -1.5084,0.3809 -2.1105,1.1399 -0.5999,0.7606 -1.0529,1.8554 -1.3584,3.2843l-1.334 6.2207 -5.5432 0 3.0738 -14.3369 5.1389 0 -0.473 2.1597 0.0547 0.0546c1.5074,-1.6987 3.3458,-2.5496 5.5194,-2.5496 1.2905,0 2.2591,0.3306 2.9057,0.9934 0.6454,0.662 0.9684,1.4757 0.9684,2.4404 0,0.4869 -0.1304,1.3785 -0.386,2.6648 0.1314,-0.4455 0.3012,-0.8799 0.5102,-1.3053 0.5579,-1.1313 1.3158,-2.0808 2.2697,-2.8473 0.9535,-0.7653 1.8967,-1.2809 2.8238,-1.5476 0.9277,-0.2653 2.0129,-0.3984 3.2567,-0.3984 2.6743,0 4.5944,0.5813 5.7567,1.7452 1.161,1.1646 1.7423,2.5935 1.7423,4.2897 0,0.5607 -0.1216,1.5203 -0.3645,2.8839l-10.9512 0c0.1511,1.9175 1.005,2.8775 2.5618,2.8775 1.0543,0 1.8947,-0.4324 2.5205,-1.2947l4.2746 0.3957c-0.0085,-0.0563 -0.0206,-0.1088 -0.0276,-0.165l5.4182 -0.4716c0.2339,1.1511 0.9914,1.7271 2.2774,1.7271 0.5986,0 1.1295,-0.1316 1.5872,-0.3925 0.4616,-0.2604 0.6911,-0.636 0.6911,-1.124 0,-0.4413 -0.1643,-0.7388 -0.4969,-0.8921 -0.3301,-0.1533 -0.9574,-0.3024 -1.881,-0.446 -2.1217,-0.3348 -3.558,-0.8397 -4.3112,-1.5154 -0.7505,-0.6769 -1.1277,-1.5293 -1.1277,-2.5577 0,-0.8386 0.2833,-1.6597 0.8483,-2.4627 0.5663,-0.8024 1.4224,-1.4368 2.5655,-1.9009 1.1461,-0.4641 2.5536,-0.6965 4.2237,-0.6965 1.9119,0 3.377,0.2822 4.3967,0.846 0.6803,0.3739 1.1855,0.9351 1.5291,1.6729l0.452 -2.1789 2.0259 0 0.4712 -2.2282 6.1457 -3.0504 -1.1176 5.2786 2.8312 0 -0.8351 3.9319 -2.8758 0 -1.028 5.0819c-0.0937,0.21 -0.1411,0.4365 -0.1411,0.6731 0,0.638 0.4316,0.9574 1.2939,0.9574 0.235,0 0.6966,-0.06 1.3836,-0.1799 0,-0.0015 0,-0.0026 0,-0.0053 0,-1.2677 0.3504,-2.2341 1.0537,-2.8992 0.7049,-0.6657 1.5724,-1.1176 2.6031,-1.3558 1.0333,-0.2387 2.4414,-0.4477 4.227,-0.6275 1.586,-0.1717 2.6464,-0.3367 3.1733,-0.4991 0.1086,-0.4311 0.1616,-0.7627 0.1616,-0.9918 0,-0.3681 -0.1834,-0.6614 -0.5513,-0.882 -0.3679,-0.2212 -0.8541,-0.3316 -1.4637,-0.3316 -0.6355,0 -1.1515,0.1045 -1.5452,0.3146 -0.3966,0.2095 -0.7429,0.6476 -1.0417,1.3159l-5.0361 -0.5574c0.3326,-1.3686 1.0875,-2.4257 2.2703,-3.1702 1.1786,-0.7426 3.0063,-1.115 5.4829,-1.115 2.8095,0 4.7024,0.3543 5.6867,1.0613 0.9804,0.7076 1.4733,1.7376 1.4733,3.0907 0,0.9006 -0.2484,2.3831 -0.7454,4.4491 -0.4631,1.9562 -0.6938,3.3171 -0.6938,4.0842 0,0.4444 0.057,0.898 0.1629,1.3568l2.9139 -13.7068 5.1367 0 -0.6327 2.7999 0.0544 0.053c0.8567,-1.2645 1.6104,-2.1119 2.2608,-2.5426 0.6503,-0.4307 1.3632,-0.6456 2.1413,-0.6456 0.5853,0 1.2193,0.1433 1.8983,0.4302l-0.7427 1.5434c0.5254,-0.5133 1.2017,-0.9404 2.0312,-1.2771 1.1447,-0.4641 2.5514,-0.6965 4.2203,-0.6965 1.9118,0 3.3796,0.2822 4.398,0.846 1.0198,0.5634 1.6594,1.536 1.9201,2.9151l-5.1301 0.5542c-0.1519,-0.8629 -0.7929,-1.2952 -1.9198,-1.2952 -0.6627,0 -1.1638,0.122 -1.5032,0.3659 -0.3409,0.2425 -0.5079,0.5263 -0.5079,0.8503 0,0.3347 0.148,0.6116 0.4481,0.8312zm-59.9144 0.3819l0 0c0,0.3548 -0.032,0.6322 -0.095,0.8306l-5.3509 0c0.2982,-1.0179 0.7299,-1.7827 1.301,-2.2967 0.5671,-0.5134 1.192,-0.7712 1.8682,-0.7712 0.6419,0 1.1817,0.1883 1.6199,0.5659 0.4366,0.3782 0.6568,0.9352 0.6568,1.6714zm-39.9155 -1.8528l0 0c0.5117,0 0.952,0.1942 1.321,0.5798 0.3672,0.3893 0.5523,1.0237 0.5523,1.9069 0,1.4516 -0.2886,2.687 -0.8631,3.7049 -0.5748,1.0194 -1.2623,1.5275 -2.061,1.5275 -0.5489,0 -1.0365,-0.2078 -1.4625,-0.6216 -0.4269,-0.4148 -0.6386,-1.0459 -0.6386,-1.8935 0,-1.1887 0.2705,-2.3551 0.8142,-3.495 0.5427,-1.1388 1.3218,-1.709 2.3377,-1.709zm-26.1208 6.94l0 0c0,-0.4456 0.219,-0.8317 0.6568,-1.1585 0.4385,-0.3267 1.9135,-0.7032 4.4288,-1.1308 -0.2334,1.3907 -0.687,2.3684 -1.362,2.9369 -0.6769,0.5675 -1.3578,0.8508 -2.0476,0.8508 -0.49,0 -0.8936,-0.1337 -1.2066,-0.401 -0.3123,-0.269 -0.4694,-0.6333 -0.4694,-1.0974zm-47.0593 0.1305l0 0c-0.455,-2.7279 12.5034,-5.4564 12.5034,-5.4564 -8.4106,8.4117 -12.5034,5.4564 -12.5034,5.4564zm146.176 -0.1305l0 0c0,-0.4456 0.2188,-0.8317 0.656,-1.1585 0.4386,-0.3267 1.9146,-0.7032 4.4278,-1.1308 -0.232,1.3907 -0.687,2.3684 -1.3619,2.9369 -0.6762,0.5675 -1.3565,0.8508 -2.0475,0.8508 -0.4903,0 -0.8936,-0.1337 -1.2045,-0.401 -0.3137,-0.269 -0.4699,-0.6333 -0.4699,-1.0974z"/>
  </g>
 </g>
</svg>
